<?xml version="1.0" standalone="no"?> <!DOCTYPE svg PUBLIC "-//W3C//DTD SVG 1.0//EN" "http://www.w3.org/TR/2001/REC-SVG-20010904/DTD/svg10.dtd" > <svg xmlns="http://www.w3.org/2000/svg" width="100%" height="100%">
<defs >
<font horiz-adv-x="554" ><font-face
    font-family=""
    units-per-em="1000"
    panose-1="2 0 6 3 8 0 0 2 0 4"
    ascent="801"
    descent="-199"
    alphabetic="0" />
<missing-glyph horiz-adv-x="500" />
<glyph unicode=" " glyph-name="space" horiz-adv-x="214" />
<glyph unicode="!" glyph-name="exclam" horiz-adv-x="275" d="M138 -6Q108 -6 86 16T64 67Q64 99 86 120T138 141Q168 141 191 120T214 67Q214 52 208 39T191 16T167 0T138 -6ZM60 591Q54 620 58 641T73 675T101 695T138 702Q158 702 175 696T204 676T220 641T218
591L153 206H125L60 591Z" />
<glyph unicode="&quot;" glyph-name="quotedbl" horiz-adv-x="363" d="M41 617Q33 641 35 658T47 685T70 701T99 706Q113 706 126 701T149 686T160 658T156 617L109 460H90L41 617ZM207 617Q199 641 201 658T213 685T235 701T264 706Q279 706 292 701T315 686T327
658T322 617L273 460H254L207 617Z" />
<glyph unicode="#" glyph-name="numbersign" horiz-adv-x="523" d="M123 187H31L48 280H141L168 417H78L94 510H187L224 693H271L235 510H355L392 693H439L403 510H495L478 417H384L357 280H449L433 187H338L302 0H254L291 187H170L134 0H86L123 187ZM309 280L336
417H216L189 280H309Z" />
<glyph unicode="$" glyph-name="dollar" horiz-adv-x="510" d="M11 109Q11 138 29 152T72 167Q104 167 121 150T143 81Q144 66 147 56T160 38T185 27T227 22V289Q171 311 134 334T73 384T39 441T29 507Q29 546 44 580T86 639T150 681T233 701V766H273V703Q326
702 363 692T424 666T459 631T470 592Q470 566 452 550T406 533Q371 533 356 552T335 620Q332 646 320 656T273 669V422Q331 397 371 373T436 322T472 264T483 194Q483 153 467 117T423 53T355 8T267 -12V-110H227V-12Q113 -9 62 24T11 109ZM368 143Q368 184 346
214T267 272V23Q319 28 343 60T368 143ZM136 561Q136 541 140 525T156 494T186 466T233 440V667Q185 661 161 632T136 561Z" />
<glyph unicode="%" glyph-name="percent" horiz-adv-x="756" d="M197 346Q166 346 136 356T81 388T42 442T27 519Q27 568 44 603T87 660T143 693T201 704Q230 704 260 693T315 661T355 606T371 527Q371 480 355 446T313 390T256 357T197 346ZM199 376Q234 376
250 407T266 519Q266 564 262 593T250 641T229 666T199 674Q183 674 171 667T150 644T138 599T133 528Q133 485 137 456T149 409T169 384T199 376ZM554 -13Q524 -13 494 -3T439 29T400 83T385 161Q385 209 402 244T445 301T501 334T558 345Q587 345 617 334T672
302T713 247T729 169Q729 122 713 88T671 32T614 -2T554 -13ZM557 17Q591 17 607 48T623 160Q623 205 619 234T607 282T586 307T557 315Q540 315 528 309T507 286T495 241T490 170Q490 83 506 50T557 17ZM600 714H655L137 -50H82L600 714Z" />
<glyph unicode="&amp;" glyph-name="ampersand" horiz-adv-x="709" d="M269 -13Q201 -13 154 3T78 46T36 107T23 178Q23 215 37 245T74 299T128 342T193 376Q167 414 154 449T140 523Q140 563 156 596T199 654T261 691T334 705Q370 705 401 696T457 670T494 627T508
569Q508 539 494 515T457 471T403 433T337 401Q374 348 417 290T505 178Q526 214 535 248T545 304Q545 324 536 332T510 345L480 352V376H694V352L667 345Q644 338 629 320T593 265Q582 242 567 211T532 147Q550 126 571 103T608 64Q619 53 629 44T654 32L685 24V0H485Q475
10 464 23T442 47Q410 22 367 5T269 -13ZM304 36Q342 36 370 47T416 75Q362 138 309 209T211 348Q161 298 161 206Q161 128 199 82T304 36ZM320 425Q341 438 357 452T384 482T401 519T407 566Q407 620 387 644T334 669Q299 669 279 645T259 580Q259 538 275 501T320
425Z" />
<glyph unicode="&apos;" glyph-name="quotesingle" horiz-adv-x="196" d="M40 617Q32 641 34 658T46 685T69 701T98 706Q113 706 126 701T149 686T160 658T155 617L107 460H88L40 617Z" />
<glyph unicode="(" glyph-name="parenleft" horiz-adv-x="317" d="M286 -141Q245 -111 202 -69T122 27T63 150T39 302Q39 378 62 445T122 569T201 670T286 745L307 726Q272 692 244 648T194 552T162 442T150 322Q150 241 161 176T194 57T243 -41T307 -122L286 -141V-141Z" />
<glyph unicode=")" glyph-name="parenright" horiz-adv-x="317" d="M11 -122Q79 -48 123 56T167 297Q167 444 123 551T11 726L31 745Q72 715 116 672T196 574T255 450T279 302Q279 224 256 156T196 32T116 -67T31 -141L11 -122Z" />
<glyph unicode="*" glyph-name="asterisk" horiz-adv-x="358" d="M84 419Q76 425 71 434T66 453T72 473T92 493L168 544L77 545Q60 544 50 549T34 561T28 579T30 598Q35 616 54 624T100 612L171 557L142 642Q136 658 137 670T144 690T159 701T178 705Q198 705
211 690T213 642L184 557L255 612Q281 633 300 624T325 596Q328 587 327 577T321 560T305 548T278 544H187L262 492Q290 474 288 453T270 419Q262 414 253 412T234 413T216 425T204 450L177 538L150 450Q141 419 121 414T84 419Z" />
<glyph unicode="+" glyph-name="plus" horiz-adv-x="464" d="M202 313H36V364H202V546H262V364H428V313H262V131H202V313Z" />
<glyph unicode="," glyph-name="comma" horiz-adv-x="228" d="M23 -96Q127 -49 125 20Q122 17 115 14T97 11Q70 11 53 28T35 75Q35 105 56 123T109 141Q142 141 167 117T193 48Q193 -13 152 -55T30 -116L23 -96Z" />
<glyph unicode="-" glyph-name="hyphen" horiz-adv-x="273" d="M34 334H249L238 245H24L34 334Z" />
<glyph unicode="." glyph-name="period" horiz-adv-x="220" d="M110 -6Q79 -6 58 15T36 67Q36 99 57 120T110 141Q140 141 162 120T185 67Q185 37 163 16T110 -6Z" />
<glyph unicode="/" glyph-name="slash" horiz-adv-x="378" d="M308 734H360L52 -130H0L308 734Z" />
<glyph unicode="0" glyph-name="zero" horiz-adv-x="658" d="M326 -12Q272 -12 220 8T126 70T60 179T34 337Q34 436 63 506T136 620T232 685T332 705Q384 705 436 685T530 621T598 512T625 352Q625 255 598 186T527 73T430 9T326 -12ZM329 25Q365 25 391 41T435
94T461 190T469 335Q469 430 461 494T435 596T391 651T329 668Q295 668 269 653T226 602T199 505T190 353Q190 262 198 200T224 98T267 42T329 25Z" />
<glyph unicode="1" glyph-name="one" horiz-adv-x="373" d="M26 24L74 32Q86 34 93 37T105 47T112 66T114 100V560L26 564V589Q98 604 151 630T243 701L265 696V100Q265 79 266 67T272 47T284 37T303 32L348 24V0H26V24Z" />
<glyph unicode="2" glyph-name="two" horiz-adv-x="521" d="M15 69Q142 173 225 266Q252 296 273 324T309 381T331 444T339 520Q339 562 331 590T308 636T275 661T234 668Q197 668 185 657T171 619Q168 570 150 550T95 530Q63 530 47 547T31 591Q31 613 45 634T87
670T155 695T248 705Q300 705 344 693T421 655T471 593T489 505Q489 451 459 400T379 301T262 207T124 116V112H375Q394 112 406 114T428 125T446 148T467 190H491L476 0H15V69Z" />
<glyph unicode="3" glyph-name="three" horiz-adv-x="523" d="M216 -12Q116 -12 64 17T11 100Q11 126 27 142T76 159Q105 159 122 144T147 86Q151 67 155 55T165 37T184 28T218 25Q251 25 273 37T310 72T330 126T336 195Q336 275 306 308T204 341H153V380H195Q262
380 291 414T321 527Q321 600 296 634T221 668Q195 668 184 660T170 625Q165 579 150 560T99 540Q67 540 52 556T36 597Q36 623 52 643T96 677T160 698T239 705Q347 705 406 660T465 539Q465 483 424 436T290 369V366Q380 358 435 315T491 191Q491 150 475 113T424
49T338 5T216 -12Z" />
<glyph unicode="4" glyph-name="four" horiz-adv-x="570" d="M225 24L264 32Q275 34 282 37T294 47T300 66T302 100V198H15V246L359 693H447V263H552L541 198H447V100Q447 79 448 67T454 47T466 37T485 32L527 24V0H225V24ZM302 263V549H299L81 266V263H302Z" />
<glyph unicode="5" glyph-name="five" horiz-adv-x="520" d="M216 -12Q128 -12 77 16T26 96Q26 120 42 137T90 155Q123 155 140 139T164 75Q168 44 178 35T224 25Q362 25 362 181Q362 222 349 250T314 296T260 322T192 330Q154 330 125 325T79 314L69 321L110
693H388Q399 693 406 694T420 701T432 717T447 746H472L453 583H142L125 433Q140 438 167 443T237 449Q290 449 336 436T416 395T469 325T489 227Q489 174 469 131T412 55T325 6T216 -12Z" />
<glyph unicode="6" glyph-name="six" horiz-adv-x="580" d="M299 -12Q244 -12 195 7T108 66T50 165T28 305Q28 412 59 488T139 612T250 682T374 705Q447 705 492 682T538 613Q538 587 523 571T475 554Q440 554 424 571T402 627Q397 650 389 659T357 668Q327 668
297 654T243 605T203 513T184 370Q210 388 248 403T339 418Q386 418 425 405T492 366T536 302T552 213Q552 162 534 121T482 50T402 4T299 -12ZM301 25Q331 25 351 36T382 69T397 124T402 202Q402 289 374 327T288 365Q256 365 231 358T183 336Q182 325 182 322T182
306Q182 242 186 190T203 102T239 45T301 25Z" />
<glyph unicode="7" glyph-name="seven" horiz-adv-x="497" d="M106 0Q127 94 160 175T234 328T321 462T417 582H115Q100 582 91 580T74 569T61 547T44 507H19L36 693H487V630Q436 559 399 487T336 339T292 178T263 0H106V0Z" />
<glyph unicode="8" glyph-name="eight" d="M276 -13Q225 -13 180 -2T101 31T46 85T26 162Q26 190 37 215T69 261T118 301T178 335V338Q119 370 88 415T56 516Q56 559 74 593T124 653T197 691T285 705Q326 705 365 696T434 666T483 616T502 546Q502 521 491 499T462
458T419 422T370 391V387Q446 347 487 303T528 192Q528 151 509 114T457 48T377 4T276 -13ZM283 26Q343 26 379 56T415 144Q415 172 401 194T359 237T294 277T207 321Q195 309 183 295T162 264T146 224T139 173Q139 101 175 64T283 26ZM339 406Q360 429 377 460T395
542Q395 605 365 636T279 667Q225 667 195 640T164 565Q164 539 177 518T213 477T269 441T339 406Z" />
<glyph unicode="9" glyph-name="nine" horiz-adv-x="580" d="M213 -12Q138 -12 92 11T45 81Q45 108 60 124T109 140Q142 140 158 123T182 66Q187 43 195 34T228 25Q265 25 295 39T346 88T380 179T396 322Q370 304 332 289T242 273Q195 273 156 286T89 325T44 389T28
477Q28 529 46 571T99 643T179 689T281 705Q337 705 386 686T472 627T530 528T551 388Q551 283 524 207T451 83T343 11T213 -12ZM290 327Q322 327 348 334T397 356V387Q397 451 393 503T377 591T341 648T279 668Q220 668 199 624T178 488Q178 403 205 365T290 327Z"
/>
<glyph unicode=":" glyph-name="colon" horiz-adv-x="227" d="M114 -6Q83 -6 61 15T39 67Q39 98 61 119T114 141Q144 141 166 120T188 67Q188 37 166 16T114 -6ZM114 281Q83 281 61 302T39 354Q39 385 61 406T114 428Q144 428 166 407T188 354Q188 324 166 303T114 281Z" />
<glyph unicode=";" glyph-name="semicolon" horiz-adv-x="229" d="M25 -96Q79 -72 103 -43T127 20Q124 17 117 14T99 11Q72 11 55 28T37 75Q37 105 59 123T111 141Q144 141 169 117T195 48Q195 -13 154 -55T32 -116L25 -96ZM114 281Q83 281 61 302T39 354Q39 385
61 406T114 428Q144 428 166 407T188 354Q188 324 166 303T114 281Z" />
<glyph unicode="&lt;" glyph-name="less" horiz-adv-x="464" d="M34 305V354L426 531V473L97 330L426 188V129L34 305Z" />
<glyph unicode="=" glyph-name="equal" horiz-adv-x="505" d="M36 289H469V238H36V289ZM36 439H469V388H36V439Z" />
<glyph unicode="&gt;" glyph-name="greater" horiz-adv-x="464" d="M38 129V188L367 330L38 473V531L430 354V305L38 129Z" />
<glyph unicode="?" glyph-name="question" horiz-adv-x="456" d="M149 380Q175 389 200 402T246 434T280 481T293 548Q293 583 286 606T266 642T237 661T202 667Q179 667 171 659T159 625Q154 587 137 569T85 551Q54 551 40 568T26 608Q26 631 39 649T75 679T130
698T199 705Q305 705 363 657T421 517Q421 472 404 436T357 372T286 325T196 293V206H149V380ZM172 -6Q141 -6 120 16T98 67Q98 99 119 120T172 141Q202 141 225 120T248 67Q248 52 242 39T225 16T201 0T172 -6Z" />
<glyph unicode="@" glyph-name="at" horiz-adv-x="864" d="M409 -141Q326 -141 256 -118T136 -49T57 62T28 212Q28 306 64 388T163 532T307 628T479 664Q560 664 626 642T738 579T810 482T836 357Q836 270 812 209T749 109T665 53T577 35Q545 35 525 43T493 65T478
99T475 139H471Q444 96 406 67T324 37Q277 37 248 69T219 167Q219 238 243 298T306 401T390 469T481 493Q519 493 545 483T594 456H597L640 489L654 482Q650 472 646 456Q642 442 638 422T627 372L592 182Q583 131 589 106T628 80Q652 80 676 94T720 138T752 214T765
325Q765 392 747 447T692 543T603 606T478 629Q401 629 335 601T219 521T141 397T113 237Q113 163 132 101T190 -5T290 -73T433 -98Q500 -98 558 -84T667 -46V-77Q649 -88 621 -99T559 -120T487 -135T409 -141ZM380 108Q405 108 428 131T474 190L519 428Q514 442
504 451T474 460Q449 460 425 436T382 372T350 282T338 179Q338 139 348 124T380 108Z" />
<glyph unicode="A" glyph-name="A" horiz-adv-x="669" d="M-3 24L23 31Q34 34 42 38T57 53T71 82T91 133L290 693H372L579 126Q589 99 597 82T612 54T627 38T645 30L669 24V0H368V24L396 31Q416 36 423 45T431 68Q431 81 426 99T413 139L381 230H174L144 139Q136
118 133 101T130 73Q130 53 139 45T169 31L199 24V0H-3V24ZM187 269H368L278 529H273L187 269Z" />
<glyph unicode="B" glyph-name="B" horiz-adv-x="635" d="M20 24L59 32Q69 34 76 37T87 46T93 66T95 100V593Q95 614 93 626T87 646T76 656T59 661L20 669V693H319Q445 693 510 655T576 529Q576 460 531 423T400 371V366Q503 355 557 316T611 195Q611 99 542 50T347
0H20V24ZM331 40Q389 40 421 73T453 189Q453 272 423 307T320 342H244V110Q244 87 247 73T259 52T285 42T331 40ZM309 381Q372 381 400 413T428 511Q428 552 421 579T400 623T363 646T310 653Q290 653 272 651T244 647V381H309Z" />
<glyph unicode="C" glyph-name="C" horiz-adv-x="618" d="M358 -12Q287 -12 227 9T124 73T55 183T30 341Q30 439 58 508T136 621T249 685T385 705Q443 705 492 698T573 681L584 478H556Q538 521 519 557T482 618Q465 643 442 654T374 666Q326 666 292 650T235
597T201 502T190 360Q190 265 201 201T234 99T289 44T368 27Q421 27 447 40T493 83Q513 113 530 145T564 222H589L578 30Q543 15 487 2T358 -12Z" />
<glyph unicode="D" glyph-name="D" horiz-adv-x="711" d="M20 24L59 32Q69 34 76 37T87 47T93 66T95 100V593Q95 614 93 626T87 646T76 656T59 661L20 669V693H340Q415 693 477 675T585 616T656 512T681 356Q681 270 657 204T587 92T477 24T335 0H20V24ZM326 39Q381
39 419 59T480 117T513 210T524 335Q524 421 513 481T477 580T414 636T324 654Q295 654 275 652T245 645V131Q245 101 247 83T258 56T283 43T326 39Z" />
<glyph unicode="E" glyph-name="E" horiz-adv-x="603" d="M20 24L59 32Q69 34 76 37T87 47T93 66T95 100V593Q95 614 93 626T87 646T76 656T59 661L20 669V693H547L557 502H531Q513 542 501 565T478 603Q466 620 456 630T431 645T398 651T350 653Q305 653 282
650T245 644V379H284Q311 379 329 380T360 385T379 395T391 410Q401 428 407 445T419 488H446V229H419Q413 253 407 271T391 309Q386 319 380 325T363 334T333 339T284 340H245V147Q245 111 247 90T260 57T294 43T359 40Q391 40 411 42T445 50T469 67T491 95Q504
113 519 146T553 226H581L567 0H20V24Z" />
<glyph unicode="F" glyph-name="F" horiz-adv-x="575" d="M20 24L59 32Q69 34 76 37T87 46T93 66T95 100V593Q95 614 93 626T87 646T76 656T59 661L20 669V693H541L551 494H523Q505 538 493 561T468 603Q457 619 448 629T425 644T392 651T343 653Q305 653 282
651T245 645V368H270Q301 368 320 369T352 374T370 384T382 398Q392 415 399 434T413 479H439V213H413Q406 239 399 259T382 299Q377 309 371 315T353 324T322 328T270 329H245V100Q245 79 246 67T251 48T262 38T282 33L332 24V0H20V24Z" />
<glyph unicode="G" glyph-name="G" horiz-adv-x="682" d="M380 -12Q212 -12 121 76T30 343Q30 442 59 510T139 622T255 685T395 705Q460 705 506 699T588 684L599 478H572Q552 526 536 556T505 608Q493 625 483 636T460 654T428 663T383 666Q284 666 236 594T188
362Q188 273 198 210T230 106T288 46T376 27Q408 27 430 34T470 49V199Q470 220 469 232T463 251T451 261T434 266L394 275V299H676V275L647 268Q637 265 631 262T622 252T617 233T615 199V23Q594 16 567 10T509 -1T446 -9T380 -12Z" />
<glyph unicode="H" glyph-name="H" horiz-adv-x="746" d="M20 24L59 32Q69 34 76 37T87 46T93 66T95 100V593Q95 614 93 626T87 646T76 656T59 661L20 669V693H320V669L281 661Q270 658 263 655T252 646T247 627T245 593V374H501V593Q501 614 500 626T494 645T483
655T465 661L427 669V693H726V669L688 661Q677 659 671 656T660 646T654 627T652 593V100Q652 79 653 67T659 47T670 37T688 32L726 24V0H427V24L465 32Q476 35 483 37T494 47T499 66T501 100V333H245V100Q245 79 246 67T252 47T263 38T281 32L320 24V0H20V24Z"
/>
<glyph unicode="I" glyph-name="I" horiz-adv-x="347" d="M20 24L62 32Q72 34 79 37T90 46T96 66T98 100V593Q98 614 97 627T91 646T79 656T62 661L20 669V693H327V669L285 661Q274 659 267 656T256 646T251 627T249 593V100Q249 79 250 67T256 47T267 37T285
32L327 24V0H20V24Z" />
<glyph unicode="J" glyph-name="J" horiz-adv-x="340" d="M20 -176Q-46 -176 -78 -153T-111 -96Q-111 -70 -95 -54T-49 -37Q-14 -37 2 -55T26 -115Q30 -130 33 -133T48 -137Q68 -137 81 -117T95 -48V593Q95 614 94 626T88 645T77 655T59 661L19 669V693H320V669L281
661Q270 659 264 656T253 646T247 627T245 593V62Q245 10 230 -34T187 -109T116 -158T20 -176Z" />
<glyph unicode="K" glyph-name="K" horiz-adv-x="684" d="M485 0Q427 74 372 160T273 335V351L462 570Q477 587 483 601T490 627Q490 651 455 661L425 669V693H655V669L630 663Q617 660 607 655T586 641T562 618T528 582L383 420Q407 373 437 323T499 225T562
132T621 54Q631 42 636 38T653 31L684 24V0H485ZM20 24L59 32Q69 34 76 37T87 46T93 66T95 100V593Q95 614 93 626T87 646T76 656T59 661L20 669V693H320V669L281 661Q270 658 263 655T252 646T247 627T245 593V100Q245 79 246 67T252 47T263 38T281 32L320 24V0H20V24Z"
/>
<glyph unicode="L" glyph-name="L" horiz-adv-x="578" d="M20 24L59 32Q69 34 76 37T87 46T93 66T95 100V593Q95 614 93 626T87 646T76 656T59 661L20 669V693H326V669L281 660Q270 658 263 655T252 646T247 627T245 593V131Q245 101 247 84T258 56T287 43T342
40Q373 40 393 42T428 50T452 66T473 93Q487 114 503 147T538 233H566L552 0H20V24Z" />
<glyph unicode="M" glyph-name="M" horiz-adv-x="857" d="M20 24L52 31Q64 33 72 36T85 48T92 70T95 110V593Q95 614 93 626T87 646T76 656T59 661L20 669V693H268L429 233H433L589 693H837V669L799 661Q788 659 782 656T771 646T765 627T763 593V100Q763 79 764
67T770 47T781 37T799 32L837 24V0H540V24L576 32Q587 35 594 37T605 47T610 66T612 100V608H608L407 16H353L145 608H141V112Q141 86 143 71T149 48T162 37T185 31L219 24V0H20V24Z" />
<glyph unicode="N" glyph-name="N" horiz-adv-x="689" d="M145 589H141V112Q141 86 143 71T150 48T163 37T186 31L224 24V0H20V24L52 31Q64 33 72 36T85 48T92 70T95 110V593Q95 614 93 626T87 646T76 656T59 661L20 669V693H252L548 245H552V581Q552 607 551
622T544 645T531 656T508 662L466 669V693H674V669L641 662Q630 660 622 657T609 645T602 623T599 583V-2H540L145 589Z" />
<glyph unicode="O" glyph-name="O" horiz-adv-x="712" d="M352 -12Q287 -12 229 9T126 74T55 183T29 337Q29 435 58 505T134 619T240 684T360 705Q425 705 483 684T586 619T657 509T683 353Q683 254 654 185T578 72T472 8T352 -12ZM358 27Q401 27 432 43T485 95T516
189T526 333Q526 409 518 470T489 575T435 642T353 666Q311 666 280 650T228 597T197 501T186 357Q186 281 194 220T223 116T276 50T358 27Z" />
<glyph unicode="P" glyph-name="P" horiz-adv-x="611" d="M20 24L59 32Q69 34 76 37T87 46T93 66T95 100V593Q95 614 94 626T88 645T79 654T64 659L20 669V693H328Q459 693 526 644T593 493Q593 448 577 409T530 341T453 294T346 277Q318 277 301 281T276 288V315Q319
314 350 322T400 349T429 402T439 484Q439 533 433 565T412 617T375 645T319 653Q296 653 275 651T245 646V100Q245 79 246 67T251 48T262 38T282 33L331 24V0H20V24Z" />
<glyph unicode="Q" glyph-name="Q" horiz-adv-x="712" d="M590 -171Q562 -171 539 -168T493 -157T450 -138T406 -111Q373 -89 339 -62T265 1Q213 13 170 40T96 110T47 209T29 337Q29 435 58 505T134 619T240 685T360 706Q425 706 483 685T586 620T657 510T683
353Q683 276 665 218T616 118T543 50T452 10V7Q472 -11 496 -29T543 -62Q581 -85 612 -94T674 -103Q697 -103 717 -96T751 -84V-108Q742 -117 728 -128T694 -148T648 -164T590 -171ZM358 26Q401 26 432 42T485 94T516 189T526 333Q526 409 518 470T489 575T435
642T353 666Q311 666 280 650T228 597T197 501T186 357Q186 281 194 220T223 115T276 49T358 26Z" />
<glyph unicode="R" glyph-name="R" horiz-adv-x="673" d="M20 24L59 32Q69 34 76 37T87 46T93 66T95 100V593Q95 614 93 626T87 646T76 656T59 661L20 669V693H331Q467 693 528 648T589 513Q589 452 554 410T444 345V342Q461 308 482 270T527 193T574 118T619
55Q627 44 635 39T659 29L677 24V0H483Q459 32 435 70T388 150T343 232T306 311H245V100Q245 79 246 67T251 47T262 37T280 32L319 24V0H20V24ZM296 347Q333 347 359 355T403 381T428 428T436 501Q436 545 430 574T410 621T374 646T321 653Q294 653 275 651T245
646V351Q247 350 261 349T296 347Z" />
<glyph unicode="S" glyph-name="S" horiz-adv-x="519" d="M237 -13Q171 -13 120 -3T38 21L26 209H55Q73 171 88 142T124 83Q146 50 173 39T247 27Q313 27 342 58T372 141Q372 165 365 184T339 221T292 255T217 290Q167 311 132 333T75 380T44 436T34 505Q34 548
51 585T99 649T173 691T270 706Q333 706 373 699T440 682L451 514H424Q415 534 408 548T393 575T378 597T361 620Q351 633 342 641T322 655T296 663T258 666Q202 666 173 641T143 566Q143 544 148 527T169 493T210 462T280 429Q337 405 376 382T441 334T478 279T490
214Q490 167 474 126T425 54T346 5T237 -13Z" />
<glyph unicode="T" glyph-name="T" horiz-adv-x="619" d="M155 24L197 32Q209 34 216 37T227 47T232 66T234 100V654H220Q191 654 173 653T143 646T122 631T103 604Q95 591 88 578T74 550T60 517T43 474H14L23 693H596L605 474H576Q567 498 560 516T545 550T531
578T516 604Q505 621 496 631T475 646T446 652T398 654H385V100Q385 79 386 67T391 47T402 37T422 32L463 24V0H155V24Z" />
<glyph unicode="U" glyph-name="U" horiz-adv-x="692" d="M361 -12Q299 -12 249 1T162 42T105 114T85 223V593Q85 614 84 626T78 646T66 656T49 661L11 669V693H309V669L272 661Q261 658 254 655T243 646T238 627T236 593V207Q236 124 274 85T402 46Q487 46 524
92T561 219V581Q561 607 560 622T553 645T539 656T516 662L473 669V693H682V669L649 662Q638 660 631 657T618 645T611 623T608 583V212Q608 166 594 125T549 54T473 6T361 -12Z" />
<glyph unicode="V" glyph-name="V" horiz-adv-x="658" d="M86 567Q77 592 70 608T56 636T41 653T20 663L-4 669V693H296V669L268 662Q233 654 233 625Q233 613 238 595T251 554L386 165H391L518 554Q524 574 528 591T532 622Q532 640 523 649T494 662L462 669V693H662V669L635
662Q624 659 617 653T603 636T590 607T573 560L377 0H296L86 567Z" />
<glyph unicode="W" glyph-name="W" horiz-adv-x="977" d="M84 572Q75 598 69 614T57 641T43 655T24 663L-2 669V693H290V669L262 663Q229 654 229 625Q229 611 234 593T245 554L364 174H369L475 495L447 581Q433 624 422 640T389 663L364 669V693H655V669L622
662Q591 655 591 623Q591 610 595 592T605 554L724 174H729L836 554Q841 573 845 591T849 624Q849 656 815 663L783 669V693H979V669L953 663Q929 657 917 633T887 551L718 0H634L500 422H497L356 0H273L84 572Z" />
<glyph unicode="X" glyph-name="X" horiz-adv-x="676" d="M13 24L35 29Q47 32 56 36T74 50T95 74T122 114L263 333L107 590Q96 608 89 620T75 640T60 653T40 662L16 669V693H331V669L295 662Q268 656 268 632Q268 621 273 607T292 570L384 410H387L480 576Q491
596 495 609T499 634Q499 656 468 663L437 669V693H640V669L614 663Q604 660 596 655T580 640T561 615T535 576L411 373L572 106Q585 85 594 72T610 50T625 37T641 29L664 24V0H354V24L387 29Q404 32 410 39T417 59Q417 80 391 121L289 298H286L182 121Q157 79
157 60Q157 36 185 29L214 24V0H13V24Z" />
<glyph unicode="Y" glyph-name="Y" horiz-adv-x="629" d="M172 24L214 32Q226 34 233 37T244 47T249 66T251 100V283L91 576Q78 600 69 615T52 640T36 655T18 663L-4 669V693H304V669L276 663Q255 658 246 649T237 624Q237 603 256 568L373 337H377L480 564Q490
584 493 598T496 623Q496 638 488 647T456 662L427 669V693H633V669L612 663Q600 659 591 653T573 635T554 606T532 563L402 290V100Q402 79 403 67T408 47T419 37T439 32L480 24V0H172V24Z" />
<glyph unicode="Z" glyph-name="Z" horiz-adv-x="567" d="M21 39L385 651V655H337Q281 655 248 654T195 648T163 634T142 609Q133 596 126 584T111 557T95 525T77 484H50L61 693H549V654L187 43V39H238Q296 39 332 41T390 48T424 63T449 88Q469 114 484 145T520
229H549L534 0H21V39Z" />
<glyph unicode="[" glyph-name="bracketleft" horiz-adv-x="340" d="M92 734H315V710L239 701Q223 699 213 696T198 686T191 667T189 632V-27Q189 -49 191 -62T198 -82T213 -92T239 -97L315 -106V-130H92V734Z" />
<glyph unicode="\" glyph-name="backslash" horiz-adv-x="378" d="M18 734H70L378 -130H326L18 734Z" />
<glyph unicode="]" glyph-name="bracketright" horiz-adv-x="340" d="M25 -106L101 -97Q117 -95 127 -92T142 -82T150 -62T152 -27V632Q152 654 150 666T143 686T127 696T101 701L25 710V734H248V-130H25V-106Z" />
<glyph unicode="^" glyph-name="asciicircum" horiz-adv-x="437" d="M52 471L196 699H241L385 471L371 456L218 588L67 456L52 471Z" />
<glyph unicode="_" glyph-name="underscore" horiz-adv-x="346" d="M-2 -120H348V-171H-2V-120Z" />
<glyph unicode="`" glyph-name="grave" horiz-adv-x="497" d="M169 628Q146 635 136 650T126 680Q126 700 140 716T175 733Q199 733 222 713L364 594L356 578L169 628Z" />
<glyph unicode="a" glyph-name="a" horiz-adv-x="515" d="M169 -13Q99 -13 59 21T19 120Q19 152 31 175T66 216T119 245T184 265L302 294V387Q302 416 299 436T287 469T263 488T222 494Q195 494 185 487T173 457Q169 419 156 399T105 379Q74 379 59 394T44 435Q44
459 60 477T103 506T168 524T250 530Q342 530 389 498T436 395V106Q436 81 441 69T461 48Q470 43 482 41T508 39V18Q495 8 468 -2T404 -12Q362 -12 339 4T309 48H304Q285 23 250 5T169 -13ZM230 49Q257 49 275 60T302 86V247L244 241Q201 237 177 215T152 138Q152
91 173 70T230 49Z" />
<glyph unicode="b" glyph-name="b" horiz-adv-x="587" d="M271 -12Q204 -12 155 -1T61 36V637Q61 654 60 664T56 680T46 689T31 698L-8 717V737L189 756L199 749Q198 735 197 717Q196 701 196 680T195 630V557Q195 537 195 521T194 492Q193 477 193 465H197Q228
491 270 510T364 529Q400 529 435 517T497 476T542 400T560 284Q560 209 539 153T479 61T387 6T271 -12ZM282 25Q317 25 343 36T386 73T412 143T421 255Q421 362 387 408T288 454Q253 454 231 446T195 431V61Q212 44 233 35T282 25Z" />
<glyph unicode="c" glyph-name="c" horiz-adv-x="484" d="M266 -12Q207 -12 162 7T86 61T39 145T23 254Q23 333 50 386T120 471T215 516T317 530Q390 530 428 507T467 440Q467 413 449 395T402 377Q367 377 354 396T336 445Q332 476 324 484T290 493Q265 493 242
484T200 453T170 392T159 294Q159 180 196 122T318 63Q366 63 404 75T468 102V71Q457 59 439 45T394 18T336 -3T266 -12Z" />
<glyph unicode="d" glyph-name="d" horiz-adv-x="600" d="M223 -12Q187 -12 152 1T89 45T44 123T27 241Q27 317 50 371T113 461T203 512T311 529Q336 529 357 526T394 518Q393 529 393 541Q392 552 392 565T392 592V637Q392 653 391 663T386 678T377 687T362 696L320
717V737L520 756L529 749Q528 735 527 717Q526 701 526 680T526 630V113Q526 95 527 84T531 67T541 56T557 48L589 33V14L404 -12L394 -5L396 50H392Q360 24 317 6T223 -12ZM294 57Q331 57 354 67T392 84V451Q378 466 357 479T306 492Q274 492 248 481T204 443T175
374T165 268Q165 210 173 170T198 104T239 68T294 57Z" />
<glyph unicode="e" glyph-name="e" horiz-adv-x="515" d="M276 -12Q213 -12 166 7T87 61T39 147T23 261Q23 324 44 374T100 458T181 511T276 530Q326 530 365 517T433 473T476 396T492 280H158Q159 218 171 177T205 110T258 74T327 63Q378 63 414 75T479 102V72Q467
60 448 46T403 18T345 -3T276 -12ZM270 495Q224 495 193 453T158 315L353 325Q353 370 350 402T337 455T311 485T270 495Z" />
<glyph unicode="f" glyph-name="f" horiz-adv-x="332" d="M15 23L47 31Q57 34 63 37T73 46T78 61T79 86V463H9V485L79 516V550Q79 599 96 637T144 703T219 744T317 759Q372 759 400 741T429 689Q429 665 415 651T373 636Q342 636 327 650T309 697Q307 714 303
719T290 724Q275 724 262 719T237 701T220 667T213 614V515H327L315 463H213V90Q213 72 214 62T218 45T228 37T244 32L288 23V0H15V23Z" />
<glyph unicode="g" glyph-name="g" horiz-adv-x="511" d="M209 -208Q102 -208 45 -177T-13 -90Q-13 -54 19 -27T108 14V18Q72 27 51 50T30 108Q30 127 37 144T55 175T80 201T107 221V225Q72 242 49 275T25 355Q25 398 42 430T88 485T154 518T232 529Q297 529 348
505Q371 525 399 539T460 553Q486 553 503 540T520 501Q520 480 509 465T474 449Q452 449 443 458T426 483Q418 498 403 498T369 489V485Q399 468 419 438T439 366Q439 322 422 290T376 237T310 205T232 194Q180 194 135 211Q126 203 118 191T109 163Q109 146 122
137T164 127H334Q368 127 397 121T447 100T480 60T492 -5Q492 -43 476 -79T426 -144T338 -190T209 -208ZM228 -173Q309 -173 356 -145T404 -62Q404 -29 384 -10T314 9H147Q130 2 113 -17T96 -72Q96 -120 127 -146T228 -173ZM232 228Q272 228 291 256T310 355Q310
434 291 464T232 495Q192 495 173 467T153 366Q153 288 173 258T232 228Z" />
<glyph unicode="h" glyph-name="h" horiz-adv-x="608" d="M15 23L47 31Q57 34 63 37T73 46T78 61T79 86V637Q79 654 78 664T74 680T64 689T49 698L10 717V737L207 756L217 749Q216 733 215 715Q214 699 214 677T213 630V557Q213 537 213 521T211 491Q210 476 210
463H214Q253 489 301 509T401 529Q470 529 501 497T533 396V86Q533 70 534 61T539 46T549 37T565 31L597 23V0H338V23L369 31Q379 34 385 36T394 44T398 59T399 86V364Q399 412 381 430T323 449Q292 449 262 443T213 431V86Q213 69 214 60T218 45T227 37T243 31L274
23V0H15V23Z" />
<glyph unicode="i" glyph-name="i" horiz-adv-x="288" d="M15 23L47 31Q57 34 63 37T73 46T78 61T79 86V407Q79 423 78 432T74 447T64 457T48 468L13 489V506L208 529L217 523Q216 509 215 482T213 417V86Q213 54 219 45T245 31L277 23V0H15V23ZM142 590Q110 590
88 611T65 663Q65 694 87 715T142 736Q174 736 196 715T218 663Q218 632 196 611T142 590Z" />
<glyph unicode="j" glyph-name="j" horiz-adv-x="282" d="M12 -210Q-47 -210 -74 -187T-102 -130Q-102 -105 -86 -91T-44 -77Q-11 -77 2 -93T20 -144Q22 -164 25 -169T37 -174Q57 -174 68 -159T79 -110V407Q79 423 78 432T74 447T64 457T48 468L13 489V506L208
529L217 523Q216 509 215 481T213 417V3Q213 -52 198 -92T155 -158T92 -197T12 -210ZM140 590Q108 590 86 611T64 663Q64 694 86 715T140 736Q172 736 194 715T217 663Q217 632 195 611T140 590Z" />
<glyph unicode="k" glyph-name="k" horiz-adv-x="564" d="M398 0Q347 63 307 124T229 248V261L342 387Q369 417 377 433T385 461Q385 478 352 488L338 492V515H539V492L514 485Q504 482 496 478T478 468T457 450T429 423L330 320Q351 286 374 250T421 178T469
111T514 54Q528 36 547 30L569 23V0H398ZM15 23L47 31Q57 34 63 37T73 46T78 61T79 86V637Q79 654 78 664T74 680T64 689T49 698L10 717V737L207 756L217 749Q216 733 215 715Q214 699 214 677T213 630V86Q213 69 214 60T218 45T227 37T242 31L272 23V0H15V23Z"
/>
<glyph unicode="l" glyph-name="l" horiz-adv-x="291" d="M15 23L47 31Q57 34 63 37T74 46T79 61T80 86V637Q80 654 79 663T75 679T65 689T49 698L10 717V737L208 756L218 749Q217 733 216 715Q215 699 215 677T214 630V86Q214 70 215 61T220 46T230 37T247 31L279
23V0H15V23Z" />
<glyph unicode="m" glyph-name="m" horiz-adv-x="901" d="M15 23L47 31Q57 34 63 37T73 46T78 61T79 86V407Q79 423 78 432T74 447T64 457T48 468L13 489V506L201 529L210 522L208 461H213Q251 488 296 508T393 529Q442 529 469 512T511 460H515Q556 487 601 508T703
529Q825 529 825 395V86Q825 70 826 61T831 46T841 37T857 31L889 23V0H632V23L662 31Q671 34 677 36T686 44T690 59T691 86V363Q691 411 677 430T624 449Q593 449 565 443T517 429Q518 423 518 414T519 391V86Q519 54 525 45T548 31L578 23V0H326V23L356 31Q365
34 370 36T379 44T384 59T385 86V363Q385 410 371 429T317 449Q287 449 260 443T213 431V86Q213 69 214 60T218 45T227 37T242 31L272 23V0H15V23Z" />
<glyph unicode="n" glyph-name="n" horiz-adv-x="608" d="M15 23L47 31Q57 34 63 37T73 46T78 61T79 86V407Q79 423 78 432T74 447T64 457T48 468L13 489V506L201 529L210 523L208 461H213Q251 488 300 508T401 529Q470 529 501 497T533 396V86Q533 70 534 61T539
46T549 37T565 31L597 23V0H338V23L369 31Q379 34 385 36T394 44T398 59T399 86V364Q399 412 381 430T323 449Q292 449 262 443T213 431V86Q213 69 214 60T218 45T227 37T243 31L274 23V0H15V23Z" />
<glyph unicode="o" glyph-name="o" horiz-adv-x="569" d="M284 -13Q230 -13 183 4T100 54T44 138T23 257Q23 326 45 377T104 463T187 513T284 530Q338 530 385 514T468 464T525 381T546 263Q546 194 524 142T466 56T382 4T284 -13ZM288 23Q315 23 336 33T372 70T395
140T403 251Q403 323 395 370T372 444T334 483T281 494Q253 494 232 483T196 446T174 378T166 273Q166 200 173 152T196 76T234 35T288 23Z" />
<glyph unicode="p" glyph-name="p" horiz-adv-x="605" d="M15 -180L47 -171Q57 -168 63 -165T73 -157T78 -142T79 -116V407Q79 423 78 432T74 447T64 457T48 468L13 489V506L201 529L210 523L209 464H213Q245 490 287 509T382 529Q417 529 452 517T515 476T560
400T578 284Q578 209 557 153T498 61T408 6T292 -12Q274 -12 252 -9T212 -1V-19Q212 -27 212 -38T213 -63V-116Q213 -133 214 -142T218 -157T228 -166T244 -171L287 -180V-203H15V-180ZM299 25Q334 25 360 36T403 73T430 143T439 255Q439 362 405 408T306 454Q271
454 249 446T213 431V61Q230 44 250 35T299 25Z" />
<glyph unicode="q" glyph-name="q" horiz-adv-x="592" d="M318 -180L361 -171Q371 -169 377 -166T386 -158T391 -143T392 -116V-24Q392 -8 392 5T393 29Q394 40 395 50H391Q360 24 317 6T223 -12Q187 -12 152 1T89 45T44 123T27 241Q27 317 50 371T113 461T203
512T311 529Q365 529 400 518T465 489H471L510 530L526 524V-116Q526 -132 527 -141T531 -156T541 -165T558 -171L590 -180V-203H318V-180ZM294 57Q331 57 354 67T392 84V454Q378 468 357 480T306 492Q274 492 248 481T204 443T175 374T165 268Q165 210 173 170T198
104T239 68T294 57Z" />
<glyph unicode="r" glyph-name="r" horiz-adv-x="438" d="M15 23L47 31Q57 34 63 37T73 46T78 61T79 86V407Q79 423 78 432T74 447T64 457T48 468L13 489V506L201 529L210 522L208 456H213Q225 469 241 482T277 505T316 523T357 530Q391 530 410 513T429 461Q429
429 411 412T367 394Q351 394 341 397T323 405T310 418T298 436Q294 445 290 448T279 451Q272 451 263 448T245 441T228 430T213 418V86Q213 69 214 59T218 44T228 36T243 31L283 23V0H15V23Z" />
<glyph unicode="s" glyph-name="s" horiz-adv-x="422" d="M185 -12Q142 -12 102 -6T31 10L26 162H51Q65 133 79 111T111 65Q126 43 145 34T199 24Q238 24 264 44T290 102Q290 121 284 135T263 161T227 184T172 208Q106 233 67 270T27 369Q27 404 41 433T82 484T145
518T229 530Q271 530 305 525T362 510L367 378H344Q330 404 318 424T290 461Q273 482 256 488T213 494Q175 494 154 476T132 424Q132 393 155 370T239 324Q320 294 359 257T399 162Q399 124 385 92T343 37T276 1T185 -12Z" />
<glyph unicode="t" glyph-name="t" horiz-adv-x="348" d="M196 -12Q136 -12 102 16T68 112V463H2V485Q57 505 97 544T159 643H202V515H338L326 463H202V122Q202 87 216 72T267 56Q287 56 307 59T342 67V42Q334 35 321 26T289 8T248 -6T196 -12Z" />
<glyph unicode="u" glyph-name="u" horiz-adv-x="604" d="M208 -12Q147 -12 112 21T76 120V415Q76 430 75 438T71 452T63 462T47 471L10 491V509L199 529L210 520V151Q210 106 229 86T286 66Q317 66 345 74T396 91V415Q396 430 395 438T391 452T383 462T367 471L330
491V509L519 529L530 520V113Q530 95 531 84T535 67T545 56T561 48L594 33V14L408 -12L399 -5L401 60H396Q357 32 310 10T208 -12Z" />
<glyph unicode="v" glyph-name="v" horiz-adv-x="535" d="M72 412Q64 431 58 443T46 464T33 478T15 486L-6 492V515H264V492L237 485Q220 480 214 472T208 448Q208 438 211 425T221 395L313 144H318L408 395Q421 431 421 450Q421 478 392 485L365 492V515H541V492L518
486Q508 483 501 478T488 463T476 438T461 401L306 0H236L72 412Z" />
<glyph unicode="w" glyph-name="w" horiz-adv-x="808" d="M72 412Q65 431 59 444T47 465T33 478T15 486L-6 492V515H253V492L229 486Q214 481 209 474T204 455Q204 444 208 430T218 395L300 144H305L386 378L375 412Q361 452 351 466T324 486L303 492V515H553V492L526
485Q512 481 507 473T501 450Q501 429 513 395L597 144H602L682 395Q688 415 691 428T694 451Q694 478 665 485L638 492V515H814V492L791 486Q781 483 774 478T761 463T749 438T734 401L590 0H520L410 316H407L292 0H223L72 412Z" />
<glyph unicode="x" glyph-name="x" horiz-adv-x="565" d="M12 23L37 29Q61 36 77 51T118 103L215 243L98 415Q83 437 73 450T56 470T41 481T23 488L8 492V515H280V492L258 488Q231 482 231 461Q231 444 252 413L319 310H322L372 399Q385 422 390 436T395 460Q395
479 368 487L342 492V515H532V492L509 486Q497 483 487 478T468 463T448 441T426 408L344 279L469 100Q482 81 491 68T508 47T524 34T545 26L558 23V0H286V23L310 27Q336 32 336 53Q336 63 329 76T311 106L239 213H236L178 117Q164 93 158 79T151 54Q151 43 158
37T185 27L204 23V0H12V23Z" />
<glyph unicode="y" glyph-name="y" horiz-adv-x="535" d="M111 -207Q66 -207 41 -188T16 -139Q16 -113 32 -99T74 -84Q102 -84 115 -96T136 -131Q139 -142 143 -146T155 -150Q171 -150 190 -127T235 -41L248 -11L71 411Q61 433 55 446T43 468T32 479T17 486L-4
492V515H261V492L234 485Q219 481 212 474T205 450Q205 431 219 395L314 148H318L409 395Q423 434 423 454Q423 468 416 474T393 485L365 492V515H541V492L516 485Q507 482 501 477T490 463T478 439T462 401L282 -46Q268 -80 254 -109T220 -160T174 -194T111 -207Z"
/>
<glyph unicode="z" glyph-name="z" horiz-adv-x="476" d="M15 34L306 474V478H240Q212 478 194 477T165 473T145 463T129 448Q111 426 98 404T65 347H42L51 515H460V483L168 41V37H231Q267 37 290 38T328 44T352 56T370 76Q387 100 402 124T431 177H455L441 0H15V34Z" />
<glyph unicode="{" glyph-name="braceleft" horiz-adv-x="358" d="M328 -130Q263 -126 221 -117T153 -94T118 -59T108 -12Q108 8 115 42T131 113T147 181T155 228Q155 239 151 249T134 267T100 280T43 288V320Q78 322 100 327T134 341T150 359T155 381Q155 396
148 427T132 494T116 564T108 618Q108 644 118 664T153 699T220 723T328 735V710Q291 705 269 700T235 686T219 663T215 625Q215 598 218 569T226 511T235 457T239 410Q239 367 210 343T108 306V302Q147 296 172 287T213 266T233 237T239 199Q239 178 235 152T227
97T219 38T215 -19Q215 -43 219 -57T235 -80T269 -94T328 -104V-130V-130Z" />
<glyph unicode="|" glyph-name="bar" horiz-adv-x="224" d="M87 734H137V-130H87V734Z" />
<glyph unicode="}" glyph-name="braceright" horiz-adv-x="358" d="M38 -104Q75 -99 97 -94T131 -80T147 -57T151 -19Q151 8 147 37T139 95T131 150T127 198Q127 241 156 265T258 302V306Q219 312 194 321T153 342T133 371T127 409Q127 430 130 456T138 510T147
568T151 625Q151 648 147 662T131 685T97 699T38 710V735Q103 732 145 723T213 699T248 664T258 618Q258 598 251 564T235 494T219 427T211 380Q211 369 215 359T232 341T266 328T323 320V288Q288 286 266 281T232 267T216 249T211 227Q211 212 218 180T234 112T250
42T258 -12Q258 -38 248 -58T213 -93T146 -117T38 -130V-104Z" />
<glyph unicode="~" glyph-name="asciitilde" horiz-adv-x="379" d="M29 241Q51 293 70 324T124 355Q141 355 161 350T202 338T242 327T278 321Q293 321 304 331T330 364L352 354Q341 328 332 307T311 271T287 248T257 240Q240 240 220 245T178 256T138 268T102
273Q87 273 76 263T51 230L29 241Z" />
<glyph unicode="&#xa0;" glyph-name="uni00A0" horiz-adv-x="500" />
<glyph unicode="&#xa1;" glyph-name="exclamdown" horiz-adv-x="275" d="M136 472Q106 472 84 492T61 545Q61 575 83 597T136 619Q166 619 188 597T211 545Q211 513 189 493T136 472ZM136 -90Q116 -90 99 -84T70 -63T55 -29T57 21L121 406H150L215 21Q226 -36
202 -63T136 -90Z" />
<glyph unicode="&#xa2;" glyph-name="cent" horiz-adv-x="485" d="M260 596H300V529Q305 530 309 530T318 530Q393 530 431 507T470 440Q470 413 454 396T408 378Q373 378 361 396T344 443Q339 472 330 481T300 493V61H317Q369 61 406 74T470 102V71Q460 60 445
47T408 23T359 2T300 -10V-110H260V-12Q203 -10 159 10T85 66T39 150T23 258Q23 324 43 372T97 452T173 501T260 526V596ZM161 294Q161 199 184 144T260 70V489Q240 484 222 472T191 437T169 379T161 294Z" />
<glyph unicode="&#xa3;" glyph-name="sterling" horiz-adv-x="529" d="M39 379H102Q94 410 89 441T83 500Q83 545 100 583T149 648T226 690T329 705Q414 705 459 679T504 605Q504 576 486 561T442 545Q407 545 392 565T367 623Q363 639 360 648T353 661T341 667T322
668Q280 668 256 638T232 532Q232 502 234 461T239 379H396V338H241Q241 328 241 320T242 303Q242 240 209 195T114 114V108H396Q411 108 421 110T441 120T458 144T478 187H503L481 0H19V76Q73 110 100 148T128 243Q128 263 123 287T112 338H39V379Z" />
<glyph unicode="&#xa5;" glyph-name="yen" horiz-adv-x="609" d="M58 344H220L94 576Q80 600 72 615T56 640T41 655T25 663L3 669V693H305V669L279 663Q258 658 249 649T240 624Q240 607 258 568L357 366H362L450 564Q467 604 467 624Q467 639 458 647T427 663L402
669V693H599V669L578 663Q567 659 559 653T543 636T525 607T504 563L397 344H561V303H386V230H561V189H386V100Q386 79 387 67T392 47T403 37T423 32L465 24V0H157V24L198 32Q210 34 217 37T228 47T233 66T235 100V189H58V230H235V303H58V344Z" />
<glyph unicode="&#xa6;" glyph-name="brokenbar" horiz-adv-x="224" d="M87 256H137V-130H87V256ZM87 734H137V326H87V734Z" />
<glyph unicode="&#xa7;" glyph-name="section" horiz-adv-x="558" d="M251 -204Q173 -204 133 -178T92 -110Q92 -85 106 -71T149 -56Q179 -56 193 -72T212 -124Q216 -152 225 -161T267 -170Q302 -170 323 -150T344 -91Q344 -70 337 -53T313 -17T265 26T188 85Q146
116 115 142T63 194T32 244T22 301Q22 357 55 393T137 455Q116 492 116 535Q116 571 129 601T167 654T228 689T309 702Q384 702 424 677T464 612Q464 590 449 574T405 558Q374 558 362 574T344 629Q341 652 331 660T293 668Q258 668 237 647T216 587Q216 566 222
550T246 515T292 472T369 413Q415 378 447 351T499 299T528 249T537 193Q537 141 505 105T426 39Q445 4 445 -34Q445 -72 431 -103T392 -157T330 -192T251 -204ZM407 67Q443 94 443 142Q443 159 437 174T414 207T369 247T297 303Q249 338 213 368T154 429Q134 416
125 399T115 355Q115 338 122 323T146 290T191 250T260 196Q308 159 346 129T407 67Z" />
<glyph unicode="&#xa8;" glyph-name="dieresis" horiz-adv-x="500" d="M150 581Q122 581 102 600T82 648Q82 677 102 696T150 715Q179 715 199 696T219 648Q219 619 199 600T150 581ZM350 581Q321 581 301 600T281 648Q281 677 301 696T350 715Q378 715 398 696T418
648Q418 619 398 600T350 581Z" />
<glyph unicode="&#xa9;" glyph-name="copyright" horiz-adv-x="788" d="M398 132Q353 132 315 144T250 182T206 248T190 342Q190 402 207 444T255 512T325 551T409 563Q451 563 481 558T531 547L535 425H514Q500 452 492 469T469 505Q457 521 445 527T404 534Q350
534 328 492T305 357Q305 302 311 265T331 204T364 171T411 161Q434 161 449 168T476 193Q488 211 497 231T520 280H541L534 156Q513 148 479 140T398 132ZM393 -16Q317 -16 252 12T139 90T64 204T37 344Q37 418 64 483T139 597T252 674T393 702Q468 702 533 674T647
598T723 484T751 344Q751 270 724 205T648 90T534 13T393 -16ZM393 22Q461 22 518 47T617 116T682 219T705 344Q705 410 682 468T618 570T519 639T393 665Q324 665 267 640T169 571T104 469T81 344Q81 278 104 219T168 117T267 48T393 22Z" />
<glyph unicode="&#xaa;" glyph-name="ordfeminine" horiz-adv-x="431" d="M143 265Q86 265 54 292T21 371Q21 422 58 448T154 489L249 513V578Q249 628 237 648T185 668Q163 668 158 660T149 635Q144 603 133 587T91 570Q65 570 52 583T39 618Q39 637 51 652T86
678T140 694T207 700Q282 700 324 673T367 584V364Q367 344 370 334T386 318Q402 310 425 310V290Q412 282 390 274T335 265Q298 265 279 278T254 313H251Q236 294 209 280T143 265ZM193 319Q213 319 227 327T249 347V472L202 467Q168 463 153 447T137 385Q137
348 151 334T193 319Z" />
<glyph unicode="&#xab;" glyph-name="guillemotleft" horiz-adv-x="448" d="M35 243V262L207 460H239L146 253L239 45H207L35 243ZM209 243V262L381 460H413L320 253L413 45H381L209 243Z" />
<glyph unicode="&#xae;" glyph-name="registered" horiz-adv-x="394" d="M197 336Q159 336 127 350T71 389T34 447T20 518Q20 556 33 589T70 647T126 686T197 700Q234 700 266 686T323 647T361 589T375 518Q375 480 361 447T323 390T267 351T197 336ZM197 360Q230
360 257 372T305 406T336 456T347 518Q347 551 336 580T305 630T258 663T197 676Q164 676 137 664T90 630T59 580T48 518Q48 485 59 457T89 407T136 373T197 360ZM103 438L115 441Q121 443 123 445T125 458V583Q125 594 123 597T115 602L104 604V618H195Q239 618
257 605T276 566Q276 531 238 520V518Q247 499 257 481T279 448Q281 445 284 443T291 440L299 438V425H237Q223 444 213 465T194 505H175V458Q175 447 176 445T185 441L197 438V425H103V438ZM190 521Q210 521 218 531T226 562Q226 583 218 592T193 601Q191 601
184 601T175 600V521H190Z" />
<glyph unicode="&#xaf;" glyph-name="macron" horiz-adv-x="500" d="M125 675H375V605H125V675Z" />
<glyph unicode="&#xb0;" glyph-name="degree" horiz-adv-x="304" d="M152 456Q125 456 103 466T64 493T38 532T29 580Q29 605 38 627T63 666T102 693T152 703Q179 703 201 693T240 666T266 627T275 580Q275 555 266 533T241 493T202 466T152 456ZM152 492Q188
492 210 518T232 580Q232 615 210 641T152 667Q116 667 94 641T72 580Q72 544 94 518T152 492Z" />
<glyph unicode="&#xb1;" glyph-name="plusminus" horiz-adv-x="464" d="M36 51H428V0H36V51ZM202 326H36V378H202V550H262V378H428V326H262V154H202V326Z" />
<glyph unicode="&#xb2;" glyph-name="twosuperior" horiz-adv-x="318" d="M13 365Q52 395 79 418T133 471Q161 501 176 532T191 602Q191 643 178 657T139 672Q123 672 119 667T113 643Q109 613 98 600T60 587Q40 587 29 598T17 627Q17 656 52 678T150 700Q217
700 258 673T300 591Q300 541 248 494T95 396V393H227Q237 393 243 395T255 402T264 416T275 440H297L289 315H13V365Z" />
<glyph unicode="&#xb3;" glyph-name="threesuperior" horiz-adv-x="323" d="M138 309Q75 309 43 327T11 377Q11 397 22 406T51 415Q71 415 83 405T101 367Q105 347 111 341T139 335Q171 335 184 357T197 420Q197 467 178 481T124 496H96V528H120Q155 528 171 544T188
602Q188 640 176 656T143 673Q127 673 122 669T114 648Q111 625 101 613T66 600Q47 600 37 610T26 636Q26 666 60 683T152 700Q215 700 251 677T287 610Q287 579 265 554T187 518V516Q238 513 271 490T304 420Q304 372 265 341T138 309Z" />
<glyph unicode="&#xb4;" glyph-name="acute" horiz-adv-x="500" d="M135 594L277 713Q300 733 323 733Q344 733 358 717T372 680Q372 665 363 650T330 628L142 578L135 594Z" />
<glyph unicode="&#xb6;" glyph-name="paragraph" horiz-adv-x="531" d="M255 338Q248 337 240 337T220 336Q168 336 131 349T69 387T33 445T21 519Q21 557 33 589T71 644T133 680T219 693H511V669L473 661Q462 659 456 656T445 646T439 627T437 593V-100H388V654H303V-100H255V338Z"
/>
<glyph unicode="&#xb7;" glyph-name="periodcentered" horiz-adv-x="221" d="M112 264Q97 264 83 270T59 286T43 309T37 337Q37 369 59 390T112 411Q127 411 140 406T164 390T181 367T187 337Q187 322 181 309T165 286T141 270T112 264Z" />
<glyph unicode="&#xb8;" glyph-name="cedilla" horiz-adv-x="500" d="M166 -185Q211 -174 231 -161T251 -129Q251 -114 237 -107T199 -98L194 -90L239 0H278L246 -48Q285 -52 308 -68T331 -112Q331 -154 286 -176T166 -204V-185Z" />
<glyph unicode="&#xb9;" glyph-name="onesuperior" horiz-adv-x="240" d="M15 338L38 342Q56 345 60 351T65 384V597L16 602V625Q60 633 96 652T156 698L176 694V384Q176 357 181 351T204 342L226 338V315H15V338Z" />
<glyph unicode="&#xba;" glyph-name="ordmasculine" horiz-adv-x="474" d="M237 266Q195 266 156 279T88 320T41 387T23 482Q23 537 41 578T90 646T158 686T237 700Q279 700 318 687T386 647T433 580T451 486Q451 430 433 389T384 321T316 280T237 266ZM239 299Q261
299 278 307T306 335T323 389T329 477Q329 534 324 571T307 629T277 658T235 667Q212 667 196 659T168 630T152 576T146 494Q146 437 151 399T167 339T196 308T239 299Z" />
<glyph unicode="&#xbb;" glyph-name="guillemotright" horiz-adv-x="448" d="M128 253L35 460H68L240 262V243L68 45H35L128 253ZM302 253L209 460H242L414 262V243L242 45H209L302 253Z" />
<glyph unicode="&#xbc;" glyph-name="onequarter" horiz-adv-x="720" d="M16 338L39 342Q57 345 61 351T66 384V597L17 602V625Q61 633 97 652T157 698L177 694V384Q177 357 182 351T205 342L227 338V315H16V338ZM585 714H640L121 -50H66L585 714ZM500 22L519
26Q536 30 541 36T546 69V104H385V136L586 378H654V145H710L704 104H654V69Q654 42 659 36T681 26L700 22V0H500V22ZM546 145V285H545L432 148V145H546Z" />
<glyph unicode="&#xbd;" glyph-name="onehalf" horiz-adv-x="728" d="M16 338L39 342Q57 345 61 351T66 384V597L17 602V625Q61 633 97 652T157 698L177 694V384Q177 357 182 351T205 342L227 338V315H16V338ZM567 714H622L104 -50H49L567 714ZM421 49Q461 79
488 102T542 155Q570 185 585 216T600 287Q600 328 587 342T548 357Q532 357 528 351T522 327Q518 298 507 285T469 272Q449 272 438 282T426 311Q426 340 461 362T559 385Q626 385 667 358T708 275Q708 225 656 179T503 80V77H635Q645 77 651 79T663 86T673 100T684
124H706L698 0H421V49Z" />
<glyph unicode="&#xbe;" glyph-name="threequarters" horiz-adv-x="766" d="M150 309Q87 309 55 327T23 377Q23 397 34 406T63 415Q83 415 95 405T113 367Q117 347 123 341T151 335Q183 335 196 357T209 420Q209 467 190 481T136 496H108V528H132Q167 528 183
544T200 602Q200 640 188 656T155 673Q139 673 134 669T126 648Q123 625 113 613T78 600Q59 600 49 610T38 636Q38 666 72 683T164 700Q227 700 263 677T299 610Q299 579 277 554T199 518V516Q250 513 283 490T316 420Q316 372 277 341T150 309ZM637 714H692L174
-50H118L637 714ZM546 22L565 26Q582 30 587 36T593 69V104H431V136L632 378H700V145H756L750 104H700V69Q700 42 705 36T727 26L746 22V0H546V22ZM593 145V285H591L478 148V145H593Z" />
<glyph unicode="&#xbf;" glyph-name="questiondown" horiz-adv-x="456" d="M258 -89Q152 -89 94 -41T35 99Q35 144 52 180T99 244T170 291T260 323V410H308V236Q282 227 256 214T210 182T176 135T163 68Q163 33 170 10T190 -26T219 -45T254 -51Q278 -51 286 -43T298
-9Q303 29 320 47T371 65Q402 65 416 48T431 8Q431 -15 418 -33T381 -63T327 -82T258 -89ZM284 475Q269 475 256 480T232 495T215 518T209 548Q209 563 215 576T231 600T255 616T284 622Q315 622 336 600T358 548Q358 516 337 496T284 475Z" />
<glyph unicode="&#xc0;" glyph-name="Agrave" horiz-adv-x="669" d="M440 724L244 765Q218 770 208 783T198 814Q198 836 212 852T247 869Q268 869 291 852L446 740L440 724ZM-3 24L23 31Q34 34 42 38T57 53T71 82T91 133L290 693H372L579 126Q589 99 597 82T612
54T627 38T645 30L669 24V0H368V24L396 31Q416 36 423 45T431 68Q431 81 426 99T413 139L381 230H174L144 139Q136 118 133 101T130 73Q130 53 139 45T169 31L199 24V0H-3V24ZM187 269H368L278 529H273L187 269Z" />
<glyph unicode="&#xc1;" glyph-name="Aacute" horiz-adv-x="669" d="M221 740L376 852Q399 869 420 869Q441 869 455 853T469 814Q469 797 459 784T423 765L227 724L221 740ZM-3 24L23 31Q34 34 42 38T57 53T71 82T91 133L290 693H372L579 126Q589 99 597 82T612
54T627 38T645 30L669 24V0H368V24L396 31Q416 36 423 45T431 68Q431 81 426 99T413 139L381 230H174L144 139Q136 118 133 101T130 73Q130 53 139 45T169 31L199 24V0H-3V24ZM187 269H368L278 529H273L187 269Z" />
<glyph unicode="&#xc2;" glyph-name="Acircumflex" horiz-adv-x="669" d="M179 735L307 864H352L481 735L471 720L330 773L189 720L179 735ZM-3 24L23 31Q34 34 42 38T57 53T71 82T91 133L290 693H372L579 126Q589 99 597 82T612 54T627 38T645 30L669 24V0H368V24L396
31Q416 36 423 45T431 68Q431 81 426 99T413 139L381 230H174L144 139Q136 118 133 101T130 73Q130 53 139 45T169 31L199 24V0H-3V24ZM187 269H368L278 529H273L187 269Z" />
<glyph unicode="&#xc3;" glyph-name="Atilde" horiz-adv-x="669" d="M165 730Q176 756 185 777T205 813T229 836T259 845Q276 845 297 842T341 834T385 826T422 822Q437 822 448 832T474 865L495 854Q484 828 475 807T455 770T432 747T401 739Q384 739 363 742T319
750T275 758T238 762Q222 762 211 752T186 719L165 730ZM-3 24L23 31Q34 34 42 38T57 53T71 82T91 133L290 693H372L579 126Q589 99 597 82T612 54T627 38T645 30L669 24V0H368V24L396 31Q416 36 423 45T431 68Q431 81 426 99T413 139L381 230H174L144 139Q136
118 133 101T130 73Q130 53 139 45T169 31L199 24V0H-3V24ZM187 269H368L278 529H273L187 269Z" />
<glyph unicode="&#xc4;" glyph-name="Adieresis" horiz-adv-x="669" d="M222 728Q194 728 174 747T154 795Q154 824 174 843T222 862Q251 862 271 843T291 795Q291 766 271 747T222 728ZM438 728Q409 728 389 747T369 795Q369 824 389 843T438 862Q466 862 486
843T506 795Q506 766 486 747T438 728ZM-3 24L23 31Q34 34 42 38T57 53T71 82T91 133L290 693H372L579 126Q589 99 597 82T612 54T627 38T645 30L669 24V0H368V24L396 31Q416 36 423 45T431 68Q431 81 426 99T413 139L381 230H174L144 139Q136 118 133 101T130
73Q130 53 139 45T169 31L199 24V0H-3V24ZM187 269H368L278 529H273L187 269Z" />
<glyph unicode="&#xc5;" glyph-name="Aring" horiz-adv-x="669" d="M330 720Q287 720 261 746T234 811Q234 851 261 877T330 903Q372 903 399 877T426 811Q426 773 399 747T330 720ZM330 752Q355 752 370 768T385 811Q385 837 370 854T330 871Q306 871 291 854T275
811Q275 785 290 769T330 752ZM-3 24L23 31Q34 34 42 38T57 53T71 82T91 133L290 693H372L579 126Q589 99 597 82T612 54T627 38T645 30L669 24V0H368V24L396 31Q416 36 423 45T431 68Q431 81 426 99T413 139L381 230H174L144 139Q136 118 133 101T130 73Q130 53
139 45T169 31L199 24V0H-3V24ZM187 269H368L278 529H273L187 269Z" />
<glyph unicode="&#xc6;" glyph-name="AE" horiz-adv-x="917" d="M-4 24L22 31Q34 34 43 38T62 53T84 82T115 133L408 647Q402 653 394 656T375 661L335 669V693H861L872 502H845Q828 542 816 565T793 603Q782 620 772 630T747 645T715 651T668 653Q629 653 606
651T569 644V379H600Q627 379 645 380T676 385T695 395T707 410Q716 428 722 445T735 488H761V229H735Q729 253 723 271T707 309Q702 319 696 325T679 334T649 339T600 340H569V147Q569 111 571 90T584 57T616 43T676 40Q707 40 727 42T760 50T784 67T806 95Q819
113 834 146T867 226H895L881 0H349V24L387 32Q397 34 404 37T416 47T423 66T425 100V219H217L174 139Q161 116 153 96T145 62Q144 39 176 31L205 24V0H-4V24ZM238 257H425V593H422L238 257Z" />
<glyph unicode="&#xc7;" glyph-name="Ccedilla" horiz-adv-x="618" d="M252 -185Q297 -174 317 -161T337 -129Q337 -114 323 -107T285 -98L280 -90L320 -10Q257 -5 204 18T112 85T52 192T30 341Q30 439 58 508T136 621T249 685T385 705Q443 705 492 698T573 681L584
478H556Q538 521 519 557T482 618Q465 643 442 654T374 666Q326 666 292 650T235 597T201 502T190 360Q190 265 201 201T234 99T289 44T368 27Q421 27 447 40T493 83Q513 113 530 145T564 222H589L578 30Q543 15 487 2T358 -12H356L332 -48Q371 -52 394 -68T417
-112Q417 -154 372 -176T252 -204V-185Z" />
<glyph unicode="&#xc8;" glyph-name="Egrave" horiz-adv-x="603" d="M426 724L230 765Q204 770 194 783T184 814Q184 836 198 852T233 869Q254 869 277 852L432 740L426 724ZM20 24L59 32Q69 34 76 37T87 47T93 66T95 100V593Q95 614 93 626T87 646T76 656T59
661L20 669V693H547L557 502H531Q513 542 501 565T478 603Q466 620 456 630T431 645T398 651T350 653Q305 653 282 650T245 644V379H284Q311 379 329 380T360 385T379 395T391 410Q401 428 407 445T419 488H446V229H419Q413 253 407 271T391 309Q386 319 380 325T363
334T333 339T284 340H245V147Q245 111 247 90T260 57T294 43T359 40Q391 40 411 42T445 50T469 67T491 95Q504 113 519 146T553 226H581L567 0H20V24Z" />
<glyph unicode="&#xc9;" glyph-name="Eacute" horiz-adv-x="603" d="M207 740L362 852Q385 869 406 869Q427 869 441 853T455 814Q455 797 445 784T409 765L213 724L207 740ZM20 24L59 32Q69 34 76 37T87 47T93 66T95 100V593Q95 614 93 626T87 646T76 656T59
661L20 669V693H547L557 502H531Q513 542 501 565T478 603Q466 620 456 630T431 645T398 651T350 653Q305 653 282 650T245 644V379H284Q311 379 329 380T360 385T379 395T391 410Q401 428 407 445T419 488H446V229H419Q413 253 407 271T391 309Q386 319 380 325T363
334T333 339T284 340H245V147Q245 111 247 90T260 57T294 43T359 40Q391 40 411 42T445 50T469 67T491 95Q504 113 519 146T553 226H581L567 0H20V24Z" />
<glyph unicode="&#xca;" glyph-name="Ecircumflex" horiz-adv-x="603" d="M165 735L293 864H338L467 735L457 720L316 773L175 720L165 735ZM20 24L59 32Q69 34 76 37T87 47T93 66T95 100V593Q95 614 93 626T87 646T76 656T59 661L20 669V693H547L557 502H531Q513
542 501 565T478 603Q466 620 456 630T431 645T398 651T350 653Q305 653 282 650T245 644V379H284Q311 379 329 380T360 385T379 395T391 410Q401 428 407 445T419 488H446V229H419Q413 253 407 271T391 309Q386 319 380 325T363 334T333 339T284 340H245V147Q245
111 247 90T260 57T294 43T359 40Q391 40 411 42T445 50T469 67T491 95Q504 113 519 146T553 226H581L567 0H20V24Z" />
<glyph unicode="&#xcb;" glyph-name="Edieresis" horiz-adv-x="603" d="M208 728Q180 728 160 747T140 795Q140 824 160 843T208 862Q237 862 257 843T277 795Q277 766 257 747T208 728ZM424 728Q395 728 375 747T355 795Q355 824 375 843T424 862Q452 862 472
843T492 795Q492 766 472 747T424 728ZM20 24L59 32Q69 34 76 37T87 47T93 66T95 100V593Q95 614 93 626T87 646T76 656T59 661L20 669V693H547L557 502H531Q513 542 501 565T478 603Q466 620 456 630T431 645T398 651T350 653Q305 653 282 650T245 644V379H284Q311
379 329 380T360 385T379 395T391 410Q401 428 407 445T419 488H446V229H419Q413 253 407 271T391 309Q386 319 380 325T363 334T333 339T284 340H245V147Q245 111 247 90T260 57T294 43T359 40Q391 40 411 42T445 50T469 67T491 95Q504 113 519 146T553 226H581L567
0H20V24Z" />
<glyph unicode="&#xcc;" glyph-name="Igrave" horiz-adv-x="347" d="M283 724L87 765Q61 770 51 783T41 814Q41 836 55 852T90 869Q111 869 134 852L289 740L283 724ZM20 24L62 32Q72 34 79 37T90 46T96 66T98 100V593Q98 614 97 627T91 646T79 656T62 661L20
669V693H327V669L285 661Q274 659 267 656T256 646T251 627T249 593V100Q249 79 250 67T256 47T267 37T285 32L327 24V0H20V24Z" />
<glyph unicode="&#xcd;" glyph-name="Iacute" horiz-adv-x="347" d="M65 740L220 852Q243 869 264 869Q285 869 299 853T313 814Q313 797 303 784T267 765L71 724L65 740ZM20 24L62 32Q72 34 79 37T90 46T96 66T98 100V593Q98 614 97 627T91 646T79 656T62 661L20
669V693H327V669L285 661Q274 659 267 656T256 646T251 627T249 593V100Q249 79 250 67T256 47T267 37T285 32L327 24V0H20V24Z" />
<glyph unicode="&#xce;" glyph-name="Icircumflex" horiz-adv-x="347" d="M23 735L151 864H196L325 735L315 720L174 773L33 720L23 735ZM20 24L62 32Q72 34 79 37T90 46T96 66T98 100V593Q98 614 97 627T91 646T79 656T62 661L20 669V693H327V669L285 661Q274
659 267 656T256 646T251 627T249 593V100Q249 79 250 67T256 47T267 37T285 32L327 24V0H20V24Z" />
<glyph unicode="&#xcf;" glyph-name="Idieresis" horiz-adv-x="347" d="M66 728Q38 728 18 747T-2 795Q-2 824 18 843T66 862Q95 862 115 843T135 795Q135 766 115 747T66 728ZM282 728Q253 728 233 747T213 795Q213 824 233 843T282 862Q310 862 330 843T350
795Q350 766 330 747T282 728ZM20 24L62 32Q72 34 79 37T90 46T96 66T98 100V593Q98 614 97 627T91 646T79 656T62 661L20 669V693H327V669L285 661Q274 659 267 656T256 646T251 627T249 593V100Q249 79 250 67T256 47T267 37T285 32L327 24V0H20V24Z" />
<glyph unicode="&#xd0;" glyph-name="Eth" horiz-adv-x="711" d="M27 368H95V593Q95 614 93 626T87 646T76 656T59 661L20 669V693H340Q415 693 477 675T585 616T656 512T681 356Q681 270 657 204T587 92T477 24T335 0H20V24L59 32Q69 34 76 37T87 47T93 66T95
100V330H27V368ZM326 39Q381 39 419 59T480 117T513 210T524 335Q524 421 513 481T477 580T414 636T324 654Q295 654 275 652T245 645V368H397V330H245V131Q245 101 247 83T258 56T283 43T326 39Z" />
<glyph unicode="&#xd1;" glyph-name="Ntilde" horiz-adv-x="689" d="M200 730Q211 756 220 777T240 813T264 836T294 845Q311 845 332 842T376 834T420 826T457 822Q472 822 483 832T509 865L530 854Q519 828 510 807T490 770T467 747T436 739Q419 739 398 742T354
750T310 758T273 762Q257 762 246 752T221 719L200 730ZM145 589H141V112Q141 86 143 71T150 48T163 37T186 31L224 24V0H20V24L52 31Q64 33 72 36T85 48T92 70T95 110V593Q95 614 93 626T87 646T76 656T59 661L20 669V693H252L548 245H552V581Q552 607 551 622T544
645T531 656T508 662L466 669V693H674V669L641 662Q630 660 622 657T609 645T602 623T599 583V-2H540L145 589Z" />
<glyph unicode="&#xd2;" glyph-name="Ograve" horiz-adv-x="712" d="M465 724L269 765Q243 770 233 783T223 814Q223 836 237 852T272 869Q293 869 316 852L471 740L465 724ZM352 -12Q287 -12 229 9T126 74T55 183T29 337Q29 435 58 505T134 619T240 684T360 705Q425
705 483 684T586 619T657 509T683 353Q683 254 654 185T578 72T472 8T352 -12ZM358 27Q401 27 432 43T485 95T516 189T526 333Q526 409 518 470T489 575T435 642T353 666Q311 666 280 650T228 597T197 501T186 357Q186 281 194 220T223 116T276 50T358 27Z" />
<glyph unicode="&#xd3;" glyph-name="Oacute" horiz-adv-x="712" d="M247 740L402 852Q425 869 446 869Q467 869 481 853T495 814Q495 797 485 784T449 765L253 724L247 740ZM352 -12Q287 -12 229 9T126 74T55 183T29 337Q29 435 58 505T134 619T240 684T360 705Q425
705 483 684T586 619T657 509T683 353Q683 254 654 185T578 72T472 8T352 -12ZM358 27Q401 27 432 43T485 95T516 189T526 333Q526 409 518 470T489 575T435 642T353 666Q311 666 280 650T228 597T197 501T186 357Q186 281 194 220T223 116T276 50T358 27Z" />
<glyph unicode="&#xd4;" glyph-name="Ocircumflex" horiz-adv-x="712" d="M205 735L333 864H378L507 735L497 720L356 773L215 720L205 735ZM352 -12Q287 -12 229 9T126 74T55 183T29 337Q29 435 58 505T134 619T240 684T360 705Q425 705 483 684T586 619T657
509T683 353Q683 254 654 185T578 72T472 8T352 -12ZM358 27Q401 27 432 43T485 95T516 189T526 333Q526 409 518 470T489 575T435 642T353 666Q311 666 280 650T228 597T197 501T186 357Q186 281 194 220T223 116T276 50T358 27Z" />
<glyph unicode="&#xd5;" glyph-name="Otilde" horiz-adv-x="712" d="M191 730Q202 756 211 777T231 813T255 836T285 845Q302 845 323 842T367 834T411 826T448 822Q463 822 474 832T500 865L521 854Q510 828 501 807T481 770T458 747T427 739Q410 739 389 742T345
750T301 758T264 762Q248 762 237 752T212 719L191 730ZM352 -12Q287 -12 229 9T126 74T55 183T29 337Q29 435 58 505T134 619T240 684T360 705Q425 705 483 684T586 619T657 509T683 353Q683 254 654 185T578 72T472 8T352 -12ZM358 27Q401 27 432 43T485 95T516
189T526 333Q526 409 518 470T489 575T435 642T353 666Q311 666 280 650T228 597T197 501T186 357Q186 281 194 220T223 116T276 50T358 27Z" />
<glyph unicode="&#xd6;" glyph-name="Odieresis" horiz-adv-x="712" d="M248 728Q220 728 200 747T180 795Q180 824 200 843T248 862Q277 862 297 843T317 795Q317 766 297 747T248 728ZM464 728Q435 728 415 747T395 795Q395 824 415 843T464 862Q492 862 512
843T532 795Q532 766 512 747T464 728ZM352 -12Q287 -12 229 9T126 74T55 183T29 337Q29 435 58 505T134 619T240 684T360 705Q425 705 483 684T586 619T657 509T683 353Q683 254 654 185T578 72T472 8T352 -12ZM358 27Q401 27 432 43T485 95T516 189T526 333Q526
409 518 470T489 575T435 642T353 666Q311 666 280 650T228 597T197 501T186 357Q186 281 194 220T223 116T276 50T358 27Z" />
<glyph unicode="&#xd7;" glyph-name="multiply" horiz-adv-x="438" d="M40 189L182 338L43 485L83 523L219 378L357 523L395 485L257 338L398 189L359 151L219 299L80 151L40 189Z" />
<glyph unicode="&#xd8;" glyph-name="Oslash" horiz-adv-x="712" d="M148 55Q94 99 62 169T29 337Q29 435 58 505T134 619T240 684T360 705Q454 705 531 660L575 730H623L564 637Q618 594 650 524T683 353Q683 254 654 185T578 72T472 8T352 -12Q257 -12 181 32L120
-64H72L148 55ZM358 27Q401 27 432 43T485 95T516 189T526 333Q526 464 504 542L226 103Q266 27 358 27ZM186 357Q186 292 191 241T207 150L485 589Q465 627 433 646T353 666Q311 666 280 650T228 597T197 501T186 357Z" />
<glyph unicode="&#xd9;" glyph-name="Ugrave" horiz-adv-x="692" d="M499 724L303 765Q277 770 267 783T257 814Q257 836 271 852T306 869Q327 869 350 852L505 740L499 724ZM361 -12Q299 -12 249 1T162 42T105 114T85 223V593Q85 614 84 626T78 646T66 656T49
661L11 669V693H309V669L272 661Q261 658 254 655T243 646T238 627T236 593V207Q236 124 274 85T402 46Q487 46 524 92T561 219V581Q561 607 560 622T553 645T539 656T516 662L473 669V693H682V669L649 662Q638 660 631 657T618 645T611 623T608 583V212Q608 166
594 125T549 54T473 6T361 -12Z" />
<glyph unicode="&#xda;" glyph-name="Uacute" horiz-adv-x="692" d="M281 740L436 852Q459 869 480 869Q501 869 515 853T529 814Q529 797 519 784T483 765L287 724L281 740ZM361 -12Q299 -12 249 1T162 42T105 114T85 223V593Q85 614 84 626T78 646T66 656T49
661L11 669V693H309V669L272 661Q261 658 254 655T243 646T238 627T236 593V207Q236 124 274 85T402 46Q487 46 524 92T561 219V581Q561 607 560 622T553 645T539 656T516 662L473 669V693H682V669L649 662Q638 660 631 657T618 645T611 623T608 583V212Q608 166
594 125T549 54T473 6T361 -12Z" />
<glyph unicode="&#xdb;" glyph-name="Ucircumflex" horiz-adv-x="692" d="M239 735L367 864H412L541 735L531 720L390 773L249 720L239 735ZM361 -12Q299 -12 249 1T162 42T105 114T85 223V593Q85 614 84 626T78 646T66 656T49 661L11 669V693H309V669L272 661Q261
658 254 655T243 646T238 627T236 593V207Q236 124 274 85T402 46Q487 46 524 92T561 219V581Q561 607 560 622T553 645T539 656T516 662L473 669V693H682V669L649 662Q638 660 631 657T618 645T611 623T608 583V212Q608 166 594 125T549 54T473 6T361 -12Z" />
<glyph unicode="&#xdc;" glyph-name="Udieresis" horiz-adv-x="692" d="M282 728Q254 728 234 747T214 795Q214 824 234 843T282 862Q311 862 331 843T351 795Q351 766 331 747T282 728ZM498 728Q469 728 449 747T429 795Q429 824 449 843T498 862Q526 862 546
843T566 795Q566 766 546 747T498 728ZM361 -12Q299 -12 249 1T162 42T105 114T85 223V593Q85 614 84 626T78 646T66 656T49 661L11 669V693H309V669L272 661Q261 658 254 655T243 646T238 627T236 593V207Q236 124 274 85T402 46Q487 46 524 92T561 219V581Q561
607 560 622T553 645T539 656T516 662L473 669V693H682V669L649 662Q638 660 631 657T618 645T611 623T608 583V212Q608 166 594 125T549 54T473 6T361 -12Z" />
<glyph unicode="&#xdd;" glyph-name="Yacute" horiz-adv-x="629" d="M249 740L404 852Q427 869 448 869Q469 869 483 853T497 814Q497 797 487 784T451 765L255 724L249 740ZM172 24L214 32Q226 34 233 37T244 47T249 66T251 100V283L91 576Q78 600 69 615T52
640T36 655T18 663L-4 669V693H304V669L276 663Q255 658 246 649T237 624Q237 603 256 568L373 337H377L480 564Q490 584 493 598T496 623Q496 638 488 647T456 662L427 669V693H633V669L612 663Q600 659 591 653T573 635T554 606T532 563L402 290V100Q402 79 403
67T408 47T419 37T439 32L480 24V0H172V24Z" />
<glyph unicode="&#xde;" glyph-name="Thorn" horiz-adv-x="613" d="M20 24L59 32Q69 34 76 37T87 46T93 66T95 100V593Q95 614 93 626T87 646T76 656T59 661L20 669V693H322V669L281 661Q270 658 263 655T252 646T247 627T245 593V555H326Q457 555 525 508T593
364Q593 320 577 283T530 217T453 174T346 158Q318 158 301 161T276 168V194Q319 193 350 200T401 226T430 276T440 356Q440 403 433 434T410 483T372 509T318 517Q292 517 273 515T245 510V100Q245 79 246 67T252 48T263 38T282 33L332 24V0H20V24Z" />
<glyph unicode="&#xdf;" glyph-name="germandbls" horiz-adv-x="633" d="M425 -9Q349 -9 313 13T277 73Q277 97 292 112T334 128Q365 128 377 112T392 68Q396 42 404 35T439 27Q474 27 493 45T513 95Q513 112 508 126T490 153T457 181T407 215Q375 235 354 251T319
284T301 316T295 350Q295 382 312 412T351 474T389 540T407 616Q407 662 386 693T314 725Q266 725 240 694T213 588V83Q213 67 213 57T216 42T223 34T235 29L261 23V0H15V23L47 31Q57 34 63 37T73 46T78 61T79 86V463H9V485L79 516V532Q79 593 100 636T155 706T232
746T320 759Q372 759 410 749T473 720T510 679T522 631Q522 592 499 561T447 505T395 460T371 420Q371 411 376 403T394 385T430 359T491 321Q525 301 548 282T586 243T607 202T614 154Q614 116 600 86T561 35T502 3T425 -9Z" />
<glyph unicode="&#xe0;" glyph-name="agrave" horiz-adv-x="515" d="M169 -13Q99 -13 59 21T19 120Q19 152 31 175T66 216T119 245T184 265L302 294V387Q302 416 299 436T287 469T263 488T222 494Q195 494 185 487T173 457Q169 419 156 399T105 379Q74 379 59
394T44 435Q44 459 60 477T103 506T168 524T250 530Q342 530 389 498T436 395V106Q436 81 441 69T461 48Q470 43 482 41T508 39V18Q495 8 468 -2T404 -12Q362 -12 339 4T309 48H304Q285 23 250 5T169 -13ZM230 49Q257 49 275 60T302 86V247L244 241Q201 237 177
215T152 138Q152 91 173 70T230 49ZM416 628Q393 635 383 650T373 680Q373 700 387 716T422 733Q446 733 469 713L611 594L603 578L416 628Z" />
<glyph unicode="&#xe1;" glyph-name="aacute" horiz-adv-x="515" d="M169 -13Q99 -13 59 21T19 120Q19 152 31 175T66 216T119 245T184 265L302 294V387Q302 416 299 436T287 469T263 488T222 494Q195 494 185 487T173 457Q169 419 156 399T105 379Q74 379 59
394T44 435Q44 459 60 477T103 506T168 524T250 530Q342 530 389 498T436 395V106Q436 81 441 69T461 48Q470 43 482 41T508 39V18Q495 8 468 -2T404 -12Q362 -12 339 4T309 48H304Q285 23 250 5T169 -13ZM230 49Q257 49 275 60T302 86V247L244 241Q201 237 177
215T152 138Q152 91 173 70T230 49ZM151 594L293 713Q316 733 339 733Q360 733 374 717T388 680Q388 665 379 650T346 628L158 578L151 594Z" />
<glyph unicode="&#xe2;" glyph-name="acircumflex" horiz-adv-x="515" d="M169 -13Q99 -13 59 21T19 120Q19 152 31 175T66 216T119 245T184 265L302 294V387Q302 416 299 436T287 469T263 488T222 494Q195 494 185 487T173 457Q169 419 156 399T105 379Q74 379
59 394T44 435Q44 459 60 477T103 506T168 524T250 530Q342 530 389 498T436 395V106Q436 81 441 69T461 48Q470 43 482 41T508 39V18Q495 8 468 -2T404 -12Q362 -12 339 4T309 48H304Q285 23 250 5T169 -13ZM230 49Q257 49 275 60T302 86V247L244 241Q201 237
177 215T152 138Q152 91 173 70T230 49ZM360 588L482 728H527L650 588L640 573L505 637L370 573L360 588Z" />
<glyph unicode="&#xe3;" glyph-name="atilde" horiz-adv-x="515" d="M169 -13Q99 -13 59 21T19 120Q19 152 31 175T66 216T119 245T184 265L302 294V387Q302 416 299 436T287 469T263 488T222 494Q195 494 185 487T173 457Q169 419 156 399T105 379Q74 379 59
394T44 435Q44 459 60 477T103 506T168 524T250 530Q342 530 389 498T436 395V106Q436 81 441 69T461 48Q470 43 482 41T508 39V18Q495 8 468 -2T404 -12Q362 -12 339 4T309 48H304Q285 23 250 5T169 -13ZM230 49Q257 49 275 60T302 86V247L244 241Q201 237 177
215T152 138Q152 91 173 70T230 49ZM343 583Q354 609 364 630T384 667T408 690T438 698Q455 698 475 695T516 687T557 679T593 675Q608 675 619 685T645 718L667 707Q656 681 647 660T627 623T603 600T572 592Q555 592 535 595T493 603T453 611T417 615Q401 615
390 605T365 572L343 583Z" />
<glyph unicode="&#xe4;" glyph-name="adieresis" horiz-adv-x="515" d="M169 -13Q99 -13 59 21T19 120Q19 152 31 175T66 216T119 245T184 265L302 294V387Q302 416 299 436T287 469T263 488T222 494Q195 494 185 487T173 457Q169 419 156 399T105 379Q74 379
59 394T44 435Q44 459 60 477T103 506T168 524T250 530Q342 530 389 498T436 395V106Q436 81 441 69T461 48Q470 43 482 41T508 39V18Q495 8 468 -2T404 -12Q362 -12 339 4T309 48H304Q285 23 250 5T169 -13ZM230 49Q257 49 275 60T302 86V247L244 241Q201 237
177 215T152 138Q152 91 173 70T230 49ZM405 581Q377 581 357 600T337 648Q337 677 357 696T405 715Q434 715 454 696T474 648Q474 619 454 600T405 581ZM605 581Q576 581 556 600T536 648Q536 677 556 696T605 715Q633 715 653 696T673 648Q673 619 653 600T605
581Z" />
<glyph unicode="&#xe5;" glyph-name="aring" horiz-adv-x="515" d="M169 -13Q99 -13 59 21T19 120Q19 152 31 175T66 216T119 245T184 265L302 294V387Q302 416 299 436T287 469T263 488T222 494Q195 494 185 487T173 457Q169 419 156 399T105 379Q74 379 59 394T44
435Q44 459 60 477T103 506T168 524T250 530Q342 530 389 498T436 395V106Q436 81 441 69T461 48Q470 43 482 41T508 39V18Q495 8 468 -2T404 -12Q362 -12 339 4T309 48H304Q285 23 250 5T169 -13ZM230 49Q257 49 275 60T302 86V247L244 241Q201 237 177 215T152
138Q152 91 173 70T230 49ZM505 573Q462 573 436 599T409 664Q409 704 436 730T505 756Q547 756 574 730T601 664Q601 626 574 600T505 573ZM505 605Q530 605 545 621T560 664Q560 690 545 707T505 724Q481 724 466 707T450 664Q450 638 465 622T505 605Z" />
<glyph unicode="&#xe6;" glyph-name="ae" horiz-adv-x="775" d="M543 -12Q475 -12 427 9T349 72Q282 -13 172 -13Q100 -13 60 21T19 119Q19 151 31 175T66 217T118 247T184 268L300 296V387Q300 414 297 434T286 468T262 487T221 494Q194 494 184 487T171 457Q167
419 154 399T104 379Q73 379 58 394T42 436Q42 460 58 477T101 506T165 524T242 530Q302 530 338 513T393 464Q422 495 460 512T545 530Q593 530 631 516T697 470T738 390T753 271H429Q431 212 443 172T477 108T527 74T592 63Q643 63 677 75T740 102V72Q728 60
710 46T666 18T610 -3T543 -12ZM537 495Q490 495 461 451T429 306L617 316Q617 410 602 452T537 495ZM230 49Q262 49 285 67T325 116Q302 170 300 250L244 244Q201 240 177 216T152 137Q152 90 173 70T230 49Z" />
<glyph unicode="&#xe7;" glyph-name="ccedilla" horiz-adv-x="484" d="M151 -185Q196 -174 216 -161T236 -129Q236 -114 222 -107T184 -98L179 -90L219 -8Q171 -1 135 21T74 76T36 155T23 254Q23 333 50 386T120 471T215 516T317 530Q390 530 428 507T467 440Q467
413 449 395T402 377Q367 377 354 396T336 445Q332 476 324 484T290 493Q265 493 242 484T200 453T170 392T159 294Q159 180 196 122T318 63Q366 63 404 75T468 102V71Q457 59 439 45T394 18T336 -3T266 -12H255L231 -48Q270 -52 293 -68T316 -112Q316 -154 271
-176T151 -204V-185Z" />
<glyph unicode="&#xe8;" glyph-name="egrave" horiz-adv-x="515" d="M276 -12Q213 -12 166 7T87 61T39 147T23 261Q23 324 44 374T100 458T181 511T276 530Q326 530 365 517T433 473T476 396T492 280H158Q159 218 171 177T205 110T258 74T327 63Q378 63 414 75T479
102V72Q467 60 448 46T403 18T345 -3T276 -12ZM270 495Q224 495 193 453T158 315L353 325Q353 370 350 402T337 455T311 485T270 495ZM185 628Q162 635 152 650T142 680Q142 700 156 716T191 733Q215 733 238 713L380 594L372 578L185 628Z" />
<glyph unicode="&#xe9;" glyph-name="eacute" horiz-adv-x="515" d="M178 594L320 713Q343 733 366 733Q387 733 401 717T415 680Q415 665 406 650T373 628L185 578L178 594ZM276 -12Q213 -12 166 7T87 61T39 147T23 261Q23 324 44 374T100 458T181 511T276 530Q326
530 365 517T433 473T476 396T492 280H158Q159 218 171 177T205 110T258 74T327 63Q378 63 414 75T479 102V72Q467 60 448 46T403 18T345 -3T276 -12ZM270 495Q224 495 193 453T158 315L353 325Q353 370 350 402T337 455T311 485T270 495Z" />
<glyph unicode="&#xea;" glyph-name="ecircumflex" horiz-adv-x="515" d="M129 588L251 728H296L419 588L409 573L274 637L139 573L129 588ZM276 -12Q213 -12 166 7T87 61T39 147T23 261Q23 324 44 374T100 458T181 511T276 530Q326 530 365 517T433 473T476 396T492
280H158Q159 218 171 177T205 110T258 74T327 63Q378 63 414 75T479 102V72Q467 60 448 46T403 18T345 -3T276 -12ZM270 495Q224 495 193 453T158 315L353 325Q353 370 350 402T337 455T311 485T270 495Z" />
<glyph unicode="&#xeb;" glyph-name="edieresis" horiz-adv-x="515" d="M174 581Q146 581 126 600T106 648Q106 677 126 696T174 715Q203 715 223 696T243 648Q243 619 223 600T174 581ZM374 581Q345 581 325 600T305 648Q305 677 325 696T374 715Q402 715 422
696T442 648Q442 619 422 600T374 581ZM276 -12Q213 -12 166 7T87 61T39 147T23 261Q23 324 44 374T100 458T181 511T276 530Q326 530 365 517T433 473T476 396T492 280H158Q159 218 171 177T205 110T258 74T327 63Q378 63 414 75T479 102V72Q467 60 448 46T403
18T345 -3T276 -12ZM270 495Q224 495 193 453T158 315L353 325Q353 370 350 402T337 455T311 485T270 495Z" />
<glyph unicode="&#xec;" glyph-name="igrave" horiz-adv-x="288" d="M15 26L47 34Q64 39 71 45T79 71V420Q79 442 74 450T48 469L13 489V506L208 529L217 522Q215 491 214 466T213 417V71Q213 50 219 45T245 34L277 26V0H15V26ZM312 628Q289 635 279 650T269 680Q269
700 283 716T318 733Q342 733 365 713L507 594L499 578L312 628Z" />
<glyph unicode="&#xed;" glyph-name="iacute" horiz-adv-x="288" d="M306 594L448 713Q471 733 494 733Q515 733 529 717T543 680Q543 665 534 650T501 628L313 578L306 594ZM15 26L47 34Q64 39 71 45T79 71V420Q79 442 74 450T48 469L13 489V506L208 529L217
522Q215 491 214 466T213 417V71Q213 50 219 45T245 34L277 26V0H15V26Z" />
<glyph unicode="&#xee;" glyph-name="icircumflex" horiz-adv-x="288" d="M257 588L379 728H424L547 588L537 573L402 637L267 573L257 588ZM15 26L47 34Q64 39 71 45T79 71V420Q79 442 74 450T48 469L13 489V506L208 529L217 522Q215 491 214 466T213 417V71Q213
50 219 45T245 34L277 26V0H15V26Z" />
<glyph unicode="&#xef;" glyph-name="idieresis" horiz-adv-x="288" d="M302 581Q274 581 254 600T234 648Q234 677 254 696T302 715Q331 715 351 696T371 648Q371 619 351 600T302 581ZM502 581Q473 581 453 600T433 648Q433 677 453 696T502 715Q530 715 550
696T570 648Q570 619 550 600T502 581ZM15 26L47 34Q64 39 71 45T79 71V420Q79 442 74 450T48 469L13 489V506L208 529L217 522Q215 491 214 466T213 417V71Q213 50 219 45T245 34L277 26V0H15V26Z" />
<glyph unicode="&#xf0;" glyph-name="eth" horiz-adv-x="570" d="M144 610L250 659Q224 681 192 701T123 739L133 763Q186 748 231 730T315 689L433 743L448 711L351 666Q547 535 547 298Q547 210 525 151T465 55T381 3T284 -13Q230 -13 183 3T100 53T44 137T23
255Q23 324 46 375T105 459T185 509T274 525Q306 525 329 518T372 494Q359 529 336 564T279 633L158 577L144 610ZM287 23Q314 23 335 33T372 69T395 138T403 249Q403 321 395 367T372 441T334 478T281 489Q253 489 232 478T196 442T174 375T166 271Q166 198 173
150T196 74T234 35T287 23Z" />
<glyph unicode="&#xf1;" glyph-name="ntilde" horiz-adv-x="608" d="M15 23L47 31Q57 34 63 37T73 46T78 61T79 86V407Q79 423 78 432T74 447T64 457T48 468L13 489V506L201 529L210 523L208 461H213Q251 488 300 508T401 529Q470 529 501 497T533 396V86Q533
70 534 61T539 46T549 37T565 31L597 23V0H338V23L369 31Q379 34 385 36T394 44T398 59T399 86V364Q399 412 381 430T323 449Q292 449 262 443T213 431V86Q213 69 214 60T218 45T227 37T243 31L274 23V0H15V23ZM146 583Q157 609 167 630T187 667T211 690T241 698Q258
698 278 695T319 687T360 679T396 675Q411 675 422 685T448 718L470 707Q459 681 450 660T430 623T406 600T375 592Q358 592 338 595T296 603T256 611T220 615Q204 615 193 605T168 572L146 583Z" />
<glyph unicode="&#xf2;" glyph-name="ograve" horiz-adv-x="569" d="M284 -13Q230 -13 183 4T100 54T44 138T23 257Q23 326 45 377T104 463T187 513T284 530Q338 530 385 514T468 464T525 381T546 263Q546 194 524 142T466 56T382 4T284 -13ZM288 23Q315 23 336
33T372 70T395 140T403 251Q403 323 395 370T372 444T334 483T281 494Q253 494 232 483T196 446T174 378T166 273Q166 200 173 152T196 76T234 35T288 23ZM194 628Q171 635 161 650T151 680Q151 700 165 716T200 733Q224 733 247 713L389 594L381 578L194 628Z"
/>
<glyph unicode="&#xf3;" glyph-name="oacute" horiz-adv-x="569" d="M188 594L330 713Q353 733 376 733Q397 733 411 717T425 680Q425 665 416 650T383 628L195 578L188 594ZM284 -13Q230 -13 183 4T100 54T44 138T23 257Q23 326 45 377T104 463T187 513T284 530Q338
530 385 514T468 464T525 381T546 263Q546 194 524 142T466 56T382 4T284 -13ZM288 23Q315 23 336 33T372 70T395 140T403 251Q403 323 395 370T372 444T334 483T281 494Q253 494 232 483T196 446T174 378T166 273Q166 200 173 152T196 76T234 35T288 23Z" />
<glyph unicode="&#xf4;" glyph-name="ocircumflex" horiz-adv-x="569" d="M139 588L261 728H306L429 588L419 573L284 637L149 573L139 588ZM284 -13Q230 -13 183 4T100 54T44 138T23 257Q23 326 45 377T104 463T187 513T284 530Q338 530 385 514T468 464T525
381T546 263Q546 194 524 142T466 56T382 4T284 -13ZM288 23Q315 23 336 33T372 70T395 140T403 251Q403 323 395 370T372 444T334 483T281 494Q253 494 232 483T196 446T174 378T166 273Q166 200 173 152T196 76T234 35T288 23Z" />
<glyph unicode="&#xf5;" glyph-name="otilde" horiz-adv-x="569" d="M284 -13Q230 -13 183 4T100 54T44 138T23 257Q23 326 45 377T104 463T187 513T284 530Q338 530 385 514T468 464T525 381T546 263Q546 194 524 142T466 56T382 4T284 -13ZM288 23Q315 23 336
33T372 70T395 140T403 251Q403 323 395 370T372 444T334 483T281 494Q253 494 232 483T196 446T174 378T166 273Q166 200 173 152T196 76T234 35T288 23ZM122 583Q133 609 143 630T163 667T187 690T217 698Q234 698 254 695T295 687T336 679T372 675Q387 675 398
685T424 718L446 707Q435 681 426 660T406 623T382 600T351 592Q334 592 314 595T272 603T232 611T196 615Q180 615 169 605T144 572L122 583Z" />
<glyph unicode="&#xf6;" glyph-name="odieresis" horiz-adv-x="569" d="M184 581Q156 581 136 600T116 648Q116 677 136 696T184 715Q213 715 233 696T253 648Q253 619 233 600T184 581ZM384 581Q355 581 335 600T315 648Q315 677 335 696T384 715Q412 715 432
696T452 648Q452 619 432 600T384 581ZM284 -13Q230 -13 183 4T100 54T44 138T23 257Q23 326 45 377T104 463T187 513T284 530Q338 530 385 514T468 464T525 381T546 263Q546 194 524 142T466 56T382 4T284 -13ZM288 23Q315 23 336 33T372 70T395 140T403 251Q403
323 395 370T372 444T334 483T281 494Q253 494 232 483T196 446T174 378T166 273Q166 200 173 152T196 76T234 35T288 23Z" />
<glyph unicode="&#xf7;" glyph-name="divide" horiz-adv-x="464" d="M232 110Q203 110 184 130T164 177Q164 206 183 225T232 245Q260 245 280 226T300 177Q300 150 280 130T232 110ZM232 432Q203 432 184 452T164 499Q164 528 183 547T232 567Q260 567 280 548T300
499Q300 472 280 452T232 432ZM36 364H428V313H36V364Z" />
<glyph unicode="&#xf8;" glyph-name="oslash" horiz-adv-x="569" d="M120 37Q75 70 49 125T23 257Q23 326 45 377T104 463T187 513T284 530Q357 530 419 499L469 576H514L451 479Q495 446 520 393T546 263Q546 194 524 142T466 56T382 4T284 -13Q210 -13 152 17L99
-64H54L120 37ZM163 256Q163 212 165 179T174 121L380 440Q365 472 340 483T281 494Q253 494 231 482T194 442T171 369T163 256ZM288 23Q315 23 337 35T374 75T398 150T406 266Q405 307 403 338T395 393L189 75Q205 45 229 34T288 23Z" />
<glyph unicode="&#xf9;" glyph-name="ugrave" horiz-adv-x="604" d="M208 -12Q147 -12 112 21T76 120V415Q76 430 75 438T71 452T63 462T47 471L10 491V509L199 529L210 520V151Q210 106 229 86T286 66Q317 66 345 74T396 91V415Q396 430 395 438T391 452T383
462T367 471L330 491V509L519 529L530 520V113Q530 95 531 84T535 67T545 56T561 48L594 33V14L408 -12L399 -5L401 60H396Q357 32 310 10T208 -12ZM217 628Q194 635 184 650T174 680Q174 700 188 716T223 733Q247 733 270 713L412 594L404 578L217 628Z" />
<glyph unicode="&#xfa;" glyph-name="uacute" horiz-adv-x="604" d="M211 594L353 713Q376 733 399 733Q420 733 434 717T448 680Q448 665 439 650T406 628L218 578L211 594ZM208 -12Q147 -12 112 21T76 120V415Q76 430 75 438T71 452T63 462T47 471L10 491V509L199
529L210 520V151Q210 106 229 86T286 66Q317 66 345 74T396 91V415Q396 430 395 438T391 452T383 462T367 471L330 491V509L519 529L530 520V113Q530 95 531 84T535 67T545 56T561 48L594 33V14L408 -12L399 -5L401 60H396Q357 32 310 10T208 -12Z" />
<glyph unicode="&#xfb;" glyph-name="ucircumflex" horiz-adv-x="604" d="M161 588L283 728H328L451 588L441 573L306 637L171 573L161 588ZM208 -12Q147 -12 112 21T76 120V415Q76 430 75 438T71 452T63 462T47 471L10 491V509L199 529L210 520V151Q210 106 229
86T286 66Q317 66 345 74T396 91V415Q396 430 395 438T391 452T383 462T367 471L330 491V509L519 529L530 520V113Q530 95 531 84T535 67T545 56T561 48L594 33V14L408 -12L399 -5L401 60H396Q357 32 310 10T208 -12Z" />
<glyph unicode="&#xfc;" glyph-name="udieresis" horiz-adv-x="604" d="M206 581Q178 581 158 600T138 648Q138 677 158 696T206 715Q235 715 255 696T275 648Q275 619 255 600T206 581ZM406 581Q377 581 357 600T337 648Q337 677 357 696T406 715Q434 715 454
696T474 648Q474 619 454 600T406 581ZM208 -12Q147 -12 112 21T76 120V415Q76 430 75 438T71 452T63 462T47 471L10 491V509L199 529L210 520V151Q210 106 229 86T286 66Q317 66 345 74T396 91V415Q396 430 395 438T391 452T383 462T367 471L330 491V509L519 529L530
520V113Q530 95 531 84T535 67T545 56T561 48L594 33V14L408 -12L399 -5L401 60H396Q357 32 310 10T208 -12Z" />
<glyph unicode="&#xfd;" glyph-name="yacute" horiz-adv-x="535" d="M111 -207Q66 -207 41 -188T16 -139Q16 -113 32 -99T74 -84Q102 -84 115 -96T136 -131Q139 -142 143 -146T155 -150Q171 -150 190 -127T235 -41L248 -11L71 411Q61 433 55 446T43 468T32 479T17
486L-4 492V515H261V492L234 485Q219 481 212 474T205 450Q205 431 219 395L314 148H318L409 395Q423 434 423 454Q423 468 416 474T393 485L365 492V515H541V492L516 485Q507 482 501 477T490 463T478 439T462 401L282 -46Q268 -80 254 -109T220 -160T174 -194T111
-207ZM209 594L351 713Q374 733 397 733Q418 733 432 717T446 680Q446 665 437 650T404 628L216 578L209 594Z" />
<glyph unicode="&#xfe;" glyph-name="thorn" horiz-adv-x="591" d="M1 -180L33 -171Q43 -168 49 -165T59 -157T64 -142T65 -116V637Q65 654 64 664T60 680T50 689T35 698L-4 717V737L194 756L203 749Q202 735 201 717Q200 701 200 680T199 630V556Q199 536 199
520T198 491Q197 477 197 465H201Q232 491 274 510T368 529Q404 529 439 517T501 476T546 400T564 284Q564 209 543 153T484 61T394 6T278 -12Q261 -12 239 -9T198 -1V-19Q198 -27 198 -38T199 -63V-116Q199 -133 200 -142T204 -157T214 -166T230 -171L273 -180V-203H1V-180ZM285
25Q320 25 346 36T390 73T417 143T426 255Q426 362 391 408T292 454Q258 454 236 446T199 431V61Q216 44 236 35T285 25Z" />
<glyph unicode="&#xff;" glyph-name="ydieresis" horiz-adv-x="535" d="M111 -207Q66 -207 41 -188T16 -139Q16 -113 32 -99T74 -84Q102 -84 115 -96T136 -131Q139 -142 143 -146T155 -150Q171 -150 190 -127T235 -41L248 -11L71 411Q61 433 55 446T43 468T32
479T17 486L-4 492V515H261V492L234 485Q219 481 212 474T205 450Q205 431 219 395L314 148H318L409 395Q423 434 423 454Q423 468 416 474T393 485L365 492V515H541V492L516 485Q507 482 501 477T490 463T478 439T462 401L282 -46Q268 -80 254 -109T220 -160T174
-194T111 -207ZM205 581Q177 581 157 600T137 648Q137 677 157 696T205 715Q234 715 254 696T274 648Q274 619 254 600T205 581ZM405 581Q376 581 356 600T336 648Q336 677 356 696T405 715Q433 715 453 696T473 648Q473 619 453 600T405 581Z" />
<glyph unicode="&#x100;" glyph-name="Amacron" horiz-adv-x="669" d="M194 816H466V746H194V816ZM-3 24L23 31Q34 34 42 38T57 53T71 82T91 133L290 693H372L579 126Q589 99 597 82T612 54T627 38T645 30L669 24V0H368V24L396 31Q416 36 423 45T431 68Q431 81
426 99T413 139L381 230H174L144 139Q136 118 133 101T130 73Q130 53 139 45T169 31L199 24V0H-3V24ZM187 269H368L278 529H273L187 269Z" />
<glyph unicode="&#x101;" glyph-name="amacron" horiz-adv-x="515" d="M169 -13Q99 -13 59 21T19 120Q19 152 31 175T66 216T119 245T184 265L302 294V387Q302 416 299 436T287 469T263 488T222 494Q195 494 185 487T173 457Q169 419 156 399T105 379Q74 379 59
394T44 435Q44 459 60 477T103 506T168 524T250 530Q342 530 389 498T436 395V106Q436 81 441 69T461 48Q470 43 482 41T508 39V18Q495 8 468 -2T404 -12Q362 -12 339 4T309 48H304Q285 23 250 5T169 -13ZM230 49Q257 49 275 60T302 86V247L244 241Q201 237 177
215T152 138Q152 91 173 70T230 49ZM380 675H630V605H380V675Z" />
<glyph unicode="&#x102;" glyph-name="Abreve" horiz-adv-x="669" d="M330 726Q299 726 275 737T234 768T205 813T191 866L213 872Q226 845 253 827T330 808Q378 808 405 825T447 872L469 866Q466 838 456 813T428 769T386 738T330 726ZM-3 24L23 31Q34 34 42
38T57 53T71 82T91 133L290 693H372L579 126Q589 99 597 82T612 54T627 38T645 30L669 24V0H368V24L396 31Q416 36 423 45T431 68Q431 81 426 99T413 139L381 230H174L144 139Q136 118 133 101T130 73Q130 53 139 45T169 31L199 24V0H-3V24ZM187 269H368L278 529H273L187
269Z" />
<glyph unicode="&#x103;" glyph-name="abreve" horiz-adv-x="515" d="M169 -13Q99 -13 59 21T19 120Q19 152 31 175T66 216T119 245T184 265L302 294V387Q302 416 299 436T287 469T263 488T222 494Q195 494 185 487T173 457Q169 419 156 399T105 379Q74 379 59
394T44 435Q44 459 60 477T103 506T168 524T250 530Q342 530 389 498T436 395V106Q436 81 441 69T461 48Q470 43 482 41T508 39V18Q495 8 468 -2T404 -12Q362 -12 339 4T309 48H304Q285 23 250 5T169 -13ZM230 49Q257 49 275 60T302 86V247L244 241Q201 237 177
215T152 138Q152 91 173 70T230 49ZM506 576Q479 576 458 587T420 618T394 663T380 716L402 722Q416 695 440 677T506 658Q547 658 571 675T609 722L631 716Q628 688 618 663T593 619T555 588T506 576Z" />
<glyph unicode="&#x104;" glyph-name="Aogonek" horiz-adv-x="669" d="M382 230H173L144 139Q136 118 133 101T130 73Q130 53 139 45T169 31L199 24V0H-3V24L23 31Q34 34 42 38T57 53T71 82T91 133L290 693H372L579 126Q589 99 597 82T612 54T627 38T645 30L669
24V0H568Q528 0 501 -9T458 -34T434 -67T427 -105Q427 -127 434 -137T452 -152Q461 -156 472 -157T507 -158V-179Q495 -187 473 -195T421 -203Q379 -203 353 -184T327 -127Q327 -105 337 -87T366 -53T408 -23T460 5L382 230ZM187 269H368L278 529H273L187 269Z"
/>
<glyph unicode="&#x105;" glyph-name="aogonek" horiz-adv-x="515" d="M404 -203Q363 -203 337 -183T310 -126Q310 -109 318 -93T341 -63T373 -36T413 -12Q327 -13 309 48H304Q285 23 250 5T169 -13Q99 -13 59 21T19 120Q19 152 31 175T66 216T119 245T184 265L302
294V387Q302 416 299 436T287 469T263 488T222 494Q195 494 185 487T173 457Q169 419 156 399T105 379Q74 379 59 394T44 435Q44 459 60 477T103 506T168 524T250 530Q342 530 389 498T436 395V106Q436 81 441 69T461 48Q470 43 482 41T508 39V18Q489 8 471 -4T440
-31T418 -65T410 -109Q410 -129 417 -138T435 -152Q444 -156 455 -157T489 -158V-179Q478 -187 457 -195T404 -203ZM230 49Q257 49 275 60T302 86V247L244 241Q201 237 177 215T152 138Q152 91 173 70T230 49Z" />
<glyph unicode="&#x106;" glyph-name="Cacute" horiz-adv-x="618" d="M251 740L406 852Q429 869 450 869Q471 869 485 853T499 814Q499 797 489 784T453 765L257 724L251 740ZM358 -12Q287 -12 227 9T124 73T55 183T30 341Q30 439 58 508T136 621T249 685T385
705Q443 705 492 698T573 681L584 478H556Q538 521 519 557T482 618Q465 643 442 654T374 666Q326 666 292 650T235 597T201 502T190 360Q190 265 201 201T234 99T289 44T368 27Q421 27 447 40T493 83Q513 113 530 145T564 222H589L578 30Q543 15 487 2T358 -12Z"
/>
<glyph unicode="&#x107;" glyph-name="cacute" horiz-adv-x="484" d="M186 594L328 713Q351 733 374 733Q395 733 409 717T423 680Q423 665 414 650T381 628L193 578L186 594ZM266 -12Q207 -12 162 7T86 61T39 145T23 254Q23 333 50 386T120 471T215 516T317 530Q390
530 428 507T467 440Q467 413 449 395T402 377Q367 377 354 396T336 445Q332 476 324 484T290 493Q265 493 242 484T200 453T170 392T159 294Q159 180 196 122T318 63Q366 63 404 75T468 102V71Q457 59 439 45T394 18T336 -3T266 -12Z" />
<glyph unicode="&#x108;" glyph-name="Ccircumflex" horiz-adv-x="618" d="M209 735L337 864H382L511 735L501 720L360 773L219 720L209 735ZM358 -12Q287 -12 227 9T124 73T55 183T30 341Q30 439 58 508T136 621T249 685T385 705Q443 705 492 698T573 681L584
478H556Q538 521 519 557T482 618Q465 643 442 654T374 666Q326 666 292 650T235 597T201 502T190 360Q190 265 201 201T234 99T289 44T368 27Q421 27 447 40T493 83Q513 113 530 145T564 222H589L578 30Q543 15 487 2T358 -12Z" />
<glyph unicode="&#x109;" glyph-name="ccircumflex" horiz-adv-x="484" d="M137 588L259 728H304L427 588L417 573L282 637L147 573L137 588ZM266 -12Q207 -12 162 7T86 61T39 145T23 254Q23 333 50 386T120 471T215 516T317 530Q390 530 428 507T467 440Q467
413 449 395T402 377Q367 377 354 396T336 445Q332 476 324 484T290 493Q265 493 242 484T200 453T170 392T159 294Q159 180 196 122T318 63Q366 63 404 75T468 102V71Q457 59 439 45T394 18T336 -3T266 -12Z" />
<glyph unicode="&#x10a;" glyph-name="Cdotaccent" horiz-adv-x="618" d="M360 726Q331 726 310 745T289 794Q289 823 310 842T360 862Q390 862 411 843T432 794Q432 765 411 746T360 726ZM358 -12Q287 -12 227 9T124 73T55 183T30 341Q30 439 58 508T136 621T249
685T385 705Q443 705 492 698T573 681L584 478H556Q538 521 519 557T482 618Q465 643 442 654T374 666Q326 666 292 650T235 597T201 502T190 360Q190 265 201 201T234 99T289 44T368 27Q421 27 447 40T493 83Q513 113 530 145T564 222H589L578 30Q543 15 487 2T358
-12Z" />
<glyph unicode="&#x10b;" glyph-name="cdotaccent" horiz-adv-x="484" d="M266 -12Q207 -12 162 7T86 61T39 145T23 254Q23 333 50 386T120 471T215 516T317 530Q390 530 428 507T467 440Q467 413 449 395T402 377Q367 377 354 396T336 445Q332 476 324 484T290
493Q265 493 242 484T200 453T170 392T159 294Q159 180 196 122T318 63Q366 63 404 75T468 102V71Q457 59 439 45T394 18T336 -3T266 -12ZM282 575Q253 575 232 594T211 643Q211 672 232 691T282 711Q312 711 333 692T354 643Q354 614 333 595T282 575Z" />
<glyph unicode="&#x10c;" glyph-name="Ccaron" horiz-adv-x="618" d="M215 860L225 874L360 818L495 874L505 860L382 727H338L215 860ZM358 -12Q287 -12 227 9T124 73T55 183T30 341Q30 439 58 508T136 621T249 685T385 705Q443 705 492 698T573 681L584 478H556Q538
521 519 557T482 618Q465 643 442 654T374 666Q326 666 292 650T235 597T201 502T190 360Q190 265 201 201T234 99T289 44T368 27Q421 27 447 40T493 83Q513 113 530 145T564 222H589L578 30Q543 15 487 2T358 -12Z" />
<glyph unicode="&#x10d;" glyph-name="ccaron" horiz-adv-x="484" d="M137 720L147 734L282 671L417 734L427 720L304 580H260L137 720ZM266 -12Q207 -12 162 7T86 61T39 145T23 254Q23 333 50 386T120 471T215 516T317 530Q390 530 428 507T467 440Q467 413 449
395T402 377Q367 377 354 396T336 445Q332 476 324 484T290 493Q265 493 242 484T200 453T170 392T159 294Q159 180 196 122T318 63Q366 63 404 75T468 102V71Q457 59 439 45T394 18T336 -3T266 -12Z" />
<glyph unicode="&#x10e;" glyph-name="Dcaron" horiz-adv-x="711" d="M205 860L215 874L350 818L485 874L495 860L372 727H328L205 860ZM20 24L59 32Q69 34 76 37T87 47T93 66T95 100V593Q95 614 93 626T87 646T76 656T59 661L20 669V693H340Q415 693 477 675T585
616T656 512T681 356Q681 270 657 204T587 92T477 24T335 0H20V24ZM326 39Q381 39 419 59T480 117T513 210T524 335Q524 421 513 481T477 580T414 636T324 654Q295 654 275 652T245 645V131Q245 101 247 83T258 56T283 43T326 39Z" />
<glyph unicode="&#x10f;" glyph-name="dcaron" horiz-adv-x="600" d="M571 562L577 704Q578 726 589 741T626 756Q647 756 661 744T676 711Q676 704 674 695T664 675L587 557L571 562ZM223 -12Q187 -12 152 1T89 45T44 123T27 241Q27 317 50 371T113 461T203 512T311
529Q336 529 357 526T394 518Q393 529 393 541Q392 552 392 565T392 592V637Q392 653 391 663T386 678T377 687T362 696L320 717V737L520 756L529 749Q528 735 527 717Q526 701 526 680T526 630V113Q526 95 527 84T531 67T541 56T557 48L589 33V14L404 -12L394
-5L396 50H392Q360 24 317 6T223 -12ZM294 57Q331 57 354 67T392 84V451Q378 466 357 479T306 492Q274 492 248 481T204 443T175 374T165 268Q165 210 173 170T198 104T239 68T294 57Z" />
<glyph unicode="&#x110;" glyph-name="Dcroat" horiz-adv-x="711" d="M27 368H95V593Q95 614 93 626T87 646T76 656T59 661L20 669V693H340Q415 693 477 675T585 616T656 512T681 356Q681 270 657 204T587 92T477 24T335 0H20V24L59 32Q69 34 76 37T87 47T93 66T95
100V330H27V368ZM326 39Q381 39 419 59T480 117T513 210T524 335Q524 421 513 481T477 580T414 636T324 654Q295 654 275 652T245 645V368H397V330H245V131Q245 101 247 83T258 56T283 43T326 39Z" />
<glyph unicode="&#x111;" glyph-name="dcroat" horiz-adv-x="600" d="M223 -12Q187 -12 152 1T89 45T44 123T27 241Q27 317 50 371T113 461T203 512T311 529Q336 529 357 526T394 518Q393 529 393 541Q392 552 392 565V600H235V642H392Q391 654 390 663Q389 673
386 678T377 687T362 696L320 717V737L520 756L529 749Q528 735 527 717Q526 701 526 679V642H589V600H526V113Q526 95 527 84T531 67T541 56T557 48L589 33V14L404 -12L394 -5L396 50H392Q360 24 317 6T223 -12ZM294 57Q331 57 354 67T392 84V451Q378 466 357
479T306 492Q274 492 248 481T204 443T175 374T165 268Q165 210 173 170T198 104T239 68T294 57Z" />
<glyph unicode="&#x112;" glyph-name="Emacron" horiz-adv-x="603" d="M181 816H453V746H181V816ZM20 24L59 32Q69 34 76 37T87 47T93 66T95 100V593Q95 614 93 626T87 646T76 656T59 661L20 669V693H547L557 502H531Q513 542 501 565T478 603Q466 620 456 630T431
645T398 651T350 653Q305 653 282 650T245 644V379H284Q311 379 329 380T360 385T379 395T391 410Q401 428 407 445T419 488H446V229H419Q413 253 407 271T391 309Q386 319 380 325T363 334T333 339T284 340H245V147Q245 111 247 90T260 57T294 43T359 40Q391 40
411 42T445 50T469 67T491 95Q504 113 519 146T553 226H581L567 0H20V24Z" />
<glyph unicode="&#x113;" glyph-name="emacron" horiz-adv-x="515" d="M276 -12Q213 -12 166 7T87 61T39 147T23 261Q23 324 44 374T100 458T181 511T276 530Q326 530 365 517T433 473T476 396T492 280H158Q159 218 171 177T205 110T258 74T327 63Q378 63 414
75T479 102V72Q467 60 448 46T403 18T345 -3T276 -12ZM270 495Q224 495 193 453T158 315L353 325Q353 370 350 402T337 455T311 485T270 495ZM149 675H399V605H149V675Z" />
<glyph unicode="&#x114;" glyph-name="Ebreve" horiz-adv-x="603" d="M317 726Q286 726 262 737T221 768T192 813T178 866L200 872Q213 845 240 827T317 808Q365 808 392 825T434 872L456 866Q453 838 443 813T415 769T373 738T317 726ZM20 24L59 32Q69 34 76
37T87 47T93 66T95 100V593Q95 614 93 626T87 646T76 656T59 661L20 669V693H547L557 502H531Q513 542 501 565T478 603Q466 620 456 630T431 645T398 651T350 653Q305 653 282 650T245 644V379H284Q311 379 329 380T360 385T379 395T391 410Q401 428 407 445T419
488H446V229H419Q413 253 407 271T391 309Q386 319 380 325T363 334T333 339T284 340H245V147Q245 111 247 90T260 57T294 43T359 40Q391 40 411 42T445 50T469 67T491 95Q504 113 519 146T553 226H581L567 0H20V24Z" />
<glyph unicode="&#x115;" glyph-name="ebreve" horiz-adv-x="515" d="M276 -12Q213 -12 166 7T87 61T39 147T23 261Q23 324 44 374T100 458T181 511T276 530Q326 530 365 517T433 473T476 396T492 280H158Q159 218 171 177T205 110T258 74T327 63Q378 63 414 75T479
102V72Q467 60 448 46T403 18T345 -3T276 -12ZM270 495Q224 495 193 453T158 315L353 325Q353 370 350 402T337 455T311 485T270 495ZM274 576Q247 576 226 587T188 618T162 663T148 716L170 722Q184 695 208 677T274 658Q315 658 339 675T377 722L399 716Q396
688 386 663T361 619T323 588T274 576Z" />
<glyph unicode="&#x116;" glyph-name="Edotaccent" horiz-adv-x="603" d="M316 726Q287 726 266 745T245 794Q245 823 266 842T316 862Q346 862 367 843T388 794Q388 765 367 746T316 726ZM20 24L59 32Q69 34 76 37T87 47T93 66T95 100V593Q95 614 93 626T87 646T76
656T59 661L20 669V693H547L557 502H531Q513 542 501 565T478 603Q466 620 456 630T431 645T398 651T350 653Q305 653 282 650T245 644V379H284Q311 379 329 380T360 385T379 395T391 410Q401 428 407 445T419 488H446V229H419Q413 253 407 271T391 309Q386 319
380 325T363 334T333 339T284 340H245V147Q245 111 247 90T260 57T294 43T359 40Q391 40 411 42T445 50T469 67T491 95Q504 113 519 146T553 226H581L567 0H20V24Z" />
<glyph unicode="&#x117;" glyph-name="edotaccent" horiz-adv-x="515" d="M276 -12Q213 -12 166 7T87 61T39 147T23 261Q23 324 44 374T100 458T181 511T276 530Q326 530 365 517T433 473T476 396T492 280H158Q159 218 171 177T205 110T258 74T327 63Q378 63 414
75T479 102V72Q467 60 448 46T403 18T345 -3T276 -12ZM270 495Q224 495 193 453T158 315L353 325Q353 370 350 402T337 455T311 485T270 495ZM274 575Q245 575 224 594T203 643Q203 672 224 691T274 711Q304 711 325 692T346 643Q346 614 325 595T274 575Z" />
<glyph unicode="&#x118;" glyph-name="Eogonek" horiz-adv-x="603" d="M418 -203Q376 -203 349 -183T322 -126Q322 -106 333 -88T361 -53T400 -23Q421 -10 440 0H20V24L59 32Q69 34 76 37T87 47T93 66T95 100V593Q95 614 93 626T87 646T76 656T59 661L20 669V693H547L557
502H531Q513 542 501 565T478 603Q466 620 456 630T431 645T398 651T350 653Q305 653 282 650T245 644V379H284Q311 379 329 380T360 385T379 395T391 410Q401 428 407 445T419 488H446V229H419Q413 253 407 271T391 309Q386 319 380 325T363 334T333 339T284 340H245V147Q245
111 247 90T260 57T294 43T359 40Q391 40 411 42T445 50T469 67T491 95Q504 113 519 146T553 226H581L567 0H472Q451 -24 437 -50T423 -109Q423 -129 430 -138T448 -152Q457 -156 468 -157T502 -158V-179Q491 -187 470 -195T418 -203Z" />
<glyph unicode="&#x119;" glyph-name="eogonek" horiz-adv-x="515" d="M23 261Q23 324 44 374T100 458T181 511T276 530Q326 530 365 517T433 473T476 396T492 280H158Q159 218 171 177T206 110T258 74T327 63Q378 63 414 75T479 102V72Q462 55 437 37T393 4Q363
-19 343 -48T323 -109Q323 -129 330 -138T348 -152Q357 -156 368 -157T402 -158V-179Q391 -187 370 -195T318 -203Q276 -203 250 -183T223 -126Q223 -107 233 -90T261 -56T300 -26Q321 -13 342 -2Q326 -7 310 -9Q293 -12 273 -12Q211 -12 164 7T86 61T39 147T23
261ZM270 495Q225 495 194 453T158 314L353 325Q353 370 350 402T337 455T311 485T270 495Z" />
<glyph unicode="&#x11a;" glyph-name="Ecaron" horiz-adv-x="603" d="M171 860L181 874L316 818L451 874L461 860L338 727H294L171 860ZM20 24L59 32Q69 34 76 37T87 47T93 66T95 100V593Q95 614 93 626T87 646T76 656T59 661L20 669V693H547L557 502H531Q513
542 501 565T478 603Q466 620 456 630T431 645T398 651T350 653Q305 653 282 650T245 644V379H284Q311 379 329 380T360 385T379 395T391 410Q401 428 407 445T419 488H446V229H419Q413 253 407 271T391 309Q386 319 380 325T363 334T333 339T284 340H245V147Q245
111 247 90T260 57T294 43T359 40Q391 40 411 42T445 50T469 67T491 95Q504 113 519 146T553 226H581L567 0H20V24Z" />
<glyph unicode="&#x11b;" glyph-name="ecaron" horiz-adv-x="515" d="M129 720L139 734L274 671L409 734L419 720L296 580H252L129 720ZM276 -12Q213 -12 166 7T87 61T39 147T23 261Q23 324 44 374T100 458T181 511T276 530Q326 530 365 517T433 473T476 396T492
280H158Q159 218 171 177T205 110T258 74T327 63Q378 63 414 75T479 102V72Q467 60 448 46T403 18T345 -3T276 -12ZM270 495Q224 495 193 453T158 315L353 325Q353 370 350 402T337 455T311 485T270 495Z" />
<glyph unicode="&#x11c;" glyph-name="Gcircumflex" horiz-adv-x="682" d="M222 735L350 864H395L524 735L514 720L373 773L232 720L222 735ZM380 -12Q212 -12 121 76T30 343Q30 442 59 510T139 622T255 685T395 705Q460 705 506 699T588 684L599 478H572Q552
526 536 556T505 608Q493 625 483 636T460 654T428 663T383 666Q284 666 236 594T188 362Q188 273 198 210T230 106T288 46T376 27Q408 27 430 34T470 49V199Q470 220 469 232T463 251T451 261T434 266L394 275V299H676V275L647 268Q637 265 631 262T622 252T617
233T615 199V23Q594 16 567 10T509 -1T446 -9T380 -12Z" />
<glyph unicode="&#x11d;" glyph-name="gcircumflex" horiz-adv-x="511" d="M352 588L474 728H519L642 588L632 573L497 637L362 573L352 588ZM209 -208Q102 -208 45 -177T-13 -90Q-13 -54 19 -27T108 14V18Q72 27 51 50T30 108Q30 127 37 144T55 175T80 201T107
221V225Q72 242 49 275T25 355Q25 398 42 430T88 485T154 518T232 529Q297 529 348 505Q371 525 399 539T460 553Q486 553 503 540T520 501Q520 480 509 465T474 449Q452 449 443 458T426 483Q418 498 403 498T369 489V485Q399 468 419 438T439 366Q439 322 422
290T376 237T310 205T232 194Q180 194 135 211Q126 203 118 191T109 163Q109 146 122 137T164 127H334Q368 127 397 121T447 100T480 60T492 -5Q492 -43 476 -79T426 -144T338 -190T209 -208ZM228 -173Q309 -173 356 -145T404 -62Q404 -29 384 -10T314 9H147Q130
2 113 -17T96 -72Q96 -120 127 -146T228 -173ZM232 228Q272 228 291 256T310 355Q310 434 291 464T232 495Q192 495 173 467T153 366Q153 288 173 258T232 228Z" />
<glyph unicode="&#x11e;" glyph-name="Gbreve" horiz-adv-x="682" d="M374 726Q343 726 319 737T278 768T249 813T235 866L257 872Q270 845 297 827T374 808Q422 808 449 825T491 872L513 866Q510 838 500 813T472 769T430 738T374 726ZM380 -12Q212 -12 121 76T30
343Q30 442 59 510T139 622T255 685T395 705Q460 705 506 699T588 684L599 478H572Q552 526 536 556T505 608Q493 625 483 636T460 654T428 663T383 666Q284 666 236 594T188 362Q188 273 198 210T230 106T288 46T376 27Q408 27 430 34T470 49V199Q470 220 469
232T463 251T451 261T434 266L394 275V299H676V275L647 268Q637 265 631 262T622 252T617 233T615 199V23Q594 16 567 10T509 -1T446 -9T380 -12Z" />
<glyph unicode="&#x11f;" glyph-name="gbreve" horiz-adv-x="511" d="M209 -208Q102 -208 45 -177T-13 -90Q-13 -54 19 -27T108 14V18Q72 27 51 50T30 108Q30 127 37 144T55 175T80 201T107 221V225Q72 242 49 275T25 355Q25 398 42 430T88 485T154 518T232 529Q297
529 348 505Q371 525 399 539T460 553Q486 553 503 540T520 501Q520 480 509 465T474 449Q452 449 443 458T426 483Q418 498 403 498T369 489V485Q399 468 419 438T439 366Q439 322 422 290T376 237T310 205T232 194Q180 194 135 211Q126 203 118 191T109 163Q109
146 122 137T164 127H334Q368 127 397 121T447 100T480 60T492 -5Q492 -43 476 -79T426 -144T338 -190T209 -208ZM228 -173Q309 -173 356 -145T404 -62Q404 -29 384 -10T314 9H147Q130 2 113 -17T96 -72Q96 -120 127 -146T228 -173ZM232 228Q272 228 291 256T310
355Q310 434 291 464T232 495Q192 495 173 467T153 366Q153 288 173 258T232 228ZM497 576Q470 576 449 587T411 618T385 663T371 716L393 722Q407 695 431 677T497 658Q538 658 562 675T600 722L622 716Q619 688 609 663T584 619T546 588T497 576Z" />
<glyph unicode="&#x120;" glyph-name="Gdotaccent" horiz-adv-x="682" d="M373 726Q344 726 323 745T302 794Q302 823 323 842T373 862Q403 862 424 843T445 794Q445 765 424 746T373 726ZM380 -12Q212 -12 121 76T30 343Q30 442 59 510T139 622T255 685T395 705Q460
705 506 699T588 684L599 478H572Q552 526 536 556T505 608Q493 625 483 636T460 654T428 663T383 666Q284 666 236 594T188 362Q188 273 198 210T230 106T288 46T376 27Q408 27 430 34T470 49V199Q470 220 469 232T463 251T451 261T434 266L394 275V299H676V275L647
268Q637 265 631 262T622 252T617 233T615 199V23Q594 16 567 10T509 -1T446 -9T380 -12Z" />
<glyph unicode="&#x121;" glyph-name="gdotaccent" horiz-adv-x="511" d="M209 -208Q102 -208 45 -177T-13 -90Q-13 -54 19 -27T108 14V18Q72 27 51 50T30 108Q30 127 37 144T55 175T80 201T107 221V225Q72 242 49 275T25 355Q25 398 42 430T88 485T154 518T232
529Q297 529 348 505Q371 525 399 539T460 553Q486 553 503 540T520 501Q520 480 509 465T474 449Q452 449 443 458T426 483Q418 498 403 498T369 489V485Q399 468 419 438T439 366Q439 322 422 290T376 237T310 205T232 194Q180 194 135 211Q126 203 118 191T109
163Q109 146 122 137T164 127H334Q368 127 397 121T447 100T480 60T492 -5Q492 -43 476 -79T426 -144T338 -190T209 -208ZM228 -173Q309 -173 356 -145T404 -62Q404 -29 384 -10T314 9H147Q130 2 113 -17T96 -72Q96 -120 127 -146T228 -173ZM232 228Q272 228 291
256T310 355Q310 434 291 464T232 495Q192 495 173 467T153 366Q153 288 173 258T232 228ZM239 575Q210 575 189 594T168 643Q168 672 189 691T239 711Q269 711 290 692T311 643Q311 614 290 595T239 575Z" />
<glyph unicode="&#x122;" glyph-name="Gcommaaccent" horiz-adv-x="682" d="M292 -227Q341 -214 358 -194T374 -148Q371 -150 365 -152T350 -155Q325 -155 311 -141T297 -104Q297 -82 315 -66T362 -50Q393 -50 414 -70T436 -126Q436 -147 429 -167T405 -203T362
-232T298 -248L292 -227ZM380 -12Q212 -12 121 76T30 343Q30 442 59 510T139 622T255 685T395 705Q460 705 506 699T588 684L599 478H572Q552 526 536 556T505 608Q493 625 483 636T460 654T428 663T383 666Q284 666 236 594T188 362Q188 273 198 210T230 106T288
46T376 27Q408 27 430 34T470 49V199Q470 220 469 232T463 251T451 261T434 266L394 275V299H676V275L647 268Q637 265 631 262T622 252T617 233T615 199V23Q594 16 567 10T509 -1T446 -9T380 -12Z" />
<glyph unicode="&#x123;" glyph-name="gcommaaccent" horiz-adv-x="511" d="M314 754Q264 740 248 720T231 674Q235 677 241 679T256 682Q280 682 294 668T309 631Q309 609 291 593T244 576Q212 576 191 596T169 653Q169 695 201 730T308 775L314 754ZM209 -208Q102
-208 45 -177T-13 -90Q-13 -54 19 -27T108 14V18Q72 27 51 50T30 108Q30 127 37 144T55 175T80 201T107 221V225Q72 242 49 275T25 355Q25 398 42 430T88 485T154 518T232 529Q297 529 348 505Q371 525 399 539T460 553Q486 553 503 540T520 501Q520 480 509 465T474
449Q452 449 443 458T426 483Q418 498 403 498T369 489V485Q399 468 419 438T439 366Q439 322 422 290T376 237T310 205T232 194Q180 194 135 211Q126 203 118 191T109 163Q109 146 122 137T164 127H334Q368 127 397 121T447 100T480 60T492 -5Q492 -43 476 -79T426
-144T338 -190T209 -208ZM228 -173Q309 -173 356 -145T404 -62Q404 -29 384 -10T314 9H147Q130 2 113 -17T96 -72Q96 -120 127 -146T228 -173ZM232 228Q272 228 291 256T310 355Q310 434 291 464T232 495Q192 495 173 467T153 366Q153 288 173 258T232 228Z" />
<glyph unicode="&#x124;" glyph-name="Hcircumflex" horiz-adv-x="746" d="M222 735L350 864H395L524 735L514 720L373 773L232 720L222 735ZM20 24L59 32Q69 34 76 37T87 46T93 66T95 100V593Q95 614 93 626T87 646T76 656T59 661L20 669V693H320V669L281 661Q270
658 263 655T252 646T247 627T245 593V374H501V593Q501 614 500 626T494 645T483 655T465 661L427 669V693H726V669L688 661Q677 659 671 656T660 646T654 627T652 593V100Q652 79 653 67T659 47T670 37T688 32L726 24V0H427V24L465 32Q476 35 483 37T494 47T499
66T501 100V333H245V100Q245 79 246 67T252 47T263 38T281 32L320 24V0H20V24Z" />
<glyph unicode="&#x125;" glyph-name="hcircumflex" horiz-adv-x="608" d="M159 799L287 928H332L461 799L451 784L310 837L169 784L159 799ZM15 23L47 31Q57 34 63 37T73 46T78 61T79 86V637Q79 654 78 664T74 680T64 689T49 698L10 717V737L207 756L217 749Q216
733 215 715Q214 699 214 677T213 630V557Q213 537 213 521T211 491Q210 476 210 463H214Q253 489 301 509T401 529Q470 529 501 497T533 396V86Q533 70 534 61T539 46T549 37T565 31L597 23V0H338V23L369 31Q379 34 385 36T394 44T398 59T399 86V364Q399 412 381
430T323 449Q292 449 262 443T213 431V86Q213 69 214 60T218 45T227 37T243 31L274 23V0H15V23Z" />
<glyph unicode="&#x126;" glyph-name="Hbar" horiz-adv-x="746" d="M20 24L59 32Q69 34 76 37T87 46T93 66T95 100V493H13V532H95V593Q95 614 93 626T87 646T76 656T59 661L20 669V693H320V669L281 661Q270 658 263 655T252 646T247 627T245 593V532H501V593Q501
614 500 626T494 645T483 655T465 661L427 669V693H726V669L688 661Q677 659 671 656T660 646T654 627T652 593V532H733V493H652V100Q652 79 653 67T659 47T670 37T688 32L726 24V0H427V24L465 32Q476 35 483 37T494 47T499 66T501 100V333H245V100Q245 79 246
67T252 47T263 38T281 32L320 24V0H20V24ZM501 374V493H245V374H501Z" />
<glyph unicode="&#x127;" glyph-name="hbar" horiz-adv-x="608" d="M15 23L47 31Q57 34 63 37T73 46T78 61T79 86V600H3V642H79Q79 655 78 664Q77 674 74 680T64 689T49 698L10 717V737L207 756L217 749Q216 733 215 715Q214 699 213 677Q213 660 213 642H366V600H213V557Q213
537 213 521T211 491Q210 476 210 463H214Q253 489 301 509T401 529Q470 529 501 497T533 396V86Q533 70 534 61T539 46T549 37T565 31L597 23V0H338V23L369 31Q379 34 385 36T394 44T398 59T399 86V364Q399 412 381 430T323 449Q292 449 262 443T213 431V86Q213
69 214 60T218 45T227 37T243 31L274 23V0H15V23Z" />
<glyph unicode="&#x128;" glyph-name="Itilde" horiz-adv-x="347" d="M9 730Q20 756 29 777T49 813T73 836T103 845Q120 845 141 842T185 834T229 826T266 822Q281 822 292 832T318 865L339 854Q328 828 319 807T299 770T276 747T245 739Q228 739 207 742T163
750T119 758T82 762Q66 762 55 752T30 719L9 730ZM20 24L62 32Q72 34 79 37T90 46T96 66T98 100V593Q98 614 97 627T91 646T79 656T62 661L20 669V693H327V669L285 661Q274 659 267 656T256 646T251 627T249 593V100Q249 79 250 67T256 47T267 37T285 32L327 24V0H20V24Z"
/>
<glyph unicode="&#x129;" glyph-name="itilde" horiz-adv-x="288" d="M15 26L47 34Q64 39 71 45T79 71V420Q79 442 74 450T48 469L13 489V506L208 529L217 522Q215 491 214 466T213 417V71Q213 50 219 45T245 34L277 26V0H15V26ZM240 583Q251 609 261 630T281
667T305 690T335 698Q352 698 372 695T413 687T454 679T490 675Q505 675 516 685T542 718L564 707Q553 681 544 660T524 623T500 600T469 592Q452 592 432 595T390 603T350 611T314 615Q298 615 287 605T262 572L240 583Z" />
<glyph unicode="&#x12a;" glyph-name="Imacron" horiz-adv-x="347" d="M38 816H310V746H38V816ZM20 24L62 32Q72 34 79 37T90 46T96 66T98 100V593Q98 614 97 627T91 646T79 656T62 661L20 669V693H327V669L285 661Q274 659 267 656T256 646T251 627T249 593V100Q249
79 250 67T256 47T267 37T285 32L327 24V0H20V24Z" />
<glyph unicode="&#x12b;" glyph-name="imacron" horiz-adv-x="288" d="M15 26L47 34Q64 39 71 45T79 71V420Q79 442 74 450T48 469L13 489V506L208 529L217 522Q215 491 214 466T213 417V71Q213 50 219 45T245 34L277 26V0H15V26ZM19 675H269V605H19V675Z" />
<glyph unicode="&#x12c;" glyph-name="Ibreve" horiz-adv-x="347" d="M174 726Q143 726 119 737T78 768T49 813T35 866L57 872Q70 845 97 827T174 808Q222 808 249 825T291 872L313 866Q310 838 300 813T272 769T230 738T174 726ZM20 24L62 32Q72 34 79 37T90
46T96 66T98 100V593Q98 614 97 627T91 646T79 656T62 661L20 669V693H327V669L285 661Q274 659 267 656T256 646T251 627T249 593V100Q249 79 250 67T256 47T267 37T285 32L327 24V0H20V24Z" />
<glyph unicode="&#x12d;" glyph-name="ibreve" horiz-adv-x="288" d="M15 26L47 34Q64 39 71 45T79 71V420Q79 442 74 450T48 469L13 489V506L208 529L217 522Q215 491 214 466T213 417V71Q213 50 219 45T245 34L277 26V0H15V26ZM402 576Q375 576 354 587T316
618T290 663T276 716L298 722Q312 695 336 677T402 658Q443 658 467 675T505 722L527 716Q524 688 514 663T489 619T451 588T402 576Z" />
<glyph unicode="&#x12e;" glyph-name="Iogonek" horiz-adv-x="347" d="M20 24L62 32Q72 34 79 37T90 46T96 66T98 100V593Q98 614 97 627T91 646T79 656T62 661L20 669V693H327V669L285 661Q274 659 267 656T256 646T251 627T249 593V100Q249 79 250 67T256 47T267
37T285 32L327 24V0H235Q218 -24 206 -49T194 -107Q194 -144 219 -152Q228 -156 239 -157T273 -158V-179Q262 -187 241 -195T188 -203Q147 -203 120 -182T93 -124Q93 -104 103 -86T130 -52T167 -23Q186 -10 203 0H20V24Z" />
<glyph unicode="&#x12f;" glyph-name="iogonek" horiz-adv-x="288" d="M15 23L47 31Q57 34 63 37T73 46T78 61T79 86V407Q79 423 78 432T74 447T64 457T48 468L13 489V506L208 529L217 523Q216 509 215 482T213 417V86Q213 54 219 45T245 31L277 23V0H203Q186
-24 174 -49T162 -107Q162 -144 187 -152Q196 -156 207 -157T241 -158V-179Q229 -187 208 -195T156 -203Q115 -203 89 -182T62 -124Q62 -104 72 -86T99 -53T136 -24T174 0H15V23ZM142 590Q110 590 88 611T65 663Q65 694 87 715T142 736Q174 736 196 715T218 663Q218
632 196 611T142 590Z" />
<glyph unicode="&#x130;" glyph-name="Idotaccent" horiz-adv-x="347" d="M173 726Q144 726 123 745T102 794Q102 823 123 842T173 862Q203 862 224 843T245 794Q245 765 224 746T173 726ZM20 24L62 32Q72 34 79 37T90 46T96 66T98 100V593Q98 614 97 627T91 646T79
656T62 661L20 669V693H327V669L285 661Q274 659 267 656T256 646T251 627T249 593V100Q249 79 250 67T256 47T267 37T285 32L327 24V0H20V24Z" />
<glyph unicode="&#x131;" glyph-name="dotlessi" horiz-adv-x="288" d="M15 26L47 34Q64 39 71 45T79 71V420Q79 442 74 450T48 469L13 489V506L208 529L217 522Q215 491 214 466T213 417V71Q213 50 219 45T245 34L277 26V0H15V26Z" />
<glyph unicode="&#x132;" glyph-name="IJ" horiz-adv-x="687" d="M20 24L62 32Q72 34 79 37T90 46T96 66T98 100V593Q98 614 97 627T91 646T79 656T62 661L20 669V693H327V669L285 661Q274 659 267 656T256 646T251 627T249 593V100Q249 79 250 67T256 47T267
37T285 32L327 24V0H20V24ZM367 -176Q301 -176 269 -153T236 -96Q236 -70 252 -54T298 -37Q333 -37 349 -55T373 -115Q377 -130 380 -133T395 -137Q415 -137 428 -117T442 -48V593Q442 614 441 626T435 645T424 655T406 661L366 669V693H667V669L628 661Q617 659
611 656T600 646T594 627T592 593V62Q592 10 577 -34T534 -109T463 -158T367 -176Z" />
<glyph unicode="&#x133;" glyph-name="ij" horiz-adv-x="558" d="M15 23L47 31Q57 34 63 37T73 46T78 61T79 86V407Q79 423 78 432T74 447T64 457T48 468L13 489V506L208 529L217 523Q216 509 215 482T213 417V86Q213 54 219 45T245 31L277 23V0H15V23ZM142 590Q110
590 88 611T65 663Q65 694 87 715T142 736Q174 736 196 715T218 663Q218 632 196 611T142 590ZM292 -210Q233 -210 206 -187T178 -130Q178 -105 194 -91T236 -77Q269 -77 282 -93T300 -144Q302 -164 305 -169T317 -174Q337 -174 348 -159T359 -110V407Q359 423
358 432T354 447T344 457T328 468L293 489V506L488 529L497 523Q496 509 495 481T493 417V3Q493 -52 478 -92T435 -158T372 -197T292 -210ZM420 590Q388 590 366 611T344 663Q344 694 366 715T420 736Q452 736 474 715T497 663Q497 632 475 611T420 590Z" />
<glyph unicode="&#x134;" glyph-name="Jcircumflex" horiz-adv-x="340" d="M19 735L147 864H192L321 735L311 720L170 773L29 720L19 735ZM20 -176Q-46 -176 -78 -153T-111 -96Q-111 -70 -95 -54T-49 -37Q-14 -37 2 -55T26 -115Q30 -130 33 -133T48 -137Q68 -137
81 -117T95 -48V593Q95 614 94 626T88 645T77 655T59 661L19 669V693H320V669L281 661Q270 659 264 656T253 646T247 627T245 593V62Q245 10 230 -34T187 -109T116 -158T20 -176Z" />
<glyph unicode="&#x135;" glyph-name="jcircumflex" horiz-adv-x="282" d="M12 -210Q-47 -210 -74 -187T-102 -130Q-102 -105 -86 -91T-44 -77Q-11 -77 2 -93T20 -144Q22 -164 25 -169T37 -174Q57 -174 68 -159T79 -110V407Q79 423 78 432T74 447T64 457T48 468L13
489V506L208 529L217 523Q216 509 215 481T213 417V3Q213 -52 198 -92T155 -158T92 -197T12 -210ZM255 588L377 728H422L545 588L535 573L400 637L265 573L255 588Z" />
<glyph unicode="&#x136;" glyph-name="Kcommaaccent" horiz-adv-x="684" d="M284 -227Q333 -214 350 -194T366 -148Q363 -150 357 -152T342 -155Q317 -155 303 -141T289 -104Q289 -82 307 -66T354 -50Q385 -50 406 -70T428 -126Q428 -147 421 -167T397 -203T354
-232T290 -248L284 -227ZM485 0Q427 74 372 160T273 335V351L462 570Q477 587 483 601T490 627Q490 651 455 661L425 669V693H655V669L630 663Q617 660 607 655T586 641T562 618T528 582L383 420Q407 373 437 323T499 225T562 132T621 54Q631 42 636 38T653 31L684
24V0H485ZM20 24L59 32Q69 34 76 37T87 46T93 66T95 100V593Q95 614 93 626T87 646T76 656T59 661L20 669V693H320V669L281 661Q270 658 263 655T252 646T247 627T245 593V100Q245 79 246 67T252 47T263 38T281 32L320 24V0H20V24Z" />
<glyph unicode="&#x137;" glyph-name="kcommaaccent" horiz-adv-x="564" d="M227 -227Q276 -214 293 -194T309 -148Q306 -150 300 -152T285 -155Q260 -155 246 -141T232 -104Q232 -82 250 -66T297 -50Q328 -50 349 -70T371 -126Q371 -147 364 -167T340 -203T297
-232T233 -248L227 -227ZM398 0Q347 63 307 124T229 248V261L342 387Q369 417 377 433T385 461Q385 478 352 488L338 492V515H539V492L514 485Q504 482 496 478T478 468T457 450T429 423L330 320Q351 286 374 250T421 178T469 111T514 54Q528 36 547 30L569 23V0H398ZM15
23L47 31Q57 34 63 37T73 46T78 61T79 86V637Q79 654 78 664T74 680T64 689T49 698L10 717V737L207 756L217 749Q216 733 215 715Q214 699 214 677T213 630V86Q213 69 214 60T218 45T227 37T242 31L272 23V0H15V23Z" />
<glyph unicode="&#x139;" glyph-name="Lacute" horiz-adv-x="578" d="M62 740L217 852Q240 869 261 869Q282 869 296 853T310 814Q310 797 300 784T264 765L68 724L62 740ZM20 24L59 32Q69 34 76 37T87 46T93 66T95 100V593Q95 614 93 626T87 646T76 656T59 661L20
669V693H326V669L281 660Q270 658 263 655T252 646T247 627T245 593V131Q245 101 247 84T258 56T287 43T342 40Q373 40 393 42T428 50T452 66T473 93Q487 114 503 147T538 233H566L552 0H20V24Z" />
<glyph unicode="&#x13a;" glyph-name="lacute" horiz-adv-x="291" d="M35 798L190 910Q213 927 234 927Q255 927 269 911T283 872Q283 855 273 842T237 823L41 782L35 798ZM15 23L47 31Q57 34 63 37T74 46T79 61T80 86V637Q80 654 79 663T75 679T65 689T49 698L10
717V737L208 756L218 749Q217 733 216 715Q215 699 215 677T214 630V86Q214 70 215 61T220 46T230 37T247 31L279 23V0H15V23Z" />
<glyph unicode="&#x13b;" glyph-name="Lcommaaccent" horiz-adv-x="578" d="M232 -227Q281 -214 298 -194T314 -148Q311 -150 305 -152T290 -155Q265 -155 251 -141T237 -104Q237 -82 255 -66T302 -50Q333 -50 354 -70T376 -126Q376 -147 369 -167T345 -203T302
-232T238 -248L232 -227ZM20 24L59 32Q69 34 76 37T87 46T93 66T95 100V593Q95 614 93 626T87 646T76 656T59 661L20 669V693H326V669L281 660Q270 658 263 655T252 646T247 627T245 593V131Q245 101 247 84T258 56T287 43T342 40Q373 40 393 42T428 50T452 66T473
93Q487 114 503 147T538 233H566L552 0H20V24Z" />
<glyph unicode="&#x13c;" glyph-name="lcommaaccent" horiz-adv-x="291" d="M71 -227Q120 -214 137 -194T153 -148Q150 -150 144 -152T129 -155Q104 -155 90 -141T76 -104Q76 -82 94 -66T141 -50Q172 -50 193 -70T215 -126Q215 -147 208 -167T184 -203T141 -232T77
-248L71 -227ZM15 23L47 31Q57 34 63 37T74 46T79 61T80 86V637Q80 654 79 663T75 679T65 689T49 698L10 717V737L208 756L218 749Q217 733 216 715Q215 699 215 677T214 630V86Q214 70 215 61T220 46T230 37T247 31L279 23V0H15V23Z" />
<glyph unicode="&#x13d;" glyph-name="Lcaron" horiz-adv-x="578" d="M377 508L384 656Q385 679 396 695T436 711Q459 711 474 698T489 664Q489 655 486 645T475 625L394 503L377 508ZM20 24L59 32Q69 34 76 37T87 46T93 66T95 100V593Q95 614 93 626T87 646T76
656T59 661L20 669V693H326V669L281 660Q270 658 263 655T252 646T247 627T245 593V131Q245 101 247 84T258 56T287 43T342 40Q373 40 393 42T428 50T452 66T473 93Q487 114 503 147T538 233H566L552 0H20V24Z" />
<glyph unicode="&#x13e;" glyph-name="lcaron" horiz-adv-x="291" d="M259 562L265 704Q266 726 277 741T314 756Q335 756 349 744T364 711Q364 704 362 695T352 675L275 557L259 562ZM15 23L47 31Q57 34 63 37T74 46T79 61T80 86V637Q80 654 79 663T75 679T65
689T49 698L10 717V737L208 756L218 749Q217 733 216 715Q215 699 215 677T214 630V86Q214 70 215 61T220 46T230 37T247 31L279 23V0H15V23Z" />
<glyph unicode="&#x13f;" glyph-name="Ldot" horiz-adv-x="578" d="M20 24L59 32Q69 34 76 37T87 46T93 66T95 100V593Q95 614 93 626T87 646T76 656T59 661L20 669V693H326V669L281 660Q270 658 263 655T252 646T247 627T245 593V131Q245 101 247 84T258 56T287
43T342 40Q373 40 393 42T428 49T452 64T473 89Q487 109 503 140T538 222H566L552 0H20V24ZM488 299Q458 299 436 321T414 373Q414 405 436 425T488 446Q518 446 541 426T564 373Q564 343 541 321T488 299Z" />
<glyph unicode="&#x140;" glyph-name="ldot" horiz-adv-x="344" d="M15 23L47 31Q57 34 63 37T74 46T79 61T80 86V637Q80 654 79 663T75 679T65 689T49 698L10 717V737L208 756L218 749Q217 733 216 715Q215 699 215 677T214 630V86Q214 70 215 61T220 46T230
37T247 31L279 23V0H15V23ZM318 280Q306 280 295 285T275 298T261 318T256 341Q256 368 274 385T318 403Q331 403 342 399T362 386T376 366T381 341Q381 329 376 318T363 299T343 285T318 280Z" />
<glyph unicode="&#x141;" glyph-name="Lslash" horiz-adv-x="578" d="M9 282L95 314V593Q95 614 93 626T87 646T76 656T59 661L20 669V693H326V669L281 660Q270 658 263 655T252 646T247 627T245 593V370L440 443V400L245 327V131Q245 101 247 84T258 56T287 43T342
40Q373 40 393 42T428 50T452 66T473 93Q487 114 503 147T538 233H566L552 0H20V24L59 32Q69 34 76 37T87 46T93 66T95 100V272L9 240V282Z" />
<glyph unicode="&#x142;" glyph-name="lslash" horiz-adv-x="291" d="M6 323L80 362V637Q80 654 79 663T75 679T65 689T49 698L10 717V737L208 756L218 749Q217 733 216 715Q215 699 215 677T214 630V432L289 472V428L214 388V86Q214 70 215 61T220 46T230 37T247
31L279 23V0H15V23L47 31Q57 34 63 37T74 46T79 61T80 86V318L6 279V323Z" />
<glyph unicode="&#x143;" glyph-name="Nacute" horiz-adv-x="689" d="M256 740L411 852Q434 869 455 869Q476 869 490 853T504 814Q504 797 494 784T458 765L262 724L256 740ZM145 589H141V112Q141 86 143 71T150 48T163 37T186 31L224 24V0H20V24L52 31Q64 33
72 36T85 48T92 70T95 110V593Q95 614 93 626T87 646T76 656T59 661L20 669V693H252L548 245H552V581Q552 607 551 622T544 645T531 656T508 662L466 669V693H674V669L641 662Q630 660 622 657T609 645T602 623T599 583V-2H540L145 589Z" />
<glyph unicode="&#x144;" glyph-name="nacute" horiz-adv-x="608" d="M213 594L355 713Q378 733 401 733Q422 733 436 717T450 680Q450 665 441 650T408 628L220 578L213 594ZM15 23L47 31Q57 34 63 37T73 46T78 61T79 86V407Q79 423 78 432T74 447T64 457T48
468L13 489V506L201 529L210 523L208 461H213Q251 488 300 508T401 529Q470 529 501 497T533 396V86Q533 70 534 61T539 46T549 37T565 31L597 23V0H338V23L369 31Q379 34 385 36T394 44T398 59T399 86V364Q399 412 381 430T323 449Q292 449 262 443T213 431V86Q213
69 214 60T218 45T227 37T243 31L274 23V0H15V23Z" />
<glyph unicode="&#x145;" glyph-name="Ncommaaccent" horiz-adv-x="689" d="M269 -227Q318 -214 335 -194T351 -148Q348 -150 342 -152T327 -155Q302 -155 288 -141T274 -104Q274 -82 292 -66T339 -50Q370 -50 391 -70T413 -126Q413 -147 406 -167T382 -203T339
-232T275 -248L269 -227ZM145 589H141V112Q141 86 143 71T150 48T163 37T186 31L224 24V0H20V24L52 31Q64 33 72 36T85 48T92 70T95 110V593Q95 614 93 626T87 646T76 656T59 661L20 669V693H252L548 245H552V581Q552 607 551 622T544 645T531 656T508 662L466
669V693H674V669L641 662Q630 660 622 657T609 645T602 623T599 583V-2H540L145 589Z" />
<glyph unicode="&#x146;" glyph-name="ncommaaccent" horiz-adv-x="608" d="M235 -227Q284 -214 301 -194T317 -148Q314 -150 308 -152T293 -155Q268 -155 254 -141T240 -104Q240 -82 258 -66T305 -50Q336 -50 357 -70T379 -126Q379 -147 372 -167T348 -203T305
-232T241 -248L235 -227ZM15 23L47 31Q57 34 63 37T73 46T78 61T79 86V407Q79 423 78 432T74 447T64 457T48 468L13 489V506L201 529L210 523L208 461H213Q251 488 300 508T401 529Q470 529 501 497T533 396V86Q533 70 534 61T539 46T549 37T565 31L597 23V0H338V23L369
31Q379 34 385 36T394 44T398 59T399 86V364Q399 412 381 430T323 449Q292 449 262 443T213 431V86Q213 69 214 60T218 45T227 37T243 31L274 23V0H15V23Z" />
<glyph unicode="&#x147;" glyph-name="Ncaron" horiz-adv-x="689" d="M220 860L230 874L365 818L500 874L510 860L387 727H343L220 860ZM145 589H141V112Q141 86 143 71T150 48T163 37T186 31L224 24V0H20V24L52 31Q64 33 72 36T85 48T92 70T95 110V593Q95 614
93 626T87 646T76 656T59 661L20 669V693H252L548 245H552V581Q552 607 551 622T544 645T531 656T508 662L466 669V693H674V669L641 662Q630 660 622 657T609 645T602 623T599 583V-2H540L145 589Z" />
<glyph unicode="&#x148;" glyph-name="ncaron" horiz-adv-x="608" d="M163 720L173 734L308 671L443 734L453 720L330 580H286L163 720ZM15 23L47 31Q57 34 63 37T73 46T78 61T79 86V407Q79 423 78 432T74 447T64 457T48 468L13 489V506L201 529L210 523L208 461H213Q251
488 300 508T401 529Q470 529 501 497T533 396V86Q533 70 534 61T539 46T549 37T565 31L597 23V0H338V23L369 31Q379 34 385 36T394 44T398 59T399 86V364Q399 412 381 430T323 449Q292 449 262 443T213 431V86Q213 69 214 60T218 45T227 37T243 31L274 23V0H15V23Z"
/>
<glyph unicode="&#x149;" glyph-name="napostrophe" horiz-adv-x="671" d="M-70 489Q-25 510 -5 536T15 593Q12 591 5 588T-11 585Q-35 585 -51 601T-67 645Q-67 673 -47 689T1 706Q32 706 56 684T80 620Q80 563 44 525T-63 469L-70 489ZM77 23L109 31Q119 34
125 37T135 46T140 61T141 86V407Q141 423 140 432T136 447T126 457T110 468L75 489V506L263 529L272 523L270 461H275Q313 488 362 508T463 529Q532 529 563 497T595 396V86Q595 70 596 61T601 46T611 37T627 31L659 23V0H400V23L431 31Q441 34 447 36T456 44T460
59T461 86V364Q461 412 443 430T385 449Q354 449 324 443T275 431V86Q275 69 276 60T280 45T289 37T305 31L336 23V0H77V23Z" />
<glyph unicode="&#x14a;" glyph-name="Eng" horiz-adv-x="689" d="M145 589H141V112Q141 86 143 71T150 48T163 37T186 31L224 24V0H20V24L52 31Q64 33 72 36T85 48T92 70T95 110V593Q95 614 93 626T87 646T76 656T59 661L20 669V693H252L548 245H552V581Q552
607 551 622T544 645T531 656T508 662L466 669V693H674V669L641 662Q630 660 622 657T609 645T602 623T599 583V-1Q599 -36 591 -67T566 -123T522 -161T457 -176Q393 -176 364 -152T335 -95Q335 -71 350 -56T394 -41Q427 -41 440 -58T463 -114Q467 -129 471 -133T488
-137Q514 -137 531 -108Q547 -80 548 -15L145 589Z" />
<glyph unicode="&#x14b;" glyph-name="eng" horiz-adv-x="594" d="M332 -210Q274 -210 247 -187T219 -131Q219 -107 235 -93T277 -79Q309 -79 322 -94T339 -145Q342 -165 345 -169T357 -174Q377 -174 388 -159T399 -110V364Q399 412 381 430T323 449Q292 449 262
443T213 431V86Q213 69 214 59T218 44T228 36T244 31L276 23V0H15V23L47 31Q57 34 63 37T73 46T78 61T79 86V407Q79 423 78 432T74 447T64 457T48 468L13 489V506L201 529L210 523L208 461H213Q251 488 300 508T401 529Q470 529 501 497T533 396V3Q533 -52 518
-92T475 -158T411 -197T332 -210Z" />
<glyph unicode="&#x14c;" glyph-name="Omacron" horiz-adv-x="712" d="M220 816H492V746H220V816ZM352 -12Q287 -12 229 9T126 74T55 183T29 337Q29 435 58 505T134 619T240 684T360 705Q425 705 483 684T586 619T657 509T683 353Q683 254 654 185T578 72T472
8T352 -12ZM358 27Q401 27 432 43T485 95T516 189T526 333Q526 409 518 470T489 575T435 642T353 666Q311 666 280 650T228 597T197 501T186 357Q186 281 194 220T223 116T276 50T358 27Z" />
<glyph unicode="&#x14d;" glyph-name="omacron" horiz-adv-x="569" d="M159 675H409V605H159V675ZM284 -13Q230 -13 183 4T100 54T44 138T23 257Q23 326 45 377T104 463T187 513T284 530Q338 530 385 514T468 464T525 381T546 263Q546 194 524 142T466 56T382
4T284 -13ZM288 23Q315 23 336 33T372 70T395 140T403 251Q403 323 395 370T372 444T334 483T281 494Q253 494 232 483T196 446T174 378T166 273Q166 200 173 152T196 76T234 35T288 23Z" />
<glyph unicode="&#x14e;" glyph-name="Obreve" horiz-adv-x="712" d="M356 726Q325 726 301 737T260 768T231 813T217 866L239 872Q252 845 279 827T356 808Q404 808 431 825T473 872L495 866Q492 838 482 813T454 769T412 738T356 726ZM352 -12Q287 -12 229 9T126
74T55 183T29 337Q29 435 58 505T134 619T240 684T360 705Q425 705 483 684T586 619T657 509T683 353Q683 254 654 185T578 72T472 8T352 -12ZM358 27Q401 27 432 43T485 95T516 189T526 333Q526 409 518 470T489 575T435 642T353 666Q311 666 280 650T228 597T197
501T186 357Q186 281 194 220T223 116T276 50T358 27Z" />
<glyph unicode="&#x14f;" glyph-name="obreve" horiz-adv-x="569" d="M284 -13Q230 -13 183 4T100 54T44 138T23 257Q23 326 45 377T104 463T187 513T284 530Q338 530 385 514T468 464T525 381T546 263Q546 194 524 142T466 56T382 4T284 -13ZM288 23Q315 23 336
33T372 70T395 140T403 251Q403 323 395 370T372 444T334 483T281 494Q253 494 232 483T196 446T174 378T166 273Q166 200 173 152T196 76T234 35T288 23ZM284 576Q257 576 236 587T198 618T172 663T158 716L180 722Q194 695 218 677T284 658Q325 658 349 675T387
722L409 716Q406 688 396 663T371 619T333 588T284 576Z" />
<glyph unicode="&#x150;" glyph-name="Ohungarumlaut" horiz-adv-x="712" d="M243 737L315 853Q332 885 355 885Q372 885 389 871T407 836Q407 822 400 810T373 786L259 721L243 737ZM410 737L482 853Q501 885 523 885Q540 885 558 870T576 835Q576 823 570 812T544
789L427 721L410 737ZM352 -12Q287 -12 229 9T126 74T55 183T29 337Q29 435 58 505T134 619T240 684T360 705Q425 705 483 684T586 619T657 509T683 353Q683 254 654 185T578 72T472 8T352 -12ZM358 27Q401 27 432 43T485 95T516 189T526 333Q526 409 518 470T489
575T435 642T353 666Q311 666 280 650T228 597T197 501T186 357Q186 281 194 220T223 116T276 50T358 27Z" />
<glyph unicode="&#x151;" glyph-name="ohungarumlaut" horiz-adv-x="569" d="M167 590L247 716Q267 748 289 748Q306 748 323 734T341 699Q341 685 334 672T307 648L183 574L167 590ZM334 590L415 716Q434 748 457 748Q474 748 492 733T510 698Q510 686 504 674T478
651L351 574L334 590ZM284 -13Q230 -13 183 4T100 54T44 138T23 257Q23 326 45 377T104 463T187 513T284 530Q338 530 385 514T468 464T525 381T546 263Q546 194 524 142T466 56T382 4T284 -13ZM288 23Q315 23 336 33T372 70T395 140T403 251Q403 323 395 370T372
444T334 483T281 494Q253 494 232 483T196 446T174 378T166 273Q166 200 173 152T196 76T234 35T288 23Z" />
<glyph unicode="&#x152;" glyph-name="OE" horiz-adv-x="982" d="M376 0Q305 0 242 17T132 74T57 179T29 339Q29 430 56 496T132 606T244 671T382 693H925L936 502H909Q892 542 880 565T857 603Q845 620 835 630T810 645T777 651T728 653Q683 653 660 650T624
644V379H663Q690 379 708 380T739 385T758 395T770 410Q780 428 786 445T798 488H825V229H798Q792 253 786 271T770 309Q765 319 759 325T742 334T712 339T663 340H624V147Q624 111 626 90T639 57T673 43T737 40Q769 40 789 42T824 50T848 67T870 95Q883 113 898
146T931 226H960L945 0H376ZM385 36Q413 36 430 40T457 56T470 86T473 135V565Q473 592 470 609T457 637T429 652T380 657Q325 657 288 639T228 583T196 491T186 360Q186 272 196 211T230 110T291 54T385 36Z" />
<glyph unicode="&#x153;" glyph-name="oe" horiz-adv-x="888" d="M280 -13Q227 -13 181 4T99 54T44 138T23 257Q23 326 45 377T103 463T186 513T283 530Q344 530 391 507T471 438Q503 481 549 505T653 530Q701 530 740 517T806 473T849 396T865 280H533Q534 218
545 177T579 110T631 74T700 63Q751 63 787 75T852 102V72Q840 60 821 46T776 18T718 -3T649 -12Q581 -12 536 11T464 75Q431 32 383 10T280 -13ZM286 23Q313 23 334 33T369 70T390 140T398 251Q398 323 391 370T369 444T332 483T280 494Q252 494 231 483T195 446T174
378T166 273Q166 200 173 152T195 76T232 35T286 23ZM643 495Q597 495 567 453T533 315L726 325Q726 370 723 402T710 455T684 485T643 495Z" />
<glyph unicode="&#x154;" glyph-name="Racute" horiz-adv-x="673" d="M214 740L369 852Q392 869 413 869Q434 869 448 853T462 814Q462 797 452 784T416 765L220 724L214 740ZM20 24L59 32Q69 34 76 37T87 46T93 66T95 100V593Q95 614 93 626T87 646T76 656T59
661L20 669V693H331Q467 693 528 648T589 513Q589 452 554 410T444 345V342Q461 308 482 270T527 193T574 118T619 55Q627 44 635 39T659 29L677 24V0H483Q459 32 435 70T388 150T343 232T306 311H245V100Q245 79 246 67T251 47T262 37T280 32L319 24V0H20V24ZM296
347Q333 347 359 355T403 381T428 428T436 501Q436 545 430 574T410 621T374 646T321 653Q294 653 275 651T245 646V351Q247 350 261 349T296 347Z" />
<glyph unicode="&#x155;" glyph-name="racute" horiz-adv-x="438" d="M151 594L293 713Q316 733 339 733Q360 733 374 717T388 680Q388 665 379 650T346 628L158 578L151 594ZM15 23L47 31Q57 34 63 37T73 46T78 61T79 86V407Q79 423 78 432T74 447T64 457T48
468L13 489V506L201 529L210 522L208 456H213Q225 469 241 482T277 505T316 523T357 530Q391 530 410 513T429 461Q429 429 411 412T367 394Q351 394 341 397T323 405T310 418T298 436Q294 445 290 448T279 451Q272 451 263 448T245 441T228 430T213 418V86Q213
69 214 59T218 44T228 36T243 31L283 23V0H15V23Z" />
<glyph unicode="&#x156;" glyph-name="Rcommaaccent" horiz-adv-x="673" d="M286 -227Q335 -214 352 -194T368 -148Q365 -150 359 -152T344 -155Q319 -155 305 -141T291 -104Q291 -82 309 -66T356 -50Q387 -50 408 -70T430 -126Q430 -147 423 -167T399 -203T356
-232T292 -248L286 -227ZM20 24L59 32Q69 34 76 37T87 46T93 66T95 100V593Q95 614 93 626T87 646T76 656T59 661L20 669V693H331Q467 693 528 648T589 513Q589 452 554 410T444 345V342Q461 308 482 270T527 193T574 118T619 55Q627 44 635 39T659 29L677 24V0H483Q459
32 435 70T388 150T343 232T306 311H245V100Q245 79 246 67T251 47T262 37T280 32L319 24V0H20V24ZM296 347Q333 347 359 355T403 381T428 428T436 501Q436 545 430 574T410 621T374 646T321 653Q294 653 275 651T245 646V351Q247 350 261 349T296 347Z" />
<glyph unicode="&#x157;" glyph-name="rcommaaccent" horiz-adv-x="438" d="M67 -227Q116 -214 133 -194T149 -148Q146 -150 140 -152T125 -155Q100 -155 86 -141T72 -104Q72 -82 90 -66T137 -50Q168 -50 189 -70T211 -126Q211 -147 204 -167T180 -203T137 -232T73
-248L67 -227ZM15 23L47 31Q57 34 63 37T73 46T78 61T79 86V407Q79 423 78 432T74 447T64 457T48 468L13 489V506L201 529L210 522L208 456H213Q225 469 241 482T277 505T316 523T357 530Q391 530 410 513T429 461Q429 429 411 412T367 394Q351 394 341 397T323
405T310 418T298 436Q294 445 290 448T279 451Q272 451 263 448T245 441T228 430T213 418V86Q213 69 214 59T218 44T228 36T243 31L283 23V0H15V23Z" />
<glyph unicode="&#x158;" glyph-name="Rcaron" horiz-adv-x="673" d="M178 860L188 874L323 818L458 874L468 860L345 727H301L178 860ZM20 24L59 32Q69 34 76 37T87 46T93 66T95 100V593Q95 614 93 626T87 646T76 656T59 661L20 669V693H331Q467 693 528 648T589
513Q589 452 554 410T444 345V342Q461 308 482 270T527 193T574 118T619 55Q627 44 635 39T659 29L677 24V0H483Q459 32 435 70T388 150T343 232T306 311H245V100Q245 79 246 67T251 47T262 37T280 32L319 24V0H20V24ZM296 347Q333 347 359 355T403 381T428 428T436
501Q436 545 430 574T410 621T374 646T321 653Q294 653 275 651T245 646V351Q247 350 261 349T296 347Z" />
<glyph unicode="&#x159;" glyph-name="rcaron" horiz-adv-x="438" d="M360 720L370 734L505 671L640 734L650 720L527 580H483L360 720ZM15 23L47 31Q57 34 63 37T73 46T78 61T79 86V407Q79 423 78 432T74 447T64 457T48 468L13 489V506L201 529L210 522L208 456H213Q225
469 241 482T277 505T316 523T357 530Q391 530 410 513T429 461Q429 429 411 412T367 394Q351 394 341 397T323 405T310 418T298 436Q294 445 290 448T279 451Q272 451 263 448T245 441T228 430T213 418V86Q213 69 214 59T218 44T228 36T243 31L283 23V0H15V23Z"
/>
<glyph unicode="&#x15a;" glyph-name="Sacute" horiz-adv-x="519" d="M159 740L314 852Q337 869 358 869Q379 869 393 853T407 814Q407 797 397 784T361 765L165 724L159 740ZM237 -13Q171 -13 120 -3T38 21L26 209H55Q73 171 88 142T124 83Q146 50 173 39T247
27Q313 27 342 58T372 141Q372 165 365 184T339 221T292 255T217 290Q167 311 132 333T75 380T44 436T34 505Q34 548 51 585T99 649T173 691T270 706Q333 706 373 699T440 682L451 514H424Q415 534 408 548T393 575T378 597T361 620Q351 633 342 641T322 655T296
663T258 666Q202 666 173 641T143 566Q143 544 148 527T169 493T210 462T280 429Q337 405 376 382T441 334T478 279T490 214Q490 167 474 126T425 54T346 5T237 -13Z" />
<glyph unicode="&#x15b;" glyph-name="sacute" horiz-adv-x="422" d="M376 594L518 713Q541 733 564 733Q585 733 599 717T613 680Q613 665 604 650T571 628L383 578L376 594ZM185 -12Q142 -12 102 -6T31 10L26 162H51Q65 133 79 111T111 65Q126 43 145 34T199
24Q238 24 264 44T290 102Q290 121 284 135T263 161T227 184T172 208Q106 233 67 270T27 369Q27 404 41 433T82 484T145 518T229 530Q271 530 305 525T362 510L367 378H344Q330 404 318 424T290 461Q273 482 256 488T213 494Q175 494 154 476T132 424Q132 393 155
370T239 324Q320 294 359 257T399 162Q399 124 385 92T343 37T276 1T185 -12Z" />
<glyph unicode="&#x15c;" glyph-name="Scircumflex" horiz-adv-x="519" d="M117 735L245 864H290L419 735L409 720L268 773L127 720L117 735ZM237 -13Q171 -13 120 -3T38 21L26 209H55Q73 171 88 142T124 83Q146 50 173 39T247 27Q313 27 342 58T372 141Q372 165
365 184T339 221T292 255T217 290Q167 311 132 333T75 380T44 436T34 505Q34 548 51 585T99 649T173 691T270 706Q333 706 373 699T440 682L451 514H424Q415 534 408 548T393 575T378 597T361 620Q351 633 342 641T322 655T296 663T258 666Q202 666 173 641T143
566Q143 544 148 527T169 493T210 462T280 429Q337 405 376 382T441 334T478 279T490 214Q490 167 474 126T425 54T346 5T237 -13Z" />
<glyph unicode="&#x15d;" glyph-name="scircumflex" horiz-adv-x="422" d="M327 588L449 728H494L617 588L607 573L472 637L337 573L327 588ZM185 -12Q142 -12 102 -6T31 10L26 162H51Q65 133 79 111T111 65Q126 43 145 34T199 24Q238 24 264 44T290 102Q290 121
284 135T263 161T227 184T172 208Q106 233 67 270T27 369Q27 404 41 433T82 484T145 518T229 530Q271 530 305 525T362 510L367 378H344Q330 404 318 424T290 461Q273 482 256 488T213 494Q175 494 154 476T132 424Q132 393 155 370T239 324Q320 294 359 257T399
162Q399 124 385 92T343 37T276 1T185 -12Z" />
<glyph unicode="&#x15e;" glyph-name="Scedilla" horiz-adv-x="519" d="M237 -13Q171 -13 120 -3T38 21L26 209H55Q73 171 88 142T124 83Q146 50 173 39T247 27Q313 27 342 58T372 141Q372 165 365 184T339 221T292 255T217 290Q167 311 132 333T75 380T44 436T34
505Q34 548 51 585T99 649T173 691T270 706Q333 706 373 699T440 682L451 514H424Q415 534 408 548T393 575T378 597T361 620Q351 633 342 641T322 655T296 663T258 666Q202 666 173 641T143 566Q143 544 148 527T169 493T210 462T280 429Q337 405 376 382T441
334T478 279T490 214Q490 167 474 126T425 54T346 5T237 -13ZM404 -185Q449 -174 469 -161T489 -129Q489 -114 475 -107T437 -98L432 -90L477 0H516L484 -48Q523 -52 546 -68T569 -112Q569 -154 524 -176T404 -204V-185Z" />
<glyph unicode="&#x15f;" glyph-name="scedilla" horiz-adv-x="422" d="M185 -12Q142 -12 102 -6T31 10L26 162H51Q65 133 79 111T111 65Q126 43 145 34T199 24Q238 24 264 44T290 102Q290 121 284 135T263 161T227 184T172 208Q106 233 67 270T27 369Q27 404
41 433T82 484T145 518T229 530Q271 530 305 525T362 510L367 378H344Q330 404 318 424T290 461Q273 482 256 488T213 494Q175 494 154 476T132 424Q132 393 155 370T239 324Q320 294 359 257T399 162Q399 124 385 92T343 37T276 1T185 -12ZM357 -185Q402 -174
422 -161T442 -129Q442 -114 428 -107T390 -98L385 -90L430 0H469L437 -48Q476 -52 499 -68T522 -112Q522 -154 477 -176T357 -204V-185Z" />
<glyph unicode="&#x160;" glyph-name="Scaron" horiz-adv-x="519" d="M123 860L133 874L268 818L403 874L413 860L290 727H246L123 860ZM237 -13Q171 -13 120 -3T38 21L26 209H55Q73 171 88 142T124 83Q146 50 173 39T247 27Q313 27 342 58T372 141Q372 165 365
184T339 221T292 255T217 290Q167 311 132 333T75 380T44 436T34 505Q34 548 51 585T99 649T173 691T270 706Q333 706 373 699T440 682L451 514H424Q415 534 408 548T393 575T378 597T361 620Q351 633 342 641T322 655T296 663T258 666Q202 666 173 641T143 566Q143
544 148 527T169 493T210 462T280 429Q337 405 376 382T441 334T478 279T490 214Q490 167 474 126T425 54T346 5T237 -13Z" />
<glyph unicode="&#x161;" glyph-name="scaron" horiz-adv-x="422" d="M327 720L337 734L472 671L607 734L617 720L494 580H450L327 720ZM185 -12Q142 -12 102 -6T31 10L26 162H51Q65 133 79 111T111 65Q126 43 145 34T199 24Q238 24 264 44T290 102Q290 121 284
135T263 161T227 184T172 208Q106 233 67 270T27 369Q27 404 41 433T82 484T145 518T229 530Q271 530 305 525T362 510L367 378H344Q330 404 318 424T290 461Q273 482 256 488T213 494Q175 494 154 476T132 424Q132 393 155 370T239 324Q320 294 359 257T399 162Q399
124 385 92T343 37T276 1T185 -12Z" />
<glyph unicode="&#x162;" glyph-name="Tcommaaccent" horiz-adv-x="619" d="M229 -227Q278 -214 295 -194T311 -148Q308 -150 302 -152T287 -155Q262 -155 248 -141T234 -104Q234 -82 252 -66T299 -50Q330 -50 351 -70T373 -126Q373 -147 366 -167T342 -203T299
-232T235 -248L229 -227ZM155 24L197 32Q209 34 216 37T227 47T232 66T234 100V654H220Q191 654 173 653T143 646T122 631T103 604Q95 591 88 578T74 550T60 517T43 474H14L23 693H596L605 474H576Q567 498 560 516T545 550T531 578T516 604Q505 621 496 631T475
646T446 652T398 654H385V100Q385 79 386 67T391 47T402 37T422 32L463 24V0H155V24Z" />
<glyph unicode="&#x163;" glyph-name="tcommaaccent" horiz-adv-x="348" d="M104 -227Q153 -214 170 -194T186 -148Q183 -150 177 -152T162 -155Q137 -155 123 -141T109 -104Q109 -82 127 -66T174 -50Q205 -50 226 -70T248 -126Q248 -147 241 -167T217 -203T174
-232T110 -248L104 -227ZM196 -12Q136 -12 102 16T68 112V463H2V485Q57 505 97 544T159 643H202V515H338L326 463H202V122Q202 87 216 72T267 56Q287 56 307 59T342 67V42Q334 35 321 26T289 8T248 -6T196 -12Z" />
<glyph unicode="&#x164;" glyph-name="Tcaron" horiz-adv-x="619" d="M164 860L174 874L309 818L444 874L454 860L331 727H287L164 860ZM155 24L197 32Q209 34 216 37T227 47T232 66T234 100V654H220Q191 654 173 653T143 646T122 631T103 604Q95 591 88 578T74
550T60 517T43 474H14L23 693H596L605 474H576Q567 498 560 516T545 550T531 578T516 604Q505 621 496 631T475 646T446 652T398 654H385V100Q385 79 386 67T391 47T402 37T422 32L463 24V0H155V24Z" />
<glyph unicode="&#x165;" glyph-name="tcaron" horiz-adv-x="348" d="M266 562L272 704Q273 726 284 741T321 756Q342 756 356 744T371 711Q371 704 369 695T359 675L282 557L266 562ZM196 -12Q136 -12 102 16T68 112V463H2V485Q57 505 97 544T159 643H202V515H338L326
463H202V122Q202 87 216 72T267 56Q287 56 307 59T342 67V42Q334 35 321 26T289 8T248 -6T196 -12Z" />
<glyph unicode="&#x166;" glyph-name="Tbar" horiz-adv-x="619" d="M156 24L198 32Q209 34 216 37T228 47T233 66T235 100V359H82V398H235V654H221Q192 654 174 653T144 646T123 631T104 604Q95 591 88 578T74 550T60 517T43 474H15L23 693H597L605 474H577Q568
498 561 516T546 550T532 578T517 604Q506 621 497 631T476 646T447 652T399 654H385V398H538V359H385V100Q385 79 386 67T391 47T402 37T422 32L464 24V0H156V24Z" />
<glyph unicode="&#x167;" glyph-name="tbar" horiz-adv-x="348" d="M196 -12Q136 -12 102 16T68 112V327H3V369H68V463H2V485Q57 505 97 544T159 643H202V515H338L326 463H202V369H333V327H202V122Q202 87 216 72T267 56Q287 56 307 59T342 67V42Q334 35 321 26T289
8T248 -6T196 -12Z" />
<glyph unicode="&#x168;" glyph-name="Utilde" horiz-adv-x="692" d="M225 730Q236 756 245 777T265 813T289 836T319 845Q336 845 357 842T401 834T445 826T482 822Q497 822 508 832T534 865L555 854Q544 828 535 807T515 770T492 747T461 739Q444 739 423 742T379
750T335 758T298 762Q282 762 271 752T246 719L225 730ZM361 -12Q299 -12 249 1T162 42T105 114T85 223V593Q85 614 84 626T78 646T66 656T49 661L11 669V693H309V669L272 661Q261 658 254 655T243 646T238 627T236 593V207Q236 124 274 85T402 46Q487 46 524 92T561
219V581Q561 607 560 622T553 645T539 656T516 662L473 669V693H682V669L649 662Q638 660 631 657T618 645T611 623T608 583V212Q608 166 594 125T549 54T473 6T361 -12Z" />
<glyph unicode="&#x169;" glyph-name="utilde" horiz-adv-x="604" d="M208 -12Q147 -12 112 21T76 120V415Q76 430 75 438T71 452T63 462T47 471L10 491V509L199 529L210 520V151Q210 106 229 86T286 66Q317 66 345 74T396 91V415Q396 430 395 438T391 452T383
462T367 471L330 491V509L519 529L530 520V113Q530 95 531 84T535 67T545 56T561 48L594 33V14L408 -12L399 -5L401 60H396Q357 32 310 10T208 -12ZM144 583Q155 609 165 630T185 667T209 690T239 698Q256 698 276 695T317 687T358 679T394 675Q409 675 420 685T446
718L468 707Q457 681 448 660T428 623T404 600T373 592Q356 592 336 595T294 603T254 611T218 615Q202 615 191 605T166 572L144 583Z" />
<glyph unicode="&#x16a;" glyph-name="Umacron" horiz-adv-x="692" d="M254 816H526V746H254V816ZM361 -12Q299 -12 249 1T162 42T105 114T85 223V593Q85 614 84 626T78 646T66 656T49 661L11 669V693H309V669L272 661Q261 658 254 655T243 646T238 627T236 593V207Q236
124 274 85T402 46Q487 46 524 92T561 219V581Q561 607 560 622T553 645T539 656T516 662L473 669V693H682V669L649 662Q638 660 631 657T618 645T611 623T608 583V212Q608 166 594 125T549 54T473 6T361 -12Z" />
<glyph unicode="&#x16b;" glyph-name="umacron" horiz-adv-x="604" d="M208 -12Q147 -12 112 21T76 120V415Q76 430 75 438T71 452T63 462T47 471L10 491V509L199 529L210 520V151Q210 106 229 86T286 66Q317 66 345 74T396 91V415Q396 430 395 438T391 452T383
462T367 471L330 491V509L519 529L530 520V113Q530 95 531 84T535 67T545 56T561 48L594 33V14L408 -12L399 -5L401 60H396Q357 32 310 10T208 -12ZM181 675H431V605H181V675Z" />
<glyph unicode="&#x16c;" glyph-name="Ubreve" horiz-adv-x="692" d="M390 726Q359 726 335 737T294 768T265 813T251 866L273 872Q286 845 313 827T390 808Q438 808 465 825T507 872L529 866Q526 838 516 813T488 769T446 738T390 726ZM361 -12Q299 -12 249 1T162
42T105 114T85 223V593Q85 614 84 626T78 646T66 656T49 661L11 669V693H309V669L272 661Q261 658 254 655T243 646T238 627T236 593V207Q236 124 274 85T402 46Q487 46 524 92T561 219V581Q561 607 560 622T553 645T539 656T516 662L473 669V693H682V669L649 662Q638
660 631 657T618 645T611 623T608 583V212Q608 166 594 125T549 54T473 6T361 -12Z" />
<glyph unicode="&#x16d;" glyph-name="ubreve" horiz-adv-x="604" d="M208 -12Q147 -12 112 21T76 120V415Q76 430 75 438T71 452T63 462T47 471L10 491V509L199 529L210 520V151Q210 106 229 86T286 66Q317 66 345 74T396 91V415Q396 430 395 438T391 452T383
462T367 471L330 491V509L519 529L530 520V113Q530 95 531 84T535 67T545 56T561 48L594 33V14L408 -12L399 -5L401 60H396Q357 32 310 10T208 -12ZM307 576Q280 576 259 587T221 618T195 663T181 716L203 722Q217 695 241 677T307 658Q348 658 372 675T410 722L432
716Q429 688 419 663T394 619T356 588T307 576Z" />
<glyph unicode="&#x16e;" glyph-name="Uring" horiz-adv-x="692" d="M392 698Q349 698 323 724T296 789Q296 829 323 855T392 881Q434 881 461 855T488 789Q488 751 461 725T392 698ZM392 730Q417 730 432 746T447 789Q447 815 432 832T392 849Q368 849 353 832T337
789Q337 763 352 747T392 730ZM361 -12Q299 -12 249 1T162 42T105 114T85 223V593Q85 614 84 626T78 646T66 656T49 661L11 669V693H309V669L272 661Q261 658 254 655T243 646T238 627T236 593V207Q236 124 274 85T402 46Q487 46 524 92T561 219V581Q561 607 560
622T553 645T539 656T516 662L473 669V693H682V669L649 662Q638 660 631 657T618 645T611 623T608 583V212Q608 166 594 125T549 54T473 6T361 -12Z" />
<glyph unicode="&#x16f;" glyph-name="uring" horiz-adv-x="604" d="M306 573Q263 573 237 599T210 664Q210 704 237 730T306 756Q348 756 375 730T402 664Q402 626 375 600T306 573ZM306 605Q331 605 346 621T361 664Q361 690 346 707T306 724Q282 724 267 707T251
664Q251 638 266 622T306 605ZM208 -12Q147 -12 112 21T76 120V415Q76 430 75 438T71 452T63 462T47 471L10 491V509L199 529L210 520V151Q210 106 229 86T286 66Q317 66 345 74T396 91V415Q396 430 395 438T391 452T383 462T367 471L330 491V509L519 529L530 520V113Q530
95 531 84T535 67T545 56T561 48L594 33V14L408 -12L399 -5L401 60H396Q357 32 310 10T208 -12Z" />
<glyph unicode="&#x170;" glyph-name="Uhungarumlaut" horiz-adv-x="692" d="M277 737L349 853Q366 885 389 885Q406 885 423 871T441 836Q441 822 434 810T407 786L293 721L277 737ZM444 737L516 853Q535 885 557 885Q574 885 592 870T610 835Q610 823 604 812T578
789L461 721L444 737ZM361 -12Q299 -12 249 1T162 42T105 114T85 223V593Q85 614 84 626T78 646T66 656T49 661L11 669V693H309V669L272 661Q261 658 254 655T243 646T238 627T236 593V207Q236 124 274 85T402 46Q487 46 524 92T561 219V581Q561 607 560 622T553
645T539 656T516 662L473 669V693H682V669L649 662Q638 660 631 657T618 645T611 623T608 583V212Q608 166 594 125T549 54T473 6T361 -12Z" />
<glyph unicode="&#x171;" glyph-name="uhungarumlaut" horiz-adv-x="604" d="M208 -12Q147 -12 112 21T76 120V415Q76 430 75 438T71 452T63 462T47 471L10 491V509L199 529L210 520V151Q210 106 229 86T286 66Q317 66 345 74T396 91V415Q396 430 395 438T391
452T383 462T367 471L330 491V509L519 529L530 520V113Q530 95 531 84T535 67T545 56T561 48L594 33V14L408 -12L399 -5L401 60H396Q357 32 310 10T208 -12ZM189 590L269 716Q289 748 311 748Q328 748 345 734T363 699Q363 685 356 672T329 648L205 574L189 590ZM356
590L437 716Q456 748 479 748Q496 748 514 733T532 698Q532 686 526 674T500 651L373 574L356 590Z" />
<glyph unicode="&#x172;" glyph-name="Uogonek" horiz-adv-x="692" d="M400 -203Q358 -203 331 -183T304 -126Q304 -108 313 -91T337 -59T372 -31T414 -7Q402 -9 388 -10T361 -12Q299 -12 249 1T162 42T105 114T85 223V593Q85 614 84 626T78 646T66 656T49 661L11
669V693H309V669L272 661Q261 658 254 655T243 646T238 627T236 593V207Q236 124 274 85T402 46Q487 46 524 92T561 219V581Q561 607 560 622T553 645T539 656T516 662L473 669V693H682V669L649 662Q638 660 631 657T618 645T611 623T608 583V212Q608 150 583 100T503
19Q459 -5 432 -33T405 -109Q405 -129 412 -138T430 -152Q439 -156 450 -157T484 -158V-179Q473 -187 451 -195T400 -203Z" />
<glyph unicode="&#x173;" glyph-name="uogonek" horiz-adv-x="604" d="M385 -203Q344 -203 318 -183T291 -126Q291 -108 300 -92T325 -61T360 -35T399 -13L401 60H396Q357 32 310 10T208 -12Q147 -12 112 21T76 120V415Q76 430 75 438T71 452T63 462T47 471L10
491V509L199 529L210 520V151Q210 106 229 86T286 66Q317 66 345 74T396 91V415Q396 430 395 438T391 452T383 462T367 471L330 491V509L519 529L530 520V113Q530 95 531 84T535 67T545 56T561 48L594 33V14L540 8Q460 -1 426 -35T391 -109Q391 -129 398 -138T416
-152Q425 -156 436 -157T470 -158V-179Q459 -187 438 -195T385 -203Z" />
<glyph unicode="&#x174;" glyph-name="Wcircumflex" horiz-adv-x="977" d="M361 735L489 864H534L663 735L653 720L512 773L371 720L361 735ZM84 572Q75 598 69 614T57 641T43 655T24 663L-2 669V693H290V669L262 663Q229 654 229 625Q229 611 234 593T245 554L364
174H369L475 495L447 581Q433 624 422 640T389 663L364 669V693H655V669L622 662Q591 655 591 623Q591 610 595 592T605 554L724 174H729L836 554Q841 573 845 591T849 624Q849 656 815 663L783 669V693H979V669L953 663Q929 657 917 633T887 551L718 0H634L500
422H497L356 0H273L84 572Z" />
<glyph unicode="&#x175;" glyph-name="wcircumflex" horiz-adv-x="808" d="M286 588L408 728H453L576 588L566 573L431 637L296 573L286 588ZM72 412Q65 431 59 444T47 465T33 478T15 486L-6 492V515H253V492L229 486Q214 481 209 474T204 455Q204 444 208 430T218
395L300 144H305L386 378L375 412Q361 452 351 466T324 486L303 492V515H553V492L526 485Q512 481 507 473T501 450Q501 429 513 395L597 144H602L682 395Q688 415 691 428T694 451Q694 478 665 485L638 492V515H814V492L791 486Q781 483 774 478T761 463T749 438T734
401L590 0H520L410 316H407L292 0H223L72 412Z" />
<glyph unicode="&#x176;" glyph-name="Ycircumflex" horiz-adv-x="629" d="M207 735L335 864H380L509 735L499 720L358 773L217 720L207 735ZM172 24L214 32Q226 34 233 37T244 47T249 66T251 100V283L91 576Q78 600 69 615T52 640T36 655T18 663L-4 669V693H304V669L276
663Q255 658 246 649T237 624Q237 603 256 568L373 337H377L480 564Q490 584 493 598T496 623Q496 638 488 647T456 662L427 669V693H633V669L612 663Q600 659 591 653T573 635T554 606T532 563L402 290V100Q402 79 403 67T408 47T419 37T439 32L480 24V0H172V24Z"
/>
<glyph unicode="&#x177;" glyph-name="ycircumflex" horiz-adv-x="535" d="M111 -207Q66 -207 41 -188T16 -139Q16 -113 32 -99T74 -84Q102 -84 115 -96T136 -131Q139 -142 143 -146T155 -150Q171 -150 190 -127T235 -41L248 -11L71 411Q61 433 55 446T43 468T32
479T17 486L-4 492V515H261V492L234 485Q219 481 212 474T205 450Q205 431 219 395L314 148H318L409 395Q423 434 423 454Q423 468 416 474T393 485L365 492V515H541V492L516 485Q507 482 501 477T490 463T478 439T462 401L282 -46Q268 -80 254 -109T220 -160T174
-194T111 -207ZM160 588L282 728H327L450 588L440 573L305 637L170 573L160 588Z" />
<glyph unicode="&#x178;" glyph-name="Ydieresis" horiz-adv-x="629" d="M250 728Q222 728 202 747T182 795Q182 824 202 843T250 862Q279 862 299 843T319 795Q319 766 299 747T250 728ZM466 728Q437 728 417 747T397 795Q397 824 417 843T466 862Q494 862 514
843T534 795Q534 766 514 747T466 728ZM172 24L214 32Q226 34 233 37T244 47T249 66T251 100V283L91 576Q78 600 69 615T52 640T36 655T18 663L-4 669V693H304V669L276 663Q255 658 246 649T237 624Q237 603 256 568L373 337H377L480 564Q490 584 493 598T496 623Q496
638 488 647T456 662L427 669V693H633V669L612 663Q600 659 591 653T573 635T554 606T532 563L402 290V100Q402 79 403 67T408 47T419 37T439 32L480 24V0H172V24Z" />
<glyph unicode="&#x179;" glyph-name="Zacute" horiz-adv-x="567" d="M195 740L350 852Q373 869 394 869Q415 869 429 853T443 814Q443 797 433 784T397 765L201 724L195 740ZM21 39L385 651V655H337Q281 655 248 654T195 648T163 634T142 609Q133 596 126 584T111
557T95 525T77 484H50L61 693H549V654L187 43V39H238Q296 39 332 41T390 48T424 63T449 88Q469 114 484 145T520 229H549L534 0H21V39Z" />
<glyph unicode="&#x17a;" glyph-name="zacute" horiz-adv-x="476" d="M158 594L300 713Q323 733 346 733Q367 733 381 717T395 680Q395 665 386 650T353 628L165 578L158 594ZM15 34L306 474V478H240Q212 478 194 477T165 473T145 463T129 448Q111 426 98 404T65
347H42L51 515H460V483L168 41V37H231Q267 37 290 38T328 44T352 56T370 76Q387 100 402 124T431 177H455L441 0H15V34Z" />
<glyph unicode="&#x17b;" glyph-name="Zdotaccent" horiz-adv-x="567" d="M304 726Q275 726 254 745T233 794Q233 823 254 842T304 862Q334 862 355 843T376 794Q376 765 355 746T304 726ZM21 39L385 651V655H337Q281 655 248 654T195 648T163 634T142 609Q133
596 126 584T111 557T95 525T77 484H50L61 693H549V654L187 43V39H238Q296 39 332 41T390 48T424 63T449 88Q469 114 484 145T520 229H549L534 0H21V39Z" />
<glyph unicode="&#x17c;" glyph-name="zdotaccent" horiz-adv-x="476" d="M15 34L306 474V478H240Q212 478 194 477T165 473T145 463T129 448Q111 426 98 404T65 347H42L51 515H460V483L168 41V37H231Q267 37 290 38T328 44T352 56T370 76Q387 100 402 124T431
177H455L441 0H15V34ZM253 575Q224 575 203 594T182 643Q182 672 203 691T253 711Q283 711 304 692T325 643Q325 614 304 595T253 575Z" />
<glyph unicode="&#x17d;" glyph-name="Zcaron" horiz-adv-x="567" d="M159 860L169 874L304 818L439 874L449 860L326 727H282L159 860ZM21 39L385 651V655H337Q281 655 248 654T195 648T163 634T142 609Q133 596 126 584T111 557T95 525T77 484H50L61 693H549V654L187
43V39H238Q296 39 332 41T390 48T424 63T449 88Q469 114 484 145T520 229H549L534 0H21V39Z" />
<glyph unicode="&#x17e;" glyph-name="zcaron" horiz-adv-x="476" d="M109 720L119 734L254 671L389 734L399 720L276 580H232L109 720ZM15 34L306 474V478H240Q212 478 194 477T165 473T145 463T129 448Q111 426 98 404T65 347H42L51 515H460V483L168 41V37H231Q267
37 290 38T328 44T352 56T370 76Q387 100 402 124T431 177H455L441 0H15V34Z" />
<glyph unicode="&#x192;" glyph-name="florin" horiz-adv-x="463" d="M46 397H131L144 485Q161 599 221 651T372 704Q434 704 465 680T496 621Q496 594 480 580T440 566Q412 566 398 581T378 637Q374 658 370 663T352 668Q341 668 332 664T315 649T301 617T289
563L264 397H380V356H258L212 41Q203 -24 185 -69T140 -143T79 -184T5 -197Q-25 -197 -46 -191T-81 -174T-101 -150T-108 -122Q-108 -99 -94 -86T-54 -72Q-30 -72 -18 -84T0 -132Q4 -152 8 -157T20 -163Q36 -163 45 -147T62 -84L125 356H46V397Z" />
<glyph unicode="&#x1fa;" glyph-name="Aringacute" horiz-adv-x="669" d="M221 930L376 1042Q399 1059 420 1059Q441 1059 455 1043T469 1004Q469 987 459 974T423 955L227 914L221 930ZM330 720Q287 720 261 746T234 811Q234 851 261 877T330 903Q372 903 399
877T426 811Q426 773 399 747T330 720ZM330 752Q355 752 370 768T385 811Q385 837 370 854T330 871Q306 871 291 854T275 811Q275 785 290 769T330 752ZM-3 24L23 31Q34 34 42 38T57 53T71 82T91 133L290 693H372L579 126Q589 99 597 82T612 54T627 38T645 30L669
24V0H368V24L396 31Q416 36 423 45T431 68Q431 81 426 99T413 139L381 230H174L144 139Q136 118 133 101T130 73Q130 53 139 45T169 31L199 24V0H-3V24ZM187 269H368L278 529H273L187 269Z" />
<glyph unicode="&#x1fb;" glyph-name="aringacute" horiz-adv-x="515" d="M139 790L294 902Q317 919 338 919Q359 919 373 903T387 864Q387 847 377 834T341 815L145 774L139 790ZM169 -13Q99 -13 59 21T19 120Q19 152 31 175T66 216T119 245T184 265L302 294V387Q302
416 299 436T287 469T263 488T222 494Q195 494 185 487T173 457Q169 419 156 399T105 379Q74 379 59 394T44 435Q44 459 60 477T103 506T168 524T250 530Q342 530 389 498T436 395V106Q436 81 441 69T461 48Q470 43 482 41T508 39V18Q495 8 468 -2T404 -12Q362
-12 339 4T309 48H304Q285 23 250 5T169 -13ZM230 49Q257 49 275 60T302 86V247L244 241Q201 237 177 215T152 138Q152 91 173 70T230 49ZM250 573Q207 573 181 599T154 664Q154 704 181 730T250 756Q292 756 319 730T346 664Q346 626 319 600T250 573ZM250 605Q275
605 290 621T305 664Q305 690 290 707T250 724Q226 724 211 707T195 664Q195 638 210 622T250 605Z" />
<glyph unicode="&#x1fc;" glyph-name="AEacute" horiz-adv-x="917" d="M523 740L678 852Q701 869 722 869Q743 869 757 853T771 814Q771 797 761 784T725 765L529 724L523 740ZM-4 24L22 31Q34 34 43 38T62 53T84 82T115 133L408 647Q402 653 394 656T375 661L335
669V693H861L872 502H845Q828 542 816 565T793 603Q782 620 772 630T747 645T715 651T668 653Q629 653 606 651T569 644V379H600Q627 379 645 380T676 385T695 395T707 410Q716 428 722 445T735 488H761V229H735Q729 253 723 271T707 309Q702 319 696 325T679 334T649
339T600 340H569V147Q569 111 571 90T584 57T616 43T676 40Q707 40 727 42T760 50T784 67T806 95Q819 113 834 146T867 226H895L881 0H349V24L387 32Q397 34 404 37T416 47T423 66T425 100V219H217L174 139Q161 116 153 96T145 62Q144 39 176 31L205 24V0H-4V24ZM238
257H425V593H422L238 257Z" />
<glyph unicode="&#x1fd;" glyph-name="aeacute" horiz-adv-x="775" d="M301 594L443 713Q466 733 489 733Q510 733 524 717T538 680Q538 665 529 650T496 628L308 578L301 594ZM543 -12Q475 -12 427 9T349 72Q282 -13 172 -13Q100 -13 60 21T19 119Q19 151 31
175T66 217T118 247T184 268L300 296V387Q300 414 297 434T286 468T262 487T221 494Q194 494 184 487T171 457Q167 419 154 399T104 379Q73 379 58 394T42 436Q42 460 58 477T101 506T165 524T242 530Q302 530 338 513T393 464Q422 495 460 512T545 530Q593 530
631 516T697 470T738 390T753 271H429Q431 212 443 172T477 108T527 74T592 63Q643 63 677 75T740 102V72Q728 60 710 46T666 18T610 -3T543 -12ZM537 495Q490 495 461 451T429 306L617 316Q617 410 602 452T537 495ZM230 49Q262 49 285 67T325 116Q302 170 300
250L244 244Q201 240 177 216T152 137Q152 90 173 70T230 49Z" />
<glyph unicode="&#x1fe;" glyph-name="Oslashacute" horiz-adv-x="712" d="M247 740L402 852Q425 869 446 869Q467 869 481 853T495 814Q495 797 485 784T449 765L253 724L247 740ZM148 55Q94 99 62 169T29 337Q29 435 58 505T134 619T240 684T360 705Q454 705
531 660L575 730H623L564 637Q618 594 650 524T683 353Q683 254 654 185T578 72T472 8T352 -12Q257 -12 181 32L120 -64H72L148 55ZM358 27Q401 27 432 43T485 95T516 189T526 333Q526 464 504 542L226 103Q266 27 358 27ZM186 357Q186 292 191 241T207 150L485
589Q465 627 433 646T353 666Q311 666 280 650T228 597T197 501T186 357Z" />
<glyph unicode="&#x1ff;" glyph-name="oslashacute" horiz-adv-x="569" d="M120 37Q75 70 49 125T23 257Q23 326 45 377T104 463T187 513T284 530Q357 530 419 499L469 576H514L451 479Q495 446 520 393T546 263Q546 194 524 142T466 56T382 4T284 -13Q210 -13
152 17L99 -64H54L120 37ZM163 256Q163 212 165 179T174 121L380 440Q365 472 340 483T281 494Q253 494 231 482T194 442T171 369T163 256ZM288 23Q315 23 337 35T374 75T398 150T406 266Q405 307 403 338T395 393L189 75Q205 45 229 34T288 23ZM188 594L330 713Q353
733 376 733Q397 733 411 717T425 680Q425 665 416 650T383 628L195 578L188 594Z" />
<glyph unicode="&#x218;" glyph-name="Scommaaccent" horiz-adv-x="519" d="M169 -227Q218 -214 235 -194T251 -148Q248 -150 242 -152T227 -155Q202 -155 188 -141T174 -104Q174 -82 192 -66T239 -50Q270 -50 291 -70T313 -126Q313 -147 306 -167T282 -203T239
-232T175 -248L169 -227ZM237 -13Q171 -13 120 -3T38 21L26 209H55Q73 171 88 142T124 83Q146 50 173 39T247 27Q313 27 342 58T372 141Q372 165 365 184T339 221T292 255T217 290Q167 311 132 333T75 380T44 436T34 505Q34 548 51 585T99 649T173 691T270 706Q333
706 373 699T440 682L451 514H424Q415 534 408 548T393 575T378 597T361 620Q351 633 342 641T322 655T296 663T258 666Q202 666 173 641T143 566Q143 544 148 527T169 493T210 462T280 429Q337 405 376 382T441 334T478 279T490 214Q490 167 474 126T425 54T346
5T237 -13Z" />
<glyph unicode="&#x219;" glyph-name="scommaaccent" horiz-adv-x="422" d="M126 -227Q175 -214 192 -194T208 -148Q205 -150 199 -152T184 -155Q159 -155 145 -141T131 -104Q131 -82 149 -66T196 -50Q227 -50 248 -70T270 -126Q270 -147 263 -167T239 -203T196
-232T132 -248L126 -227ZM185 -12Q142 -12 102 -6T31 10L26 162H51Q65 133 79 111T111 65Q126 43 145 34T199 24Q238 24 264 44T290 102Q290 121 284 135T263 161T227 184T172 208Q106 233 67 270T27 369Q27 404 41 433T82 484T145 518T229 530Q271 530 305 525T362
510L367 378H344Q330 404 318 424T290 461Q273 482 256 488T213 494Q175 494 154 476T132 424Q132 393 155 370T239 324Q320 294 359 257T399 162Q399 124 385 92T343 37T276 1T185 -12Z" />
<glyph unicode="&#x237;" glyph-name="uni0237" horiz-adv-x="282" d="M12 -210Q-47 -210 -74 -187T-102 -130Q-102 -105 -86 -91T-44 -77Q-11 -77 2 -93T20 -144Q22 -164 25 -169T37 -174Q57 -174 68 -159T79 -110V407Q79 423 78 432T74 447T64 457T48 468L13
489V506L208 529L217 523Q216 509 215 481T213 417V3Q213 -52 198 -92T155 -158T92 -197T12 -210Z" />
<glyph unicode="&#x2c6;" glyph-name="circumflex" horiz-adv-x="500" d="M105 588L227 728H272L395 588L385 573L250 637L115 573L105 588Z" />
<glyph unicode="&#x2c7;" glyph-name="caron" horiz-adv-x="500" d="M105 720L115 734L250 671L385 734L395 720L272 580H228L105 720Z" />
<glyph unicode="&#x2d8;" glyph-name="breve" horiz-adv-x="500" d="M251 576Q224 576 203 587T165 618T139 663T125 716L147 722Q161 695 185 677T251 658Q292 658 316 675T354 722L376 716Q373 688 363 663T338 619T300 588T251 576Z" />
<glyph unicode="&#x2d9;" glyph-name="dotaccent" horiz-adv-x="434" d="M215 575Q186 575 165 594T144 643Q144 672 165 691T215 711Q245 711 266 692T287 643Q287 614 266 595T215 575Z" />
<glyph unicode="&#x2da;" glyph-name="ring" horiz-adv-x="500" d="M250 573Q207 573 181 599T154 664Q154 704 181 730T250 756Q292 756 319 730T346 664Q346 626 319 600T250 573ZM250 605Q275 605 290 621T305 664Q305 690 290 707T250 724Q226 724 211 707T195
664Q195 638 210 622T250 605Z" />
<glyph unicode="&#x2db;" glyph-name="ogonek" horiz-adv-x="445" d="M224 -203Q182 -203 156 -183T129 -126Q129 -106 140 -88T169 -54T208 -25T249 0H278Q258 -24 244 -50T229 -109Q229 -129 236 -138T254 -152Q263 -156 274 -157T309 -158V-179Q297 -187 276
-195T224 -203Z" />
<glyph unicode="&#x2dc;" glyph-name="tilde" horiz-adv-x="500" d="M88 583Q99 609 109 630T129 667T153 690T183 698Q200 698 220 695T261 687T302 679T338 675Q353 675 364 685T390 718L412 707Q401 681 392 660T372 623T348 600T317 592Q300 592 280 595T238
603T198 611T162 615Q146 615 135 605T110 572L88 583Z" />
<glyph unicode="&#x2dd;" glyph-name="hungarumlaut" horiz-adv-x="500" d="M117 590L197 716Q217 748 239 748Q256 748 273 734T291 699Q291 685 284 672T257 648L133 574L117 590ZM284 590L365 716Q384 748 407 748Q424 748 442 733T460 698Q460 686 454 674T428
651L301 574L284 590Z" />
</font>
</defs>
</svg>
